<mxfile host="app.diagrams.net" modified="2021-10-15T20:11:05.107Z" agent="5.0 (Windows NT 10.0; Win64; x64) AppleWebKit/537.36 (KHTML, like Gecko) Chrome/94.0.4606.81 Safari/537.36" etag="tPI8zMUstGhLELb70k_8" version="15.5.4" type="github">
  <diagram id="dPyBSWpfYYcb_H0Tseqk" name="Page-1">
    <mxGraphModel dx="2258" dy="734" grid="1" gridSize="10" guides="1" tooltips="1" connect="1" arrows="1" fold="1" page="1" pageScale="1" pageWidth="850" pageHeight="1100" math="0" shadow="0">
      <root>
        <mxCell id="0" />
        <mxCell id="1" parent="0" />
        <mxCell id="_BLZTxVhf-Pt93lIt7vx-1" style="edgeStyle=none;rounded=0;orthogonalLoop=1;jettySize=auto;html=1;exitX=1;exitY=0.5;exitDx=0;exitDy=0;entryX=0.25;entryY=0;entryDx=0;entryDy=0;fontColor=#FF1100;jumpStyle=arc;fillColor=#d5e8d4;strokeColor=#82b366;" parent="1" source="_BLZTxVhf-Pt93lIt7vx-46" target="_BLZTxVhf-Pt93lIt7vx-7" edge="1">
          <mxGeometry relative="1" as="geometry">
            <Array as="points">
              <mxPoint y="690" />
              <mxPoint x="90" y="690" />
              <mxPoint x="183" y="760" />
            </Array>
          </mxGeometry>
        </mxCell>
        <mxCell id="_BLZTxVhf-Pt93lIt7vx-2" style="edgeStyle=none;rounded=0;orthogonalLoop=1;jettySize=auto;html=1;exitX=1;exitY=0.5;exitDx=0;exitDy=0;entryX=0.855;entryY=0.145;entryDx=0;entryDy=0;entryPerimeter=0;fontColor=#FF1100;jumpStyle=none;fillColor=#fff2cc;strokeColor=#d6b656;" parent="1" source="_BLZTxVhf-Pt93lIt7vx-19" target="_BLZTxVhf-Pt93lIt7vx-63" edge="1">
          <mxGeometry relative="1" as="geometry">
            <Array as="points">
              <mxPoint y="650" />
              <mxPoint x="448" y="650" />
            </Array>
          </mxGeometry>
        </mxCell>
        <mxCell id="_BLZTxVhf-Pt93lIt7vx-3" style="edgeStyle=none;rounded=0;orthogonalLoop=1;jettySize=auto;html=1;exitX=1;exitY=0.5;exitDx=0;exitDy=0;fontColor=#FF1100;jumpStyle=none;fillColor=#e1d5e7;strokeColor=#9673a6;entryX=1.058;entryY=0.646;entryDx=0;entryDy=0;entryPerimeter=0;" parent="1" target="_BLZTxVhf-Pt93lIt7vx-60" edge="1">
          <mxGeometry relative="1" as="geometry">
            <mxPoint x="-100" y="795" as="sourcePoint" />
            <Array as="points">
              <mxPoint y="680" />
              <mxPoint x="160" y="680" />
              <mxPoint x="260" y="880" />
              <mxPoint x="430" y="880" />
              <mxPoint x="420" y="850" />
              <mxPoint x="380" y="733" />
            </Array>
            <mxPoint x="310" y="870" as="targetPoint" />
          </mxGeometry>
        </mxCell>
        <mxCell id="_BLZTxVhf-Pt93lIt7vx-4" style="edgeStyle=none;rounded=0;orthogonalLoop=1;jettySize=auto;html=1;exitX=1;exitY=0.5;exitDx=0;exitDy=0;entryX=0.038;entryY=0.202;entryDx=0;entryDy=0;entryPerimeter=0;fontColor=#FF1100;jumpStyle=none;fillColor=#e1d5e7;strokeColor=#9673a6;" parent="1" target="_BLZTxVhf-Pt93lIt7vx-70" edge="1">
          <mxGeometry relative="1" as="geometry">
            <mxPoint x="-100" y="752.5" as="sourcePoint" />
            <Array as="points">
              <mxPoint y="670" />
              <mxPoint x="170" y="670" />
              <mxPoint x="270" y="870" />
              <mxPoint x="430" y="870" />
              <mxPoint x="520" y="639" />
            </Array>
          </mxGeometry>
        </mxCell>
        <mxCell id="_BLZTxVhf-Pt93lIt7vx-5" style="edgeStyle=none;rounded=0;orthogonalLoop=1;jettySize=auto;html=1;exitX=1;exitY=0.5;exitDx=0;exitDy=0;fontColor=#FF1100;entryX=0.145;entryY=0.145;entryDx=0;entryDy=0;entryPerimeter=0;jumpStyle=none;fillColor=#fff2cc;strokeColor=#d6b656;" parent="1" source="_BLZTxVhf-Pt93lIt7vx-48" target="_BLZTxVhf-Pt93lIt7vx-63" edge="1">
          <mxGeometry relative="1" as="geometry">
            <mxPoint x="420" y="710" as="targetPoint" />
            <Array as="points">
              <mxPoint y="660" />
              <mxPoint x="412" y="660" />
            </Array>
          </mxGeometry>
        </mxCell>
        <mxCell id="_BLZTxVhf-Pt93lIt7vx-6" value="" style="group" parent="1" vertex="1" connectable="0">
          <mxGeometry x="115" y="872" width="160" height="80" as="geometry" />
        </mxCell>
        <mxCell id="_BLZTxVhf-Pt93lIt7vx-7" value="" style="shape=image;verticalLabelPosition=bottom;labelBackgroundColor=#ffffff;verticalAlign=top;aspect=fixed;imageAspect=0;image=data:image/png,iVBORw0KGgoAAAANSUhEUgAAAwEAAAMdCAYAAADDC3r1AAAAAXNSR0IArs4c6QAAIABJREFUeF7svQ2cXWV177/WPudMeBXfIMkApbTYf2tqaxv6QlWcEERRSMR21Mq72qFosXpbEUHxoFCq2Iu9qOCIGDIBvE4hyUwC0tvC1HurfUnsv7Vo7/XlWjFBQBR5z8w5e93PevY+mQlvmTlzXvbL93z4JExm72ev57vWOWf/9vOstVR4QQACEIAABCAAAQjsSUBFxIACgeIS8BDnBQEIQAACEIAABCAAAQiUiAAioETOZqoQgAAEIAABCEAAAhBwAogA4gACEIAABCAAAQhAAAIlI4AIKJnDmS4EIAABCEAAAhCAAAQQAcQABCAAAQhAAAIQgAAESkYAEVAyhzNdCEAAAhCAAAQgAAEIIAKIAQhAAAIQgEAGCFCRMgNOwAQIlIgAIiCTzuarIJNuwSgIQAACEIAABCBQEAK5FQHDw1YZH5dYRGnlUZBgZBoQgAAEIAABCEAAAr0hkFsR0MKTiAFt9gYXV4EABCAAAQhAAAIQgED+CeRSBNTrFn1r+72/uXafpf/8xnFtjqzcVhvdvrLBqkD+A5IZQAACEIAABCAAAQh0n0AORYCpmcjpa3febqJxJPKBsYnBbY6KVYHuBwxXgAAEIAABCEAAAhDIP4HciQBfBajXNT51zY5/EJHfEpEfqOjN++0vl47eNPgjEVNWBPIfmMwAAhCAAAQgAAEIQKB7BHIrAk5bs+Pvxex3kqxgFVX9TmT2l9dPDn5SSRbuXsQwMgQgAAEIQAACEIBA7gnkVgScunbHVyS2Y1SjGZO4qhaUgOuBf6yYnn/9xOCXZ73D6kDuI5UJQAACEIAABCAAAQh0jEABRECoDBSZiC8KRGFdwEwskjEdGPjwhvFDvu3/lmwj8mMoKdqx6GEgCEAAAhCAAAQgAIFcEiiECDCzivoqgJnnDPvWIP9fVdXHNJJLLJoZ23DLz97jHhoasurUlDZy6S2MhgAEIAABCEAAAhCAQAcIFEIEiEglCABVCb12EwEQ+99BE0Ty75FGH7XHoo1jf73sUa8i5OzoL9CBCGIICEAAAhCAAAQgAIHcESiOCNgTfSIJVE1MZkxtIPm1bq5E0WfWb1p+m/9Ef4HcxSsGQwACEIAABCAAAQh0gEBRRYCj8b1BoVCQijZSVVATkYdM9MaoIv9tbOPgN/1A+gt0IJIYAgIQgAAEIAABCEAgNwSKLAKCEPBUYNOwUch1wIyIDISSopH8p5pd+9yZQ6+46jbdRX+B3MQshkIAAhCAAAQgAAEILJJA0UVAC09IGfb9QSISi1hsJtWkv4B8XSX6yNjE8vFFsuR0CPSXQEiI6a8JXB0CEIAABCAAgXwQKIsI2C0GwrpAsjTgYqASqgmJNkTljqpU/nTd5mVfn3Ud/QXyEcZYWWgCXRI3XRq20K5gchCAAAQgUBwCZRMBs2LAKwclicOuCaIAwnSXiX6mYs2Prd9y+A7/J/oLFCfYmQkEIAABCEAAAhCAQEKgrCIg3PInFYRcBoROw0kmcbJlaIeKXjKwpHnz58YP/7EfTH8B3jIQgAAEIAABCEAAAkUhUGYREITA7qWBpKSoCwHvQFxJ8wW+HFnlip9bufTWel1jFwJDQxL7/xclAJgHBCAAAQhAAAIQgED5CJRdBMz1+NzkYa8p1DCTWtg3HOm6StNG12857Kt+wsjIttro6NFeaYgXBCAAAQhAAAIQgAAEckcAEfBkl3mWgKcKJAsDDfMlAbOKit4vKusGZOAT100cvNN7C6xYIcaqQO5iHoMhAAEIQAACEIBA6QkgAp4xBHYvDPiqwIyZhq7DqvJvWpHRsY2Hfsp/ThKH2R5U+ncSACAAAQhAAAIQgECOCCACnt1Z5lnDmlQKbZovC6jnC0hTRL9arVQ/vG7j0v+RI39jKgQgAAEIQAACEIAABEpdHWi+7veVgNb2IC8gFPoLJEWEZFpExnWJXjg2Pvj92QHpLzBfuBwHAQhAAAIQgAAEINB7AqwEzJt5qCjqrQXCskDYLCQSqesolUc0ko/sW9v3M6Pjz/+pD8k2oXmD5UAIQAACEIAABCAAgR4TQAQsHHjaX0BDeVHPI/ZUYt8npCL/W0UvfOGS5m1Xjh/+uP/eE4jHx9XLjvKCAAQgAAEIQAACEIBAJgggAtp3g+cLeCGhtPOwxba7v0A0EYv9xY0Tg1/24UdWbquNbl/Z8BWE9i/HmRCAAAQgAAEIQAACEOgMAUTA4jl6woCnD3uWgOcLNNJKQo+q6rVaia4d27js3/0ydB1ePGxGgAAEIAABCEAAAhBYPAFEwOIZtkbwfUGa5g3MmEhVLewR+raoft6ml3zyhtte8FAiBEJ1IVYFOseekSAAAQhAAAIQgAAEFkAAEbAAWPM4NKkkJKpqEptaQ0wG0nyBf4hEP7V+YnCDj0Pi8DxocggEIAABCEAAAhCAQFcIIAK6gjVsEJKkkJDEoayQVxJSbYjqX0dmH1g/cei/dOfSjAoBCEAAAhCAAAQgAIFnJ4AI6F6EpLkCYR3AKwo1RbWqyUrBw2GL0P771W+88bk/6Z4JjAwBCEAAAhCAQOkI+N0dm45L5/aFThgRsFBiCz++VVJUzCwWXxvwJOKQQaD3qNrF1Z9Ob1g3deQTPjTbhBYOmDMgAAEIQAACEIAABBZGABGwMF7tHh16iyUFhEL7YRfou9mr6j9W4spFRz6y9O/qU9pwIZAIAnXRwAsCEIAABCAAAQhAAAIdJYAI6CjOvQ7WKiea1AZSCasDqlrxMyOTa0Xl0618AfoL7JUnB0AAAhCAAAQgAAEItEEAEdAGtA6dMrs6YNJ0daCiVVF5QMT+UuPo+rEtg9/3a9FfoEPEGQYCEIAABCAAAQhAIBBABPQ3EIIQSPcJeZbAjJkMBKeo/quKXfPzv37oqG8Lor9Afx2V66uTIJZr92F8OQnwti2n35k1BHpJABHQS9rPfK1WSVFvLhabSEPMBlTFItU7TPSKsc2Dt/vpJA5nw2FYAQEIQAACPSKAIuoRaC5TNgKIgEx5PE0fTv5qmkkoKSoqP1XR22rV6kXX3bL0u5kyGWMgAAEIQAACEIAABHJHABGQSZe1qooGNdAUs6ovEYjK/Wpy9YH71K749PghjySmh45kVAPOpB8xCgIQgAAEIAABCGSTACIgm34Jd/dhPcDriaqGzIFww+/pwyLfrKhccORDg7d6SVE/mG1C2XUklkEAAhCAAAQgAIGsEUAEZM0je9rjN/8S7vxNLcgATxn2DILQhzialFq1vuGWg7/WEgLJ3/QXyLZbsQ4CEIAABCAAAQj0lwAioL/853v12a4CYfePbwAKdYUiEY0rEl0Ra+PaDROHf9sHHBnZVhsdPXpmvoNzHAQgAIGuECChsytYGRQCEIBAJwggAjpBsbdjtBqOefvhpm8RMpNIVL+nop+IKgdsWL/xOQ8MD1toQDY+rs3emsfVIAABCEAAAhCAAASyTgARkHUPPbN9uzcFicmMadpfwHRKxEY3TB56U1gVWLmtNrp9ZYPk4fw6GsshAAEIQAACEIBApwkgAjpNtLfjtcoIeRpx00RiEamp6C6JdEu1En183S3L/sFNInG4t47hahCAwAIJsHVogcA4HAIQgMDiCCACFscvC2fP3R7kecMNs7imvllI5AEzuWGffQ645HPjB/04C8ZiAwQgAAEIQAACEIBA/wkgAvrvg05ZEHoFmJmqapzkDUvFxYCq3C2mfzY2MXjN7MXoL9Ap8IwDAQhAAALFIMCCVDH8yCzmRwARMD9OeTpqd6exRBNYlFQT8j90m1b0T8c2Lv+71oTYJpQn12JrGQhwE1IGL+d7jsRovv2H9RBoEUAEFDcWZsWAeX+BpMtY+Et1fbUml6+7efA/fPpeSWh83PMJ6Dxc3HBgZhCAAAQgAAEIQGCWACKg2NGQCoHQYyx0GhO12CxsE3pQI7lca0tuWD/+wh2OYWjIqlNpB+JiY2F2EIAABCAAAQhAoNwEEAHl8b+vB6iFlQBpptuEPGPgXzTSKysP7hpfN3XkEy4EhoYkputweQKDmUIAAhCAAAQgUD4CiIDy+XzuNqEZExsIhYRUN6noNWObB293JEl/AboOly88mDEEIAABCEAAAmUggAgog5efNMdkSSD84SsBDbOwV8i3CD0cqf73qNr82LqbD/+WH1Gvi7IqUMIgYcoQgAAEIAABCBSaACKg0O7d6+R2rwqYWUNVa+EMlf+MTNYdNDN4+VW36a6QTUzS8F5hcgAEIAABCEAAAhDICwFEQF481T07d3cdNjPvOOxJxJVEC8g3VaMPjU0sH5+9PIKge65gZAhAAAIQgAAEINAbAoiA3nDO+lVCbzHvMpaIAItNpJLUFFKRSP56oFk9/7otS/8VMZB1V2IfBCAAAQgUmQB9Gors3d7OLeMi4Kmh3mpuderaHV+R2I5R1aZ3xu0ttsJeLeko4HLAxAsJJY0FXAqYxKLyF7X95KrPf+HQu/039BcobBwwMQhAAAIZJsBtcIadg2k5IpBxEfBUkoiAnkSX+SKAioUeY64Awv+pRCK6U0wvWbLP/n/1ufGDfuzW0F+gJz7hIhCAAAQgAAEIQKBjBBABHUNZyIGSu/9ko5DvGGqKWDXdNfR3kemV6ycP3ewz95KigyevbFJJqJBxwKQgAAEIQAACECgYAURAwRzapem4ABDVsCwQeyUhERnwrViqdqNGcvX6jYd9lVWBLtFnWAhAAAIQgAAEINBhAt0VAV3Ytsd2oA5HwMKG211JSERnzOJKSBtW3amiN1WWVD++bvyQH5IrsDCoHA0BCEAAAhCAAAR6TaC7IqALs0EEdAHqwodsiYHYRJticc0zCFTkGyJy9YaJQz+ZDEk50YWj5QwIQAACEIBAlwl04SFtly1m+C4QQAR0AWpJhvQdQn7j7zHU9FpC5qsCXklI9e+1oheNbVz+dyVhwTQhAAEIQAACEIBArgggAnLlrswZm5YNClrAVCwW04rLARVtqsgXmlW96MZbBv9z1nJWBzLnRQyCAAQgAAEIQCDfBNpY3UEE5NnlbTi8S9P1/gLqjQVUQ98xfyWdx1QfFdVLK1H82fUbD3vAf5HkDIT+DrwgAAEIQAACEIAABPpAABHQB+gFvWTSaMyScqJeWjTpNJC0HItU/0O1UrfHZcvYXy971HM77rpLFDFQ0GhgWhCAAAQgAAEIZJoAIiDT7sm1cUnP4WRpoCkq1ZA6LLLRIvvUDZsO+1v/wfsLjG5f2QgdyXhBAAIQgAAEIAABCPSEACKgJ5hLe5HZkqImTRMXAzqgIo+q2GelEo2ObRz8ptOh63BpY4SJQwACEIAABCDQBwKIgD5AL9klQ5JA2CSU7BeaMZGBpKyQfltMP7+fyCdGJwcfo79AySKD6UIAAhCAQAEJZCdhsYBwOzolREBHcTLYsxBIKwkFNRCLSUPEBryOUKS6TcT+Ymzi0C8k51NBiEiCAAQgAIFiE+BWudj+zcPsEAF58FKxbDQJFURD5nBsZlG6SrBLRe+0SnzBho2H/WuxpsxsIAABCEAAAhCAQLYIIAKy5Y8yWdPKF/C/YxGphDUCs0dU9DqpVi4b27jsvtmVAf8/kofLFCDMFQIQgAAEIACB7hFABHSPLSPvncBs4rDf/kuoMprUGDXbGYleXNOBL143cfDDPhT9BfYOlCMgAAEIQAACEIDAfAggAuZDiWO6SSDc/KupVxBNyoT6v7gUCDuG7H+KRB856qHBO+tT2vD+An5Iva6+esALAhCAAAQgAAEIQKANAoiANqBxSlcJJG3GkjWCppj3Fwj/8rlqNfrMuluW/7NffWRkW2109OiZrlrC4BCAAAQgAAEIQKCgBBABBXVszqflQsAzAHx1oBmWB8wqIvpAJHpNNbLPfH7zoXfTdTjnXsb8JxGgVgghAQEIQAACvSOACOgda660YAJpi4EgB2zGLDQa8wYD/2qRfO5FLx38lG8LShqNSZPE4QUD5gQI9IYA+qY3nLkKBApDgA+NXrgSEdALylxjMQQ8W1jN1PcINc0kFtWaiMSqcqdE8tENGw/9H8kF6C+wGNCcC4FuEOCrvBtUGRMCEIDA4gkgAhbPkBG6TyCUDfIkAS8cJGZNEamG3UIqj4jIZo31wrEtg9/vvilcAQIQyCUB1Egu3YbREIBA9wggArrHlpE7TCBdEvAkYW8YYCoWm0nFEwdE5ScqesUTS5Z/YnxcH2dloMPwGQ4CEIAABCAAgUIRQAQUyp2lmUxrZcBXAkJB0ZYyiNX+TxRF79vvkOVbR0c1VA/yBGJKipYmNpgoBCAAAQhAAALzIIAImAckDsksgaScaKvPmLcaMAstByKRLVqxP1u/8bCvuvXeaGzFCjHEQGZ9iWEQgAAEIAABCPSQACKgh7C5VFcIJA3G/JUIAM8i9rKiVVGZjiS6SiryubGNg9/0Q0ZWbquNbqe/QFc8waAQgAAEIAABCOSGACIgN67C0HkQCNnDSfNhaSSNiM1zBr4diV79+JL9142PH/RjVgXmQZJDIAABCEAAAhAoNAFEQKHdW9bJhTSBsCSgpjMmNuCZw6ryZTG5ZsPkoTc5maS/gDbKSol5QyCLBCjik0WvYBMEIFBEAoiAInqVOTkBk6SckK8LNH2vkJlUVaMZUdtqcfRnN0wu/+cEFf0FCBkIQAACEIAABMpFABFQLn+XcbbJFiHfGaTaMIlrfs+vKg+oRjdWdJ+L12163oNlBMOcIQABCEAAAhAoLwFEQHl9X5qZz9kc5Df/cVgUUKmELUIiP5BIP3LUS5dfO1s5iJWB0gQHE4UABCAAAQiUlAAioKSOL+m0W4nDvjTg2iByFZCuDPxjparnH/kry/9XSwzQX6CkUcK0IQABCECgZATKmY2ECChZmDPdPXIFPE8gpA+oavJeULnWJLryhs3Lv+E/JsnD0hTxJsW8IAABCEAAAhCAQDEIIAKK4UdmsXACLgBUtdVvTOKwTCBaMZUHI9WPLqnEG6695bAfzIoBKgktHDNnQAACEIAABCCQRQKIgCx6BZt6SSCUDUpXAryeUMNEauG5v+q/aCSfeqL24Nj4+IppXxUYGpKYrsO9dA/XggAEIAABCECgGwQQAd2gyph5JOACwNcCfGNQLCIzZrbEM4lV9LYo0qvWb1p+G6sCeXQtNkMAAhCAAAQg8GQCiABiAgJzCYTKQSreZ0xUG2IWmWikKg+q6kSzWr30xpsP+VbSW8Bf5AoQQBCAAAQgAAEI5I8AIiB/PsPi3hCYrSTkW4RMaknqsP4giuRzj9fij46PH/54b0zhKhCAAAQgAAEIQKCzBBABneXJaMUiELYIeXKAiMQhd0AkCj+a/Xsk+oH1k4dunp0y/QWK5X5mAwEIQAACECguAURAcX3LzDpCIOkspkkzAdcBLgyi0GjMdwJZtDXSyoXrJ5b+W3I5tgl1BDuDQAACEIBAnwiUs2Z+n2D39bKIgL7i5+I5IpBkCyR7gpIkYl8SSCqMxiryF7pEPzk2Pvh9PyDpL0BJ0Rz5F1MhAAEIQAACpSKACCiVu5lsBwgk7cX83j9dHQi9h10KqP5ARS97Yknzi+Pjh//YVwWGhqSCGOgAdYaAAAQgAAEIQKCjBBABHcXJYCUjsEfysIjUkqJCcodE+ukNmwZvdh4jK7fVRrevbFBJqGTRwXQhAAEIQAACGSaACMiwczAtFwR8a1BaUVSaJtZU0wERnZFIvhhFlU+t37j0qz6T4WGrjI9rMxezwkgIQAACEIAABApNABFQaPcyuR4R2J0joMnaQENMqmkb4h+q6U1P7KOXj48vvz9JHC56bwGSynoUd1wGAhCAAAQg0DYBREDb6DgRAk8hELIDNHQbk1jMmiZS8x8k0u+o6JVjm5d/Cm4QgAAEIAABCECg3wQQAf32ANcvIgFfD5C0llDTzCLPGg4dByL7Z5HK+Rs2LZ+anXgZVgeK6GbmBAEIQAACEMgvAURAfn2H5VknMCsFvLyoa4Ao6ThgsareJFarb5g45Ns+jXrdono9FBkK1Yd4QQACEIAABCAAgW4SQAR0ky5jQ8Cric7pL5BoAe824Aoh+qmqXqpVXT+2cdl9Dov+AoQMBCAAAQhAAAK9IIAI6AVlrtFzAhlLTW2tCYTn/JYkDcSpOHBT/1Ulumxfs62jk4OP+arAXXeJUkmo52HDBSEAAQhAAAKlIYAIKI2rmWhWCCSlhELGgK8SNLy/QJI8bDdXVK6+ftNhf+u2joxsq42O0l8gK37DDghAAAIQgECRCCACiuRN5pInAiFNwJWASOgvYJqUFX1UVK6vxnrVusnB//B1g+FhiVgVyJNrsRUCEIAABCCQfQKIgOz7CAuLTSDJGfCNQiozZuaNxrzM6He0YuufGIivGB8//HEajRU7CJgdBCAAAQhAoNcEEAG9Js71IPBUAp4u7JuD/M846TosNQmLBPIvKvKxsYlDvwA4CEAAAhCAAAQg0CkCiIBOkWQcCCyeQNJdwNQsaTZWSd6g2jCVv61p5b3rNi/7+uxl6C+weOSMAAEIQAACECgnAURAOf3OrLNLICki6jIgWRvw/yIJ9/syHYletUQqV1w7sfRenwL9BbLrSCyDAAQgAAEIZJlAX0VAO2Uck5sejU9du+MrEtsxqtoUkUqWIWMbBNogkIiBoAGCAPCOA0lxUZF7ReUD+w3sOz46/vyf+tjkDLRBmFMgAAEIQAACJSbQVxHQDndEQDvUOCfHBNItQqGoqK8QuDiIgipQ+bKKXj42sfx2/40LgRUrxFwk53i+mA4BCEAAAhCAQA8IIAJ6AJlLQKADBFoNxzxd2JcHGmbeX8BziSvXNaPGZ27cdPg/+XVGVm6rjW4/eqYD12QICEAAAhCAQG4ItLPDJDeT64KhiIAuQGVICHSRwJxeY9II6wKqVRG9JzK5TvdpXr1+/PAdvmLmNrAq0EVPMDQEIAABCEAgxwQQATl2HqaXmECyLSh0HRazGRMZCG9m1f9fomh0bNOya1pbhGg0VuI4YeoQgAAEIACBZyCACCA0INAxAkkqbw9fs1LAuw6bbxPyrsOeSmxftkg+csOmw/62h/ZwKQhAAAIQgAAEckKgp3csnWBCYnAnKDJGgQik24PSVQExFwPVdFXgCVO5JRrQ94+ND36/QHNmKhCAAAQyQYA96JlwA0a0SQAR0CY4ToNAxgj4tqBWCVHfK+SrApGoiYo+JBZ9ZMPk8o9nzGbMgQAEIAABCECgTwQQAe2CR/63S47zukrAdwiFVAFvPhyuFLoQi95ffXj6Z9ZNHflEVy/P4BCAAAQgAAEI5IIAIiAXbsJICCyIQLIOEPqKSdJnQHTH82Ye+/mrbnvRrgWNxMGdI8CDg86xZCQIQAACEFg0AUTAohEyAAQyTaC1NLCj+tD0UawEZNpXGAcBCEAAAhDoGQFEQM9QcyEI9IUAIqAv2LkoBCAAAQhAINsEEAHZ9g/WQWCxBBABiyXI+RCAAAQgAIECEkAEFNCpTAkCcwggAggHCEAAAhCAAASeQgARQFBAoNgEEAHF9i+zgwAEIAABCLRFABHQFjZOgkBuCCACcuMqDIUABCAAAQj0jgAioHesuRIE+kEAEdAP6lwTAhCAAAQgkHECiICMOwjzILBIAoiARQLkdAhAAAIQgEARCSACiuhV5gSBWQKIAKIBAhCAAAQgAIGnEEAEEBQQKDaBrouAet2iel3jYmNkdhCAAAQgUCwClt4DqxVrXvOfDSJg/qw4EgJ5JNBlEeAfoskHKGIgj+GBzRCAAATKR6Ber0f1er30D68QAeWLfWZcLgJdFAGJADjzDTte9vzK4NeuHNfHRWZFQbkwM1sIQAACEMgTgRNOuP2QmZldB99555q78mR3J21FBHSSJmMVmIA/7M7d28X90TURMDKyrTY6evTM6Wt3bBDT31C1d67ffOjfFDgImBoEIAABCBSAwNDQxNtF9OIokj+7446TrynAlNqaQu7ualpbDk5du+MrEtsxqtoUkUpbs+ckCBSfQNdEwPDwXQPj4yumT1u7c1zMfs/EZkSiyUql9v71Gw/+Pwla9lwWP8SYIQQgAIGsEthzdfr44yde3mjIx0Xkt8xEKpXoHXfccdLVWbW+23YhArpNmPEh8AwE/M3Xg2ykrouA09fe8wWz+E2tC6nIYxLb5Y2o9tmbJpbe69MfHrbK+HgQ7LwgAAEIQAACXSbgN/+XqEiy7//YYydfVKnY++PYzk5W9U1URaIoOpeVgC67opPDsxLQSZqMVQICvRQBTRGNEmmjqirfilTrBwxUJz49fsgjiIESRBtThAAEINBnAkNDd1anplY13IxXvOJLyyuVxhlm8YUi9hwRjVVNfRXAv6WiSBEBffbXgi6PCFgQLg6GQC9FQBxu/cPLmmZSTX6KtmpTrhrbOni7/5TkEqxstKoK4SIIQAACEIDAYgl4xZ+pqVdGLgCOOeaL+y5ZsuR3RfTdIrbSTExVYzOrqKp/LyIC8pjpiAhY7NuE80tGoA8iwMT841YlNpOGiA2o6LSorhuoxJ++buNh/+o+GBqy6tSUhqc1vCAAAQhAAALtEli58jO17dvPmfHzV63a8mqz5jlmckoynk6rSs2SL6awCxcRkJJpF3i/zkME9Is8180pgT6IgGTDZfKgxRddo4ZZXAv7MFW+J6IbntOc+a9Xbz3iJ0mugMSsCuQ0ujAbAhCAQB8JJPX+P+Sbe2xoaPIXRexPRORNZnKgqvmKs38dVc3U0nXq9PuJlYAgj/rou7YujQhoCxsnlZdAv0RAi3iyCiveUdgaZjoQtIDJdhX75NjkYeuSA+kvUN4QZeYQgAAE2iGQfG+sXLmtduCB97xPxN4uIkf4EygRmRbRmu//n/OQqXXPy3agFDcioJ244xwI5IdAv0VAuMOfXYY13yLknzuRijYlkr+tqF54/abB7flBiqUQgAAEIJAFAqtWbXkdZgs3AAAgAElEQVSDWXyJiPxycu8fnv5H4TsmSf99ugfeiABEQBbCFxsg0HUCWRAB4ZPZ/0tzBfyTORazSrJDyPMF5FqNKpeMbVx23+zKQPjs7kEV1a77gAtAAAIQgMCiCDy53v/WlzQazY+JyKvMvFdUKPkZKtTN2fv/TA+6EQGIgEVFIydDIC8EsiICWrySymytP5MnN8mjGpUHIpWLqi9YcuN11x38sP8b/QXyEmbYCQEIQKAbBEyHh8ej8fE3hj4zQ0O3HmbWPE8kfreIDqQ3/+GJ/2we2tM+/Z9rHCIAEdCNYGVMCGSOQNZEwKwYSBOHfXdQmqnVqjD6NbPKh6b3eeCvvSOx5wHddZcozcYyF1sYBIHeEehRd8XeTYgr7Y3A8PAXK62b/5e/fMvzqtX4DSJWN9PDRGx3Ser0mVJr7/98trkjAhABews/fg+BQhDIqgjYLQaSbUKhZLNvGWqaaegvoGpjJrVrNmxe+hU/mP4ChYhHJgEBCEDgWQnMrffvW3uOO27ryWbxe3whICk756WntdoqQddGkRtEACKAdyEESkEg6yJgzspA0lwgbTQWq2hNVB5Q1c8uiaPRayeX/V8/mC1CpYhbJgkBCJSQwJ71/jf9lkj0zjiW05NO9KHiT3UvSb/zoYYIQATMJ044BgK5J5AXEeCgn5Q8bDNi4o3G/Ff/rlF03c//2vKr6nVtIARyH5dMAAIQgMBuAv70/667Xqy+/WdoaOsykeafmMlbRGQw3foTi4g//fenRX7efLb9PBNhRAAigHcfBEpBIE8iYHZVwCs9hPYCEptYU0xq4YNf9e8rppdfP7F8a3Iw/QVKEcVMEgIQKCyBpOFX3W/yZdWqiXeZyYiZrUgnHJ7+q1qUVotbzM3/7HdMugc1ivTcO+44+ZrCwt3LxDoBs6fsaBbWU9xcLP8E8igC5ooB7/XiucNNM6v6ZlAVeUwj+1KlMnDBupsP+Vb+XcQMIAABCJSbwOrVW45vNhsfFol+O9SGNmv6g5/Z8p+hXHSn7llZCWAloNxvOGZfGgJ5FgF7ioHwvWCxqNeEDv0FHhSJrrKZgY/fcNsLHmJloDQxzUQhAIHcEthz9fbYY28/vFJ54lIzPbV1wy8iLgDm1vtPPvI790IEIAI6F02MBIEMEyiCCJjtORxKCfnDodBbIEkjVvluRasXRs97fPO6dUc+4b4gZyDDEYlpEIBAKQnMLfn5+tdvfO5PflL9AxG7WNUOSLr9hk2gyf90Zu//M3FGBCACSvkeZNLlI1AMEZA+5p9bD9rVgG8OSrtD+tfHrdWoctnn05KiLgRWrBCr1zXsNeUFAQhAAAK9J5Dc/A/Hfm9/8smT+z36qLw6ju0yM/klrwxtvuUzPNVpdZVPPum7aCkiABHQxfBiaAhkh0CRRECLavjC8FerPbzvH/XKEb6HVMU+EdUq115/8/K7/JiREauNjupMdlyCJRCAAATKQMB05crR6vbt54TP3+OPnxxqNOyPzez16S1+w0wrnviVPPwPt/7dvPmf89WRNKchMThncUhicM4chrn9JlBEETCX6e4nOiLSSFeQKyL6AzH5ZPMA/dxNNw3+yFcF/CS6Dvc7HLk+BCBQBgJDQ3dWp6ZWNXyuq1Z9aUUcT4+oyltFfOuPTqtKxXMAWisBPbr5RwQ8Kfh6obg6Gu+IgI7iZLDiEyi6CEgXBMLWoLAMICbTJrYkKSkq/6AafWZs0/J1fuDQkFWnpjR8MfGCAAQgAIFOEzAdHh6PvN7/mjWbD3zoIX2XiJwlYkcl+/6jGdW4ZhY+sTtZ8WchE2E7UEoLEbCQsOFYCOSPQBlEwJynO77CG75XvKSoVxKqqeguEbujUtXLrr/l0L9PDqa/QP5CGYshAIFsE5j9XB0a2vJmkfhPROTosM9HdDrZsmmR5wC0EoD7NB9EACKgT6HHZSHQWwJlEgFzxIA3lfQsM2maeH+BpKRoZPJXM1r9wE0TS+/trRu4GgQgAIHiExga2vpSkeblZnKciAx45paqF2cIN/+tdN9+P4CehwgItecK77B+O2LBgNkOtGBknFBuAmUUAf7RHepNJA+cNE7LilbSdvMuAC593szgZ6+6zVcJWBko91uE2UMAAu0RmPvkf/KFqnZxHMtbVW3/JMlXvWDD3Hr/WbnnnIcIaI9I3s7KikPmzQ0RMG9UHAiBcHebVtDZUX1o+qh1U0kd/U68hofvGhgfXzF9+tp7vmAWv8m33/jj9w43dVmsqaGSqGl4BuWr0pE/3QlmRvo11ei9P/+rS6daZURbny+LvSjnQ+AZCZTjASMBUGACc+v9n3DC7fvv2jX9FlW5xCxenvT0ChLAn8C4ANi9RzNDSBABqTMQARmKSkyBQBcIlF0EJM/502+i0IQ+LPJqukrt0kBvVG1+dP3E4f/mv0sajUmoad0FfzAkBCAAgVwSqNfrUb3uptdjr/5Tqfx0qNmMPmQmL9/9cCURALvLN2f0XhMRkFHH7PWNwUrAXhFxAATmEkAEzNJIBEDyZCp5XLW7v4A8KpF+vCrRunWbln/PjxsZ2VYbHT2a/gLtvp944t0uOc4rE4FcvE/2rPd/3HFf+vU4njnXzN6e3PxLU0TnbvtpeTCrD5oRAYiAMn3KMNcSE0AEPL3zn9xfoJIqg3+LVD+9Tyxjo5ODj3lJ0aEhiek6XOJ3EFOHQIkJJPX+h/wm3172somfqdX0bBE7T8ReYCaNUIEhqfcfVgAyth30mTyHCEAElPhdzdTLRAAR8OzebvGJxcz7BwwkW1r1SxWtXH39xLIJP53+AmV6y5Rgrrl4+lwCP2R6iqZDQ1OVpOGX6XHHbf3DZjP+QxH5laRqTmj4VWt1bc/ZPSUiIGcO2/1WYTtQpj81MC57BBABe/dJi5F/tTVCRTvRiqg8JmK3VC26bN3k4H8kw9BfYO84OQICEMg3gdnPudWrt74mjuP3xrENJTX+ZVpVvQN7Jf3gzMvT/7kuQQQgAvL9FsV6CMyTACJgfqBCPxvV5MvPJKwK1JIf5b5Y7doD4ugy3yI0v+EWdhQPZhfGi6MhAIHuEli9esvPxXH8Z2byWhE5MG341VANN/9JH5Z0/89CLcnA5x0iABGw0LDleAjkkgAiYGFucwGQagGJE2XgZUVDwbv/KxW5aMOmQ2+aHZKVgYXh5WgIQCB7BObW+7/zgCh65N1xbO9O9/27uU1V9fLKXmy5391+O4EPEYAI6EQcMQYEMk8AEdCei1rcvM+Atx2LwmMvLypkOqVRdMHY5mX/mAxtWq+LkjzcHmjOggAE+kWgHnm5T7+693154IHvvi6O7aMi9qKkmHJ42h/2R6ZV1cI/9svaDl639yIgA8sfT8cvd84kJ6CDbwOGKgMBRED7Xk5u/5Ouw75CkKQE+HdiWArXKytR5dPXb1r6Hb9EkjwcSuXRX6B95pwJAQh0mcDcev9+qVe9auvRMzPNi0Xs5GRbpH/YJbeHvvUnbfyVu/vFZ8HYexHQZZ+2O3zunIoIaNfVnFdSAoiAxTs+uakPSwHhC9G3CXkHYk8e3hGJ/HllSfTfPz++/P5ZMaCeU8ALAhCAQKYIrFz5mdr27eeE/ierV2/9hWbT/kAkfo+ZVUS06V1+n7Ttxw/N3b3iXqAjAlJAuXMsIiBTnycYk30CiIDO+mj3NqGQPGxSU/9+VPlfpvLJGzYPftGVAqsCnYXOaBCAwOIIDA9/0Sv6yPj4G5uvfvWXnj89PXOWmXnDr6NEJE5WN61SkD3/e4OFCEAE7C1G+D0ECkEAEdB5N4atQckuIYlTMTDga+gq+ldakb8c2zj4v1gV6Dx4RoQABBZOYO7T/1Wrtr7FrDkiIq/0kZKSn3vU+8/dw+GFEwnd4kN/yCjSc++44+Rr2hijEKfkztmsBBQi7phE7wggArrF2ryjQBADvom2YRZX/UtFRO4Tlb8asIHLrps4eGfymRX22JIr0C1fLHDcjOboLXAWHA6BvRGYrfqzatXW3zJrvM9MX6cqA2bmW4L8I6ua43r/ewPwTL9HBLAS0G7scF5vCLRdgrg35uXnKoiALvvK19BDgzENuQJN7y+Qrgp8J6rEn/65Xz30E1QO6rITGB4CEHhaAq973ZbnPfpo88MieqqZPC9JbpIZv/kPWU5J0X//t9w9FF6EyxEBiIBFhA+nQiA/BBABvfHV7q7DItYMK80iUfhaNf2aqFywYeLQ/zFrCv0FeuMWrgKBMhGY+7lietxxW85pNu2DqjboFMxC9TK/549KevPfCgZEACKgTB8MzLXEBBABvXO+rwgkBURDZb3wyC1K8u1UNJL/3mzWPnjjlkO+lZgU6o22anH3zkquBAEIFIzAbL1//1x55SsnhlT1ChFZmSxUhs+ZOK33X8SSnwv1JyIAEbDQmOF4COSSACKg525LC4gmyQJpf4FkqV1Fd6napTVZcp3nC/i/JZWEKCnaczdxQQjknoDp0NBUZWpqVShJfOyxW18SRc3zReS0NPG1dbMbHjqUpPLPfLyKCEAEzCdOOAYCuSeACOifC8MDuNB3Z7aSkC8MqKh+Wy26rKbVm6+bOPhhTx6+6y7R8XH1nAJeEIAABJ6VwNDQndXWzf9xx209Io6bp4nIe83kIBFrqGol2e4fmv2G/Ykl2/f/bPwQAYgAPmEgUAoCiIBsuDnZKBTKCWnDJK6FhQKRSZPo6hsml9/mP4ys3FYb3b6yQSWhbDgNKyCQNQLe7Xdq6pWRC4ChoTv3EXnszSKNPxaRlyYfMmHfv1f88d3/VNh4egciAhABWXtrYw8EukIAEdAVrG0NOvu9bNo0taaaDIjoI6J2Y1Wrn1y3ednXfeThYauwKtAWY06CQGEJzH36PzS09TUi8R+Z2evSdubTIuIVfzwPyZ/98+T/mSMBEYAIKOznBBODwFwCiIDsxcPuVQFTmRGzgfT7+nsqOjYgtStaW4QoLZo952ERBHpPYLaIwKteNfmiZlMvjOP4FDM7KH3y73sOq+z5n7dnEAGIgHkHCwdCIM8EEAHZ9F6SL2BeNkhj8ZUB3yKUbNz9uoh+dMPE4A3ZNB2rIACBXhMYHv7ivj/60b7vN7OzROTwsNFfohlVv/lP9v6z53/eXimBCJhfS8TcNYegY/C8g5wDIeAEEAEZjoOk6bB63Q7PFvZmY5VQQ0ilqaJfjiJ57/WbBrfPToH+Ahl2Z/9Mm9/3ff/s48oLJLDn+3xoaPJNIlYXsV/05wbei2ROvX/2/i+Qbvq9GDomRJGee8cdJ1+z8CGKcQYioBh+ZBYQeCYCiIB8xEaaLxBEm+/njcSFgem0qH4uipuXrd9y+A6fSvIgxEsOhSd/vCAAgYIQ8KTfer0et6YzNLT1pSLNy83kNWmnX/9VnLQiKW233054uwQrAfPDhAiYHyeOgkBeCSACcuO5uU2Hk/Y+vsjvnX5U9UdaieoD1cZNnxs//Mf+O/oL5MaxGAqBvRDYs97/a1+79YgnnojPi2P7k2TbTyjxGZJ906I/JP4uLqYQASk/RMDiAomzIZB1AoiArHtoT/uS9p7hGz+sBKio+DahKBT6VvlqtSJ//ljlwS+Nj6+Y9ipCK1aIkUCcLydj7UIJFHe/054VfyZfaBYPq0YfFLHlZhae+icfCWHLfwtE7u7dFurxLh+PCEAEdDnEGB4C2SCACMiGH9q1ouU/FwcNE6kFLaAyZlK7ZsPmpV/xgUdGttVGR4+eafcinAcBCPSWgG/9mZxcXtm+/Zzwvl21auKNInKemb08uemPZpKKPyT9dsEziABEQBfCiiEhkD0CiIDs+WShFrVWB/zpXyMkD4hWReVHJnJdLYquXrdp+ffoOrxQrBwPgf4QmPv0/1WvuvVljUbzXDN7s4hVzHSXJGI/Sj+83Uie/HfWVYgAREBnI4rRIJBRAoiAjDpmgWYl+cJJSRDvMzAjSaMxvzv4pkb62bHNg1f6ATQaWyBZDodAzwh4aZ9LVKQer179N0ubzccuEJE3i8gy3/ojEjVV41pSOdhzALj575JrEAGIgC6FFsNCIFsEEAHZ8sdirZmTPSzNdM9wLakYEv2jiFw6tnn5rYu9COdDAALdI7Bq1cS74tjeqaq/kIr7GVWteikAGn51j/uckREBiICeBBoXgUC/CSAC+u2B7lx/d66AmdcMl2raaOxxVbs10tr7rt+09Duzl6a/wILcUNw81AVh4ODFEtjzfbd69ZZVjYb9uar9Znrz74m//sS/wtafxbJe0PmIAETAggKGg0tCoIDf/YiA4sbu7i+ytPlNaCGa1A/Rh0XtiviA5idvvPGInzgC+gsUNxCYWdYIhI5eoZS//zk09KWjVKc/HMfiTb+idJdP7LW/SPzti+8QAYiAvgQeF4VArwkgAnpNvPfXm60g5Pf/fv3QWiBogu+o6Pv3XWZbR0cHH/NfkTPQewdxxfIQmJv0u3r15qVm0R80m/H7RWS/INBbb9HZoj/s/e99eCACEAG9jzquCIE+EEAE9AF6Hy452z041BcUCXuLxaKwIUH0SxLFH92w6fCp5MmkVaempEnX4T54iksWksDw8Bcr4+PfME/6fdnLNh84MFA9OY6bF4nYi/195gIgbQFCw6/+RwAiABHQ/yjEAgj0gAAioAeQM3aJsN1Y1TS0GzNtmMRecjAW1Wsiiz+zfuLwf3Ob6S+QMc9hTg4JmL74xeO1b3zjjdNu/HHHTZ4Qx/YOM1mbLMl5vf+4mpT7p+JPRhyMCEAEZCQUMQMC3SWACOgu3yyP7k2Hvd6Ibz32/gK+FzkSle9Voug60f0/vX7jcx7wVYGhIYnpOpxlV2JbFgnM3fpz/PFbX9JsxueaxWeJyL5m4hV/IjOpcPOfOe8hAhABmQtKDIJANwggArpBNVdj7v6+i82sISoD3l3AVL4aqV49tmlwzKeTbBHSRq6mhrEQ6AuB2Xr/J588ud9DD+mfqMZni8iRSdUfnVaVmvf1C209knL/NPzqi6+e9qKIAERAdqIxyRPi8yFLHimQLYiAAjlzEVOZ7S9g0jDxvQlS8ZsVMf2bqNK8ZP2mw/9pEeNzKgRKR2D16slT41j+1MxemvTysxkRrahaRL3/TIcDIgARkOkAxTgIdIoAIqBTJPM/zpNLiqb9BcJDykdMdMP++x/wwdGbnvOj/E+VGUCgkwT2rPd//PGbf63R0CvM5BWqMpB8yErsAsBXAtLSXDzZ66QLOjsWIgAR0NmIYjQIZJQAIiCjjumjWXPFgG8RchEQBSmgcr9pVH/RwLJr6+MaEh2T/gIa99FeLg2BPhF4cr3/rctE4ovM7O0itk9qVDPd+8/Wnz55qY3LIgIQAW2EDadAIH8EEAH581mvLJ7TX8BC2cIgBPwv1X+pmFzwnw8vv6OVJ0B/gV65JW/XKWCLxdBPw0t+vtFXy+T44794UBzv+8Y4to+I2FIzdcG8uyxv+vQ/efvwygMBRAAiIA9xio0QWDQBRMCiERZ3gFA8SFwA7C5fGAoKiVcS8ppCqusrKv/t+k2D253CyMpttdHtKxv0FyhuTJR9ZvV6ParXnUI99uo/qo+cEMdykUj8OwkbjUP53SABZt83CIBcRQ4iABGQq4DFWAi0SwAR0C658p1nIWE47A7SWEybpnFNRR+MRP6yWq2uv+6Wpd91LFQSKl9wZHnGnVqLWLnyM7Xt28+Z8bmuXj15TLMp55jZmbP1/q0aiu4mdXd58p/loHh22xABiID8Ri+WQ2ABBBABC4DFoYFAWBoI3QVMZ0KjsbBFSL4ukYxWnzt47bp1+gRdh4mWohCY2+33uOO2HtFsxu9QtbeZ2QtUxVe+1MwqacIvN//5dzwiABGQ/yhmBhCYBwFEwDwgcchTCMxtNBabWENMBpKWp3pnpHbl2OZDJ/0scgWInjwTaDX8ciFw3337vEtEzxaxl6Slu0O9/7BrTpI1sjzPFdt3E0AEIAJ4O0CgFAQQAaVwc9cm6VuEfEXAb3+aSddhiVT1ERW9rWJy8brJwf/o2tUZGAI9ILBq1ZbXmcUXiMjLQ2svDfX+PdYp+dkD/n24BCKgXRHQqb137Tq9Va7u1LU7viKxHaOqnr1faXc8zoNAwQkgAgru4B5Nb3clIRNpqlg1eTgq91qkn92/KZePTg4+1iNbuAwEOkJgaOi2nxWZvtxMXy8i+yR7/6Vh5g2//Kk/3X47Ajp7gyAC2hUB/fYlIqDfHuD6OSOACMiZwzJsbpo4rJ4aGSeNzjXyMimm+i216AO79ll28/h4eDBDf4EMO7Kcps02/FqzZvOBDz0U/bGInS9iByZP/6XpT//TXl/e/isUyConq8LPGhGACGgnyNkS2A41zukrAURAX/EX7uKt7UF+exSaC4T2qMmdk+uC2yPRD4xNLN+e7KE2rddFaTZWuDjIzYTm1vs/8cRbl+zaFa+J4/ijInJk2igv1PxPtwGx9z83nl2UoYgARMCiAoiTIZAXAoiAvHgqX3YGARDqJLYEwJzC6Sr2iUpt4NPrbj7kWz6tkZVWG92uofQiLwj0goDX+5+aemU0NbWq4ddbvXrLK5rN+P1mcmKa9BunW37m9sngyX8vnNP/ayACEAH9j0IsgEAPCCACegC55JfY/YUqInEScJ6npTvN9IqoGt04tnHZfb4qMDQklVYH4pIzY/pdJDC33v+xx259SRQ13yqi7zSzWpr0W/XNbOmHo1vCzX8X/ZHBoREBwSk53O9GTkAG306YlGUCiIAse6dItoWv1dBC1QsKzZjYQNpf4CsW6dU3bBrcEFYFRrbVRkfpOlwk12dlLv70/667Xqzj429srl79Ny8we+wPmk0ZEbEjxRPaw7YfrYYQTVthZMV27OgpAUQAKwE9DTguBoF+EUAE9It8Oa87d29108SaYjqQNlyaFJUrN2we/J+OpvVAp5yYmHWnCbTq/fu4q1ZNnmFmfygix6T7/kO9/1bSb/rgn6f/nXZCfsZDBCAC8hOtWAqBRRBABCwCXj5PzUQBg1YlIW8y0DDzhkuh2sr9KnpzZUn1knXjh/wwn3yxOlsEZqv+DA3d+tuqjQ+ayQlm5lt+miFh3cy3p4UUFrb+ZMt7fbIGEYAI6FPocVkI9JYAIqC3vLlaSiCUBgoFhHyHkMQiFptJNdyHqX7fIr1yurb8qlZJUcBBoF0CJ5xw+yEzM9OXmtkbReygNEe94bkpIUXF9/+w779dvEU8DxGACGgzrvvdLa1NszmttAQQAaV1fWYm7nrAxUBaitGf3IbcAc/G/JpUKu8d27jsjllrZ5/sZmYGGJIhAvVIpB67QV7y8/HHm28XkYtEbHly829xsupkUSvmEAAZcl82TEEEIAKyEYlYAYEuE0AEdBkww8+bwO6uw6GuqEnkN2umocfAF6pVvWTdzYP/4aMl+QLediA8weUFAY+K3Tf/vv8/ih4+No7lz83sN5KH/CFU4qAuPaqSxF9/sfef+HkyAUQAIoB3BQRKQQARUAo352OSrSWB0F8smOwpA6HncKSqj6no5fFMvO6G2w77gf92aMiqlBTNh2+7Z6WXlp2qzNb73/wrzWb0X0TszLRJXQirICiDngwfeXT77Z5DijAyIgARUIQ4Zg4Q2CsBRMBeEXFAHwgkN26eNRAe2Kr3F/BuraqR/XtklY9XpXrLdRMHPzw87EmdIuQO9MFLfb7k3Io/Q0O3/axZ83TV+L0idqCZehOwSBIB2drzz97/PvssJ5dHBCACchKqmAmBxRFABCyOH2d3n8DsNiGzGVMZCHu6TSY1iq4Z27z8Vjch6S9wNF2Hu++Pvl9hbrffoaE79zF79GzV2Jt9rUiMi2ZU42ry5J+k3747LH8GIAIQAfmLWiyGQBsEEAFtQOOUnhPwzGFJ67g00jTimog8KiJf1Grlv45tXPbvbhX9BXrum55ecHj4ixVv9uUXXbVqYq2Z/pGZHR+2jqnu8nKzadKvpff/7PnvqYcKcTFEACKgEIHMJCCwNwKIgL0R4vdZITArBJLM4Yb4DZ/ndarsMNV1+y+VPxsdHXws7CMiaTgrfuu4HSecMPmL09PyIRF7nZkdmCb8+paxalr3Pyk8ywsC7RFABCAC2osczoJAzgggAnLmMMxNSgclqQLiN36xqHrjJy/7+L8jjS5dv2lwA5yKR+CEE27ff2Zm14Vm8jYzWZo+/fdmcxUNGeRpVBRv6syotwQQAYiA3kYcV4NAnwggAvoEnssumsDcXIHYxG8EgxTwp8BTTZX33rhpcPvsVVgdWDTxng4wW/LTtwD9+Mf7/l6zaZeJyM971R9/+p+W/kwTf0POL0//e+qjwl4MEYAIKGxwMzEIzCWACCAe8kwgfFknrcXE/9dLCoX+AqrWUNWrmxX9ixtvGfxPn6RXEhofDzeP9BfIqNc96bde/9DuHhDHHTf5m3Esl5nFx8/W+9fY14Ho9ptRJ+bfLEQAIiD/UcwMIDAPAoiAeUDikMwTSEvCJx2h/JX+gz8Z/qGKXaIVGV+/8bAH/Hf0F8imP/cs+bn5KJHoj0Tsj1v1/ltODss9adF/mn1l05c5twoRgAjIeQhjPgTmRwARMD9OHJUbAru/v10IeBWZSpoj+hWJ9IpdteWT3lPAhcDQkMT1usa5mVpBDU1u/oeafm//O79z+yFLlux6cxzL+0Rs8MnbfpKFnwCCrT8FjYcMTAsRgAjIQBiWwYTd3dzLMNlMzhERkEm3YNQiCcwqgbAoYN4/YMBvHtX0xkjl09dPHPr3fo2Rldtqo9vpL7BI3m2ebrpy5Wh1+/ZzZryi03HHTb45ju1cEXlFMmDk/15l20+beDmtXQKIAERAu7HDeRDIFQFEQK7chbELJDBXDHgVGU8d8JWB+0T1hprYlZ/ffOjdniuwYoUYqwILpLuIw+fW+1+9essr4tjOi2P7XVWJzGxaRL3iT4WKP4uAzKntEkAEIALajR3Og0CuCCACcuUujFOG54YAACAASURBVG2TwO5t5WI6Y2IDaSrxN0WjazdMLL/S1whoNNYm3TZPe/Wrv7R8165dF4nom0TshUlit3hCd9VXBlIB4KOz9adNxpzWFgFEACKgrcDhJAjkjQAiIG8ew952CQQh4IWBVLQZqkyqVcIGIZF/jCz68PrJ5be1OzjnLYzAqlUT7xGR95jZ4UnFz7D1x8u8+kqAl3nl5n9hSDm6cwQQAYiAzkUTI0EgwwQQARl2DqZ1nEBSRNQriIaeYxpbcuPp/xhLpLdUtHLB9ZuWfmf2yvQXWJwX9uR33HGTJ5jZx8zsV31cf9of6KtFljqGJ/+LI77os8nVmyMC5Nw77lhzzaKZ5nSA3C3BtZZzT1274ysS2zGqGqpD5JQ/ZkOg2wQQAd0mzPhZJJCKgdB2OO09FfIFvOXAE6rR5QMD+33yc+MH/diNT/oLhO8SXvMm4Df/l6hIPVRfWr361hfHcbNuZsMJ8HB7EaedflV1Tt2feV+DAyHQFQKsBKRYEQFdiS8GhUBmCCACMuMKDOkDgdmuw+kSgS8PJFtR7Lti+oFd+9Qmx8cPeQQxMH/vzK33f8IJtx8+MzNzVhw3LxCR/dKSn37T7wOy73/+WDmydwQQAXkXAaet2fH3ZvY76UpAxPJi7949XClXBBABuXIXxnaHQHgK7bVEXQD4KsHcbUKTKpVPjE0uu8OvPTKyrTY4uLJJJaGneiKp+PMN86f/L3vZ5gP32aeyttGI368qLzYz79Ts+7B8z7+vuLQau+XuYWN3YpBRM0QAEVAAEfA/xezlop4A5slfux/vZCjOMAUCfSeACHhGF+zestB3J2FAzwjMLSkam1lDRL2/wOOq0bVq0bXrJ5b+m1tD1+E9fbJy5WdqSb1/kVe+cuJEVX2niL0u3Ws14xV/0nzf2XZfPXMrF4LAggggAvIqAlp7N09bu+NrFsuvqdguUa2JWeSZR94rZkGhwMEQKDYBRECx/cvs2iPQel/486MZM6l68oCIfDeSyroo2ueqdZue92DyfSP+hLv1VLu9q+X4rLn1/o89dutLKpX43Wb2+2a2r4j4zb+vxFeo+JNjJ5fPdERAXkVAqPsgamec8oNj4ljrYuKVCHzpMQ6PH9LcI1/vTT7TEQXle38z4zkEEAGEAwSenoDXEfLqNZ4iEJtJQ7y/QPKVsV0r+pdjmwbH/Ify9heoR771Z82azQc+/LBeYCanitgRzsQsmlGl2y9vrlwSQATkVwTMBtw7hu874OFd8UmxNC4Tk58Lv9HQjCRUhrbwB9uEcvkWxehOEUAEdIok4xSVQNjRkmxhDyVF/XsjUo1mJLKpajO6aN3k8n8u6uT3Nq/jjtt6ehw3zxeRX05u/sMWquhJe/9Zgd8bSH6fJQKIgLyLgLlPZt42fPfzp3dV3hOL/bGaHRgqRHtpslCZoJWflHzCZykKsQUCPSCACOgBZC5RCAKzlYTSxGH/xlDTR0V0g1aji8c2LruvGzPNRtn2Pev9r1q1ZaWZXSFiQ6EJW/J8rZls/6HbbzfigDF7RgARkHcRkNi/54fWacP3HaW7pj9qop6stCRtSNj0pzrpggBCoGfvMS6UEQKIgIw4AjNyQSC8X9Kbf+825k+RQqMBVb1PJKoPSHXDdRMHP+yzKUZ/gT3r/Z944q2HPf54830i5om/YYdtUu8/fKM6C7r95iKUMfJZCCACiiECnt7Fp6+9+7Vm0QfN5LfD0wuVhiY9YyrevTARB6wK8BFRCgKIgFK4mUl2kMCejcaSJ+Chz5j/FUn0TxWtfujAmYPvvOo23eWr0nfdJZrHZmNz6/2/+tVfev6uXbveYqaXqNrz05v/cMPf2i6VdvxlRb2DwcZQfSGACCiqCJh9MmN62pp73iVm54jILyWdy3VazWppqxhWBfry3uOiPSaACOgxcC5XGALJSsDc/gLiCcRW8RtjVR1T1U+u37T8n3zG3l9gdHSl75fPQSWhejQ09MpoampVY+XKbbXnPGfnGjN5n5n8RrLtR5uqoeJPkmHHg7PCBDUTSSR9urqnUaTn3nHHydeUlUshFb0/mXGHerOXt625+6hpq7xDxM40seebaiOdtNc03p0wUNYAYN6FJ4AIKLyLmWCPCLTeS96bxtVBVUV/IqKfjKvyuRtvGfxPtyPr/QXm1vsfGpp4eRTJOc2mnBZ6qJlMq5fcZs9/j0KKy/SJACKgqCsBcwNqZOW22uj2o0Nzk7Nef89QM47fbmanpksA06G/AB92fXoPctkeEUAE9Ag0lyk8gWRlICwOhKf9M2I2EHaainxdREaPemjwmvqUNhIhIM0srQrU6/WoXg+Px+Ljjtt6RBzH54nYGSJysFf8Sbf9VNMqSayUFz6cSz1BREAZRIDP0bcH+d++X3NkxGpP3HvPSbGZlzv77VZ/gTTZyWvE+aonH36l/mwo3OQRAYVzKRPqM4HwyDzdVhq6DqvqgNukondGon9x/cTyrclqtEW+It1ne6XV8Mv/vu++fd4lIm8XkRenFX/C0/+QEJ1s/SnkDoF++4DrZ4oAIqAsIqAVdnOXaM96/U+eG8ePnWYml1grAcrbCoQqaOHDvfUpyIdhpt63GNMGAURAG9A4pXcEslEes6357i4pamZN75qbPkh6WFVurTRrH1y35ZBvtTVyF05atWrytWZ2sZn8Vshy1rBS4Vei228XeDNkpgkgAsomApL5mtbroq0nMyNvuH/5o42Zi9VsRMSiUPxBk/4ClELL9BsY4+ZPABEwf1YcCYGFEth9MxHqB5l55/qKLymr6Y9N9VPPWVL92KfHD3mk9R3U/S1Ce5bOfvWrv3TUrl0zHxORk8ysliT5WtPMG37tPpYHXgv1PMfnmQAioJwioBWze35Inn3Sjl+ficSboqxKtnyGLUFeFzlKc4dDnVHKiub5PV9a2xEBpXU9E+8hgdYWoWQ9OWmu5bkDXlvouyqVC55Ysmzz+LhOd9em2e82L/k5PT3zbjP7L2a2f7Ln3+JQLDvsZUoq//C91l2PMHomCSACyi0Cnj4oT1u742xpynskkpeEZyVmM6pasdBC3qVBkhKWyZDGKAg8PQFEAJEBgV4RcCmQNqVJvkPCn2FxWUX+OjKrr99y2Fe7Y04iAF72ss0HLlmiJ8WxXGZmR6bXCpakyb+h/RkPtrrjBUbNBQFEACJgz0Bt9Rc478QHnvPTgV3vi8VOtViOSPdOzohoNVkVIHE4F29xjGwRQAQQCxDoLYG0uv7uPvW+vpxsE/Jbb5VPPLHkp+8bH1/RwVWBRAAcf/yWX2o04o+J2EmJANHQ6dcsTgVA8iXG0//eBgRXyxwBRAAi4KlBOTd5+Iw1d/9KbJXzRO1UM9tXJJpR9bwBq2iyIsAHaebe1xj0NARKJQJynGRK8BaRQFpTNO1I0/RbdTGr1CqVI9dtWv69Tk25Vft/aGjiUhG7yCwk/fqWpKi176dT12IcCOSBwF6+CxABiIBnCmPTkZXbq63+Aqev3flqs/iPReTEZAE1mhE1bzS2e1NlHt4Q2FhaAqUSAaX1MhPPOoHw9aFJXWprqPzsFzYfenenjB4aurPq3X9f+crJ80XsMg3fUUnnYkp+dooy4xSIACIAEfDs4ezbg1asEPNKQiPDPz7o8ZnHTrFYLzSxF4lJM1liTXMFPM8qWV8lX6BAnxIFmQoioCCOZBq5J9B6L/omnSPGtgx+v1MzmiMC3q9qngvAQ6pOwWWcIhJABCAC5hfXc7cInb12x+EzJm8VkQvMbJ+gA9JEgaABwtJvGBcxMD+8HNV9AoiA7jPmChCYD4GeiYC0MtHsN9J8rOMYCJSHACIAEbCQaA87OVvl1OT0U3b+kjTsQ7HIm7xqULJNSGP/gycwC+HKsT0ggAjoAWQuAYF5EOitCKD85zxcwiElJYAIQAS0E/p79hc4a83O1zRULhezl/ojF18JSJOwonSFgBrM7WDmnE4SQAR0kiZjQaB9AoiA9tlxJgQ6SQARgAjoXDyddvI9fypR/EcSyxFBDIik/QValRmCFmCLUOeQM9L8CSAC5s+KIyHQTQKIgG7SZWwIzJ8AIgARMP9omc+RI2+4f/mjjZmLVez3ROSFyad91BCx6pyqED4UYmA+QDmmUwQQAZ0iyTgQWBwBRMDi+HE2BDpFABGACOhULInMTR4+be3OV4jJu8Ti30v3AnlDmIqpVtLycIiAzqFnpL0TQATsnRFHQKAXBBABvaDMNSCwdwKIAETA3qNkYUeYDg9/o+ZdIOtDVv32gTuHReUdJvLy8PjfNOkv4GkDSbMxxMDCAHN0ewQQAe1x4ywIdJoAIqDTRBkPAu0RQAQgAtqLnL2dNXdV4PfX3Lu0FjXeGMehpOigqMTqnWLSpjE228UFQbA3sPy+XQKIgHbJcR4EOksAEdBZnozWKwLFa8WOCEAEdPPdYzo0JJWpKW34Vd5y0t0vijR6t4ivDIRWAp4wEFqMhXbyobFj8kc3rWLsUhJABJTS7Uw6gwQQARl0CiaVkgAiABHQ/cCv1y2q171cUNK+/fS1P/wts/ijJvbKIACSlYA4tBmgw2P3HVLOKyACyul3Zp09AoiA7PkEi8pJABGACOhl5M/2F3Bh8N1/uefNsclHzOznvLlA2mjM1weikDGQmMaqQC9dVNxrIQKK61tmli8CiIB8+Qtri0sAEYAI6G90v2P4vgN+umv6QhU920SWJW2HtaFeSYhVgf46p1hXRwQUy5/MJr8EEAH59R2WF4sAIgARkI2IPv2UH/6yNZsXisjJYnaAiTRDkoBZNd0uRK5ANlyVVysQAXn1HHYXjQAioGgeZT55JYAIQAT0P3b36C9w8s7Xq5qXFH2VWUgX3iUiNTOJ1BMIkt1BbBHqv9vyZgEiIG8ew96iEkAEFNWzzCtvBBABiIBsxKznCExNSeSVhIaH79533+no7FjsXInll008dzjtOswWoWw4LH9WIALy5zMsLiYBREAx/cqs8kcAEYAIyFbUjoxsq42OHj3jVr3tDTuPmGnY2bHIe81sP0m2CEWtXIFkocCrDrEykC0vZtIaREAm3YJRJSSACCih05lyJgkgAhABWQzMPfsLnHbSvb+q2jzf1N4StgiFzgKeP+w1hbzrWJAFrgTYJpRFd2bDJkRANvyAFRBABBADEMgGAUQAIiAbkfh0VgwPW2V8XJv+u+FhG9hn+p5VFtvHTO1XvONAugTg6wF+SKoFyBnIrkf7ahkioK/4uTgEdhNABBAMEMgGAUQAIiAbkfjsVsz2Fzhr6P/u0zxoyYiZXWgmS8Ozf7NmaDgs4luFwtoAqwJ58GtPbUQE9BQ3F4PAMxJABBAcEMgGAUQAIiAbkbhQK8567X3LGtXGpSLyeyJ2kPcXMNGGKv0FFsqyJMcjAkriaKaZeQKIgMy7CANLQgARgAjIY6jPrgycfsrOl0ssF5nZ8WZWVZFGmi5cMTULmQLkCuTRyZ22GRHQaaKMB4H2CCAC2uPGWRDoNAFEACKg0zHVu/Hm9hc4dc09Z0Zm74jVfjPpOizTKlqj63Dv/JHxKyECMu4gzJsngbAFcp7HZvMwREA2/YJV5SOACEAE5Dvqvb/AXXeJegLx76+5d2lVmm81sT8Uk58xsUaoIWpS9ebDnjvMqkC+/b0I6xEBi4DHqRDoIAFEQAdhMhQEFkEAEYAIWET4ZOjUuf0Fzlhz969IVHlrHMfnJZ2GZUZEq540wBahDDmtt6YgAnrLm6tB4JkIIAKeRCb/izsEe04JIAIQATkN3acxe+6qgP/6zDU7j22KvN/MXpMuAngyQVhLTxoP02isON7f60wQAXtFxAEQ6AkBREBPMHMRCOyVACIAEbDXIMndAXP7C9SHbeA7jZ1vsFj+XGI5wmsI+bagpLWAVxcNaoBtQrnz8oINRgQsGBknQKArBBABXcHKoBBYMAFEACJgwUGToxNmqwi9Y/i+Ax5+onGBqb3LxA5ME+uaqhqJhE1CLWFA1+EceXgBpiICFgArD4eyhSIPXnpaGxEBuXUdhheMQPsioGAfwNz4FSyyn2k6Z5zyg1+IY/2omJwoIktCc7Hd/QW8uGhSWogE4sIFBCKgcC5lQjklgAjIqeMwu3AE2hcBBUOBCCiYQ59+OrMrA2eu+eGapjTfK2IvD8eazIhqZCYVob9AEaMBEVBErzKnPBJABOTRa9hcRAKIgNSriIAihvfTr0Tr0JBUpqa0cd6JtuTBJTv+KI71bDFZ4UpAVabFtOZdxkJxUf+LVxEIIAKK4EXmUAQCiIAieJE5PCuBnOyWQQQgAsr5TvZGY0NDEtfrGp/5+u//fCOujajFf2BizxPVhiZ7girpt5VD6qIYIC+5B1GICOgBZC4BgXkQQATMAxKHQKAHBBABiIAehFmGLzGyclttdPvRM27iGSf94Jg40vPE7PfThpzebKxivkBArkCGvTgv0xAB88LEQRDoOgFEQNcRcwEIzIsAIgARMK9AKfRB3l/AJ+irAsPDNrDvE/eeEEuzLiork28rLyXq+4PCE/vWKl8XVwYKjbtfk0ME9Is814XAngQQAUQEBLJBoFwi4Fn2aHFDl42A7KsVc/sLnPX6nzy3aU+cGsdxXVVemDYYS8uImnpV0XSDELHTV6/N++KIgHmj4kAIdJUAIqCreBkcAvMmUC4R8CxYuJGbd8wU/cC0qXDSYlhOe8P9y6Ux80EzO0vV9k0KiGrTVKKkiBCNxnISEYiAnDgKMwtPABFQeBczwZwQQASkjkIE5CRi+2XmW0665zcr1fhyi/UVJnFNvfWwauwlRVMdQHZvv5wzv+siAubHiaMg0G0CiIBuE2Z8CMyPACIAETC/SOGohMDpr9/xNjN7t5n+slcQVZUZEa2ISNSbSkJ4ok0CiIA2wXEaBDpMABHQYaAMB4E2CSACEAFthk7pTjOt10U9eXhk+McHPTb92PlqenpscrjnC4jIjKpWkzxi8gUyGB6IgAw6BZNKSQARUEq3M+kMEkAEIAIyGJYZNsn7C3ijMTfxtFPu/VVtNt5pImeKyICZTYeSomKVIAS62lsgw5CyaRoiIJt+waryEUAElM/nzDibBBABiIBsRma2rTIdHv5GbXx8xbTbefrana+2WN5lGr/WFwVUg0jwRmPqDQYQA5nwJiIgE27ACAgIIoAggEA2CCACEAHZiMQ8WpGUFJVYRC1sEWo8cZI0rW5mR4mIKwD/tnNR4NNr/ZD8P69eE0AE9Jo414PA0xNABBAZEMgGAUQAIiAbkZhnK/boL/Da+5Y1qjPniMj7zGzfIABcCYRbf+87nLQfRgj03OOIgJ4j54IQeFoCiAACAwLZIIAIQARkIxLzb4X3F0h6C/jrjFPu/4W4Of3nJrLWKwcFDWASe5MBtgn1xduIgL5g56IQeAoBRABBAYFsEEAEIAKyEYnFsWJPMXDamp2vkUguk9h+PSwIqMRBB4hU0mWBoA+KM//MzgQRkFnXYFjJCCACSuZwpptZAogAREBmg7MAhiWCwMT0zDU73hOL/qGYvCj0GROZMdVqKCYaNEGaN1CAWWd0CoiAjDoGs0pHABFQOpcz4YwSQAQgAjIamoUxa7a/wOkn7fwZUfkTU3uziRyiZk1fGTDTmqcJmCcTe/sxXt0ggAjoBlXGhMDCCSACFs6MMyDQDQKIAERAN+KKMZ9MYG5/gTPW3LMqFjvXzIZ9AUDFdploTcUiMRqNdSl6EAFdAsuwEFggAUTAAoFxOAS6RAARgAjoUmgx7FMI1OsW7ZzcXhndfvSMVxRa8sTON4rKu8zst5PH/9oQtUooIORtiNPaoqDsCAFEQEcwMggEFk0AEbBohAwAgY4QQAQgAjoSSAyyAAJzVwXOHr7n4Jld9hYT+6CIvUBMY9XQU8BLiia9x1o/LOAaHPoUAogAgiJDBEpdJRgRkKFIxJRSE0AEIAJK/Qbo4+RNh4akMjUVugvL6cM/PNKmm38qsbwjZAeEhQH1zGKXAKHDAMnDi3IXImBR+DgZAh0jgAjoGEoGgsCiCCACEAGLCiBOXiQB3yJUr2vcGubM1+9c2WjKx1XiIf+38LxQQ1di1wNeVTR0Iqas6ILBIwIWjIwTINAVAoiAxWANT4YWM0Bnz82YOZ2dXPFHQwQgAoof5fmY4Z79Bc5cs/PUptgHTeT/Sz7wranJ3X9E1+G2PIoIaAsbJ0Gg4wQQAR1HyoAQaIsAIgAR0FbgcFJXCSSCYHj4vgOWTDc/IBafJiKHhmZjIjOqWqXr8IIdgAhYMDJOgEBXCCACuoKVQSGwYAKIAETAgoOGE3pAINkmFPKC7dS1P3yJWny+iJ1iZvt7FSFPHm51HbaQSUzX4b24BRHQg7jlEhCYBwFEwDwgcQgEekAAEYAI6EGYcYm2CYyMbKuNjh494wOctmbHGhE5V8Rek6YJT4tqjVyBeeFFBMwLEwdBoOsEEAFdR8wFIDAvAogARMC8AoWD+kjAVwXuukt0fFybb11z/4HT0czvW9PeLSq/JGaeVBynW4RCGSGShp/WWYiAPsYwl4bAHAKIAMIBAtkggAhABGQjErFi7wTmrgq85Q33/lzUaJwuIueLyH5mIXHYk4bDTqGk8TBVhJ7mxmNH9aHpo9ZNHfnE3onP74jh4bsGxsdXTJ++9p4vmMVvMjMXZaGa0/xG4CgIlIoAIqBU7mayGSaACEAEZDg8Me0pBOauCvgvTzvl3l/VOH5/bPGbvJVAaCwgYt5hYPcfqRooOU5WAkoeAEw/MwQQAZlxBYaUnAAiABFQ8rdATqf/5P4Cp63Z+RoR+5iJvGROX7E4bTQWFEFraSCnU16s2YiAxRLkfAh0hgAioDMcn3kUivd3m3BRxkcEIAKKEstlncdsfwEXBt/62g/foxL/qZktcyKq0pSkfFBkYlbiLUKIgLK+RfaYNykzGQgDREAGnIAJEPBdA2nfIY0iPfeOO06+pqxU2LtbVs8XcN5vX3Pv0sescWmk8ntm8txQTNSiGVWrhp1C4puFwqtMcY8IKGCsM6VcEkAEZMZtLBlkxhX9MQQRwEpAfyKPq3aHwNxtQme+4d6XNRuN88XkdaJWMZEZEY3UrGIahAAioANuIDG4AxAZokwEEAFl8jZzzTIBRAAiIMvxiW3tETAdWbm9Oro96S9wxpp7zowlHhGT35HQf0ynRaRWsq7DrAS0F0ycBYFOE0AEdJoo45WTwOIXchABiIByvnfKMOvhYausWCFWr2v8+2vuXVqxxumi8m4zO1REvKSobwmseD3R8L/FXhlABJQh6JljHgggAvLgJWwsAwFEACKgDHFe7jmOjFhtdFTDqsCpa+9+SWTROSbyTk8IEtGmetKwhT5jvkzQglW0rUKIgHK/DZh9dgggArLjCywpNwFEACKg3O+AsszecwV8rr4q4H+ffsrOl0scf9hMVoVbfw37hHxlQBJBULjOw4iAsgQ788w6AURA1j2EfWUhgAhABJQl1plnIgIsagmB8060JQ/Wdp4Si1wuJj8b8gW8clAQBN52OKgBP60IqwKIAN4CEMgGAURANvyAFRBABCACeBeUk8Bsf4G3rrn/wIbOXBCbnStizwu7hJKcgSdvE8qzGMiRCKCWfTnfk6WZNSKgNK5mohkngAhABGQ8RDGvZwTO+t2dv9hsxJea6WtEZP/km1qaZlpNdwfl+e40RyKgZy7nQhDoBwFEQD+oc00IPJUAIgARwPsCAntuEzp17c5TVOzdYnJski9g0yLqjcaiHFcSQgQQ6BDIBgFEQDb8gBUQyKYIWHzp0wV7Ns/bHBY8WU6AwNMTMB0aksrUlDbqw3cNfGf6oHea6dvN5MVpvsC0atpfwNsQ56usKCKAsIdANgggArLhB6yAQDZFQB/8ggjoA3QumU0CQ0NWdSHg1p1+8g+PjLXxByrRO0Tig8ykkZQOsopaEAJ5ee8gArIZblhVPgKIgPL5nBlnkwAigO1A2YxMrOo3AdORke3V0dGk6/BZb7jnNxqN5rtM9LS0eFAz3R7k5UUlB5WEEAH9DimuD4GEACKASCgIgT7sW+ksOUQAIqCzEcVoxSLgXYfHxyX2iqHnnfitJQ/ut/+QTTcvM9GVYaZpawEvJWpimq4OtH6TJRiIgCx5A1vKTAARUGbvM/csEUAEIAKyFI/YklUCiRjQptt36okPPKc6sOuspsUXm+kLwuYgVwCi4Y+k8XDmmo0hArIaXNhVNgKIgLJ5nPlmlQAiABGQ1djEruwRmO0t4La9dc33B2ek9hGT+M1mtl/oK2baFJUoVBfNlhBABGQvoLConAQQAeX0O7POHgFEACIge1GJRfkicMZJ9x4TR41LRbykqFVFJHYBYGYVDVWEQnuBficQIwLyFVZYW1wCiIDi+paZ5YsAIgARkK+IxdpsEajXLarXNXarTlu742wx+SMR+fU0UXhaRKomEgVJoKGUUL/EACIgW6GDNeUlgAgor++ZebYIIAIQAdmKSKzJIwHT4WGJPGfgbcN3P3/Xrup5YvHZJnZEWBUQaYpqLRUG/eo6jAjIY2hhcxEJIAKK6FXmlEcCiABEQB7jFpuzSGBuf4Ez1uz4tVjl7WLydhMZEPt/7L0LnGVVdee/1rm3qnlqfPDoRkSNJo6dZJI0TjKTRJpMjBHoF1oQpbtpJVPEV4xGEfBV+AQlDxUBW1SgQY014e1gkG5KTEyc0MZJAv4TdeIIXdVAVJBn1733rP9n7XNu1W2eVbfuY59zvvfjB7vhnL3X/q59zz2/vfday2ZVtS4miamFIOI8t9CghoIIGBRp+oHAExNABDBDIBAHAURA0UVA4bPUxvFFqJgV/Zs1fjxo+tqdta07s/oCG9fueqmIvlXEfi/fCfAMQyFw2DMI5TUHBnFECBFQsVnOcKMlgAiI1jUYVjECiICii4CKTViGWxACnSlFN/3u7v1t/3S9tewDavIcEz8R5EUFvGpQrgXy/KNMvwAAIABJREFU6OE+Dg8R0Ee4NA2BRRBABCwCFpdCoI8EEAGIgD5OL5quPIFOMXDK2L1P37PnwTeJpO8Qs31NXAB4ITJXAH0vNIYIqPxsBEAkBBABkTgCMypPABGACKj8lwAAT0CgNweH9q4vcMrau56/R5sftdTWiljiCYOy4GFJfGsglwP5v+6ZeyIWAcOKle4ZWxqCwGIIIAIWQ4trIdA/AogARED/Zhct95pAb17Je21Vt+1tXHvHsSLyXhF9cTgiZNLSrJxArQ+ZhDpEwJ7nXzz1vIe7tfuR942N3To6OblydtO6mS+apSeamddJ8IEMItahV8OgHQgMigAiYFCk6QcCT0wAEYAI4DsCgcETaNcXmJiw+ve/Pf3WViqnJCY/52JAVb2+wIhlFcZ6tUwe8U7A4PnTIwSGSAARMET4dA2BDgKIAEQAXwgIDIeACwHv2YuNbVqz+7mStN5iJq82s2eIaCuPG66rmIcMLPV4ECJgOG6mVwg8kgAigDkBgTgIIAIKKwLKdTIkjq8DVgyFwPj4LSNbt2YpRTdtmDlKmunrTOzEPJJg1guNheDhUHS46/oCiICheJdOIfAoAogAJgUE4iCACCisCIhjAmEFBHpCwHcFpqYkmZrS5vi4jTy0e2aNpXaaJfJr4gECXnlYdSmxAoiAnniKRiCwZAKIgCUjpAEI9IQAIgAR0JOJRCMQ6AmBzqrDr3n5zEHNmpxgSfpeETmoYycg6ysvMrDAAFxEQE88RCMQWDIBRMCSEdIABHpCABGACOjJRKIRCPSQgOnEhKjHCnijpxw/fcSelp0mqZxqajUPFVaR1COIF3FMCBHQQw/RFASWQAARsAR43AqBHhJABCACejidaAoCPSWwd32BLWtmXtzS1kdN9CVBB4RTQiGtaOLhAqKahQ8/9gcR0FPf0BgEuiaACOgaHTdCoKcEEAGIgJ5OKBqDQN8JnLRh92u11TpdRF7gnZlZMwgBkcSjh0Ni0UeLAURA3z1DBxBYEAFEwIIwcREE+k4AEYAIePQkI/FQ3794dNA1gWx34LVr7z6wqc13ppZuMrEV4YiQJg0Rq2dVhz2p6F5iABHQNXNuhEBPCSACeoqTxiDQNQFEACKg68nDjRAYCoGxMatNTmrLO9+89s5fSqX1VhE7wcz2FZGG7wqISc0PDHXsCCAChuItOoXAowggApgUEIiDACIAERDHTMQKCCyOgOnY2G0jk5MrvbqwbFy7e61I+odi9vK9qg6H0gIaggeyMgO6q/7T2edfPPXchxfX3+NfPTZ266jbsWndzBfN0hPNzNOZhqDlXvVBOxAoEQFEQImcyVAKTQARgAgo9ATG+IoT8F0BR+A7A+NjP37qQw/PvtK09XYz+/m8toCISZKFEZuqIAIqPmUY/vAJIAKG7wMsgEC+NuZhdKpJoq/bsWPNhVXFwopdVT3PuEtBoLO+wKbjpp9tdXutpHK6mS0TlVTNUweFf+yq38dOQCmcziCKSgARUFTPYXfZCLATwE5A2eY046kugb3rC5z8ipmVrYa9V8zGzE8EheBhveNpjQef/4nrX7CnV5w4DtQrkrRTEQKIgIo4mmFGTwARgAiIfpJiIAQWSWDv+gInr5/+3VZq54jZL4vo3fX7Zp9NTMAikXI5BHpHABHQO5a0BIGlEEAEIAKWMn+4FwK9JNC/5LQTE5Z8b+fut6qmr3x4WXr05OThD/XKcnYCekWSdipCABFQEUczzOgJLFAE9O+3ORZCxATE4gnsgEAfCZwydvvTD1/5rHsmJjTtVTeIgF6RpJ2KEEAEVMTRDDN6AgsUAdGPY8kGIgKWjJAGIBA3Ad8N6OXLf3u0iIC4/Y510RFABETnEgwqHIHeLM4jAnLHIwIK9w3AYAh0Q2DveIFuWnjkPYiAXlCkjQoRQARUyNkMNWoCiABEQNQTFOMgED0BRED0LsLAuAggAuLyB9ZUlwAiABFQ3dnPyCHQCwKIgF5QpI3HItCbHf/o2CIC+uaSks6YvvGqfMOIAERA5b8EAIDAkgggApaEj5urRwARUD2fM+I4CSACEAFxzkysgkBRCCACiuIp7IyEACIgEkdgRuUJIAIQAZX/EgAAAksigAhYEj5urh4BRED1fM6I4ySACEAExDkzsQoCRSGACCiKp7AzEgKIgEgcgRmVJ4AIQAQM8EtAzNIAYdPVoAggAgZFmn5KQgARUBJHMozCE0AEIAIKP4kZAASGSgARMFT8dF48AoiA4vkMi8tJABGACCjnzGZUEBgUAUTAoEjTT0kIIAJK4kiGUXgCiABEQOEnMQOAwFAJPIYIaKlqIjJXnZiK5EP1EJ1HRgAREJlDMKdSBMxMRDX7ffK/qP9gJfq6HTvWXFgpEh2DfYwfaQ6wV3UyMG4ILIZAWwRsXDs9KWKvzB6q4o/Z8I/wmFUVf+Iupl2uhUBJCSACSupYhhU9gfZ3LwgB8V+o+d+l13/ta+suiH4EfTKQH+c+gaVZCJSfQLaisum46WdLzT5sJieaSc0fsCrSEtUkW2wJ6y+dD93yo2GEEHg0AUQAswICAyRgJr4OJWE5KluW8r8n2e+RPSCinzjwQH3/tdeueXCAZkXVFSIgKndgDASKS2Dzujt/J7Xm+0Xkv5hIImZpvjNQ69gl4JlTXBdj+dIIIAKWxo+7IbBQAvlxn7AR7cv+LRGrm6nvVu9Rla/U6/r2r351zXcX2mBZr+MHuayeZVwQGBKBjWun3yxqr5NUfj7bdLWGitbELLHsQCa7AkPyDd0OlQAiYKj46bwiBObO+5uFl/9UREayHYHkG6r24amptddlLObi1yqC5tHDRARU1vUMHAK9JmA6MSE6MaHpH6y985CHrfUOUXuVmB1q/rTVpCmW1kO8gIbVGZ4/vXYB7cVMABEQs3ewrQwEOs7+W0NVRvOfme8kiXw2TQ88b2rq6IdXr76pPjV1dLMMA17qGPgRXipB7ocABPYiMD5+y8jWrUc2/F9uWnf7r5npG0V0Y56aYVZF6maWIASYOBUjgAiomMMZ7sAIdGb+aYWtANG6qtwjklyUprb15pv96I/p2NhkMjl5QmtglkXeESIgcgdhHgSKScB0fNXO+tadRzbGxqy2b3P6uLQlbxWzl4QtANWmidU0Sx/ErkAxnYzViyOACFgcL66GwJMRmDv642d7zLQpko6on/0Rucws2fq1rx33df/LqlWfGtm589SwOMVnngAigNkAAQj0jcDq1VafmvIHs8imDbsP1rS5oWX6HjFboaKpZBJgTgjkb0l+Oc+mvnmFhodEABEwJPB0WzoCIdeEv/f7C3+28i9Jdu5fv1Wr6Qee//zl12U70hPJ2NiLlNX/x54D/NCW7rvBgIpLoKw1OnwLVpLJSQ1bsFvWzzynldobU0nfLCb1LFubS4GspkBexIXdgeJOZCx/bAKIAGYGBJZGwMPL/EXffy4kz/nvMWbe6j2q8t7R0dHL/vqvf+/H/i84+//ksBEBT86IKyAAgZ4Q2DsTw8bjd/2qNvUcE/udoAGyc0KeyUGz9M5VDB5G+/RkqsXZCCIgTr9gVfwE2i//7YX/uZV/EW0miV4sIhM7dqzZlQ1lLgldSFDH5/EJIAKYHRCAwIAJ7C0GNq/bfaJJOmFmL8ziuSQNewJiiVmIGvAPz6oBe4nuek4AEdBzpDRYdgJZwS/TbPXfWmah2JeLAd9Z/nqS6Dt27Fjzv+c5kPZzMXOCH9bF0OJaCECgLwTGxmx02Z6Zd4nYa8TkWb4zIJI0VK0edgayko+Igb7Qp9EBEUAEDAg03ZSCwNz3xUzSTABoyPcvov+cJPKJHTvWfLoUIx3iIBABQ4RP1xCAgBOYX7nZvOHun7NW4zQTGxOxp5hJCCpWVU8r6v/PeRkmTVEJIAKK6jnsHjSBjnz/WcafzAD9oWf9GRnZ9yM33vjSe8fGvlSbnBxL86rAg7axFP0hAkrhRgYBgeIT2Lu+wMwxaumpqcjaIBPMZl0IZEeEfHuYXYHie7xyI0AEVM7lDHiRBB6Z7z9VlRER3aNql5rVz5+aOvbb3iZBv4sk+ziXIwJ6w5FWIACBHhDwmgJ33y3qaUXfMnb7vv/RqJ9oafpmE/tlPyHk9QVEpJbvCoSloR50SxMQGAQBRMAgKNNHUQm0N3v98GdLxOr5Ys/19XrysRtvPO6vfWAvetGXRm+7bazB6n9v3MwPaG840goEINBDAuOrbGTrTg2FXTYef/dyaTReI2pniNgB2fnQ9rmgkC4uZIxAEPTQATTVAwKPmpKIgB5QpYnSEGgX+moPKGSDyAOBPfj3e7Vacpbqsmv96E/Vqv0OKmE4IqA03ycGAoGyEdi7vsCmDf/xn6w1+04xOymkFA3lBbLsQWGTIFtHYnegbNOgPONBBJTHl4xkaQQ6g35D+s+ORZwHazX5aJqOXDQ1dcwd/h84+rM02E90NyKgf2xpGQIQ6AGBiQlLJiZC/QDxP//fb+0+KpX0XDP51VBKIGQVldTPCvm2gKlHGiMGeoCeJnpLABHQW560VkwC/tBu14X0PydBAYTNXb0qTfWdN9983HeyoZHvv98uRgT0mzDtQwACPSIwn0VoYrXVv/+0mT+w1E43kyOy3wtrZQeDLPF9AY4H9Qg7zfSKACKgVyRpp4gE5gp+iS/aZKv/SXbuX/+Pqpx5001r/tf8wMj3PwgnIwIGQZk+IACBvhD4ww27D74/bb1XTMbE7CA/JKSqDfOgsry6DGKgL+hpdPEEEAGLZ8YdxSfQPvufH3O3plnI+OOnN3+gquffdNOajxZ/mMUcASKgmH7DaghUnkDnMaHNG+74r2lL3y6ix5mlIyrSENVExGqkFK38VIkFACIgFk9gx6AIdJz9N0/0UBPRRFV+ZJb8Za1mH9qxY80ujv0Myh2P7gcRMDz29AwBCPSAwOrVVveUot7UxrXTJ4nYqSbyW2LhRNCs55nO64xl0QOkFe0BdZroggAioAto3FJIAo88+tNQ1WXh4as6qWoX7tixdof/naDf4foXETBc/vQOAQj0gIDXF1i5UswDiE8Zu/fps40HNpulfywmR5hJK8sgpDV1YUC8QA+I00QXBBABXUDjlqIRmF/8F5GQ7z+sx0jyjVotOS9N95ucmjq6uWrVp0bWrJlpTUxMhKQPfIZDABEwHO70CgEI9IFAZ9XhLa+YfmGzaa81k7eqSU3UWr4V7fFoYY9gPnaY52AffEGTjyKACGBSlJVAZ6GvLD1D9ubvuRruNJMPLlvW/Msbbjj+roWu/g8qT35ZHbLQcfHjt1BSXAcBCBSCgMcK3Hqr6OSkV50U2bR2+kgTmTBJj80SUvgvU55Y1MtOen1K6gsUwrcFNxIRUHAHYv6jha0vqbQLNuYbrfmGa7j2kyKj505NvfwH8y//q30xJn8SQ3TYBBABw/YA/UOgNATiSunWGTjscQOHP21mrbXsHBF5frZIFf7pAiBpL2MRL1CayRjjQBABMXqlJzZVbt16r4w/+bK/B/y6IHCiN9fr8rbt29f+QxvvxMREwtGfnky2njaCCOgpThqDQPUIjI3dvu/k5OEP+cizF++wyh7RSs+8OHnLmO17956ZM8zsDar2dI8Rtqy+gBes0bCmNZDgYcoYVO+bEo5IhFIWmuoR265b8cNeMWgHVx511LVnqNoH28WYELW9Ikw78wTCNPbdVF/x93z//jDzrD9+xPL7SaJn7dix5rL534C4Fofw5N4EEAHMCAhAoCsC7aw8m9ZOnysmd6TNZZ+9/Ppn/DTb9p3P2NNV432+adOa3c+VpPVhMznOzPbP3/ubHjvgNYf9940XqD47oXrNIwKq5/Oyjbg9h10INEXSkSwAQKZVZdtTnmIfvOaadfeVbdBlHg8ioMzeZWwQ6COBsbFbRycnV85uXDc9KWavFE22q8if/eyvHPoVz9LjQmD1akn9z300Y9FNdx4T2rJ2+vcaqf2JqvxOONuq0lDTxNRqCIFFo+WGJyaACGCGFJVA5/GfZh5G5av/D6jq1bVacvaNNx77z+T7L557EQHF8xkWQyAKAm0RsGndzBfN0hPDuXpfUlf5jGr66W1XH/5NN3R83Ea2blUvFBPRx3R81c761p1HNnwcy/Y8/RSRdFxMftk0jGNWxOsLhOMb7ApE5LkCm4IIKLDzKmr6I8/++3N81B/ySSI3mOkFU1NrrnI25Pvv4QwZYIgJIqCHfqMpCFSJwGOIAH9xromKr6LfpSaftZHRj192xUEzvvrubGLbFciOLXkua7Ut62eek6ayJbX0jSb2DBFpZkHDkmiW78KHwDOzSpO8t2NFBPSWJ631l0BntV8vxpjksVPfSVP5WKPx8KV/93cnPDQ29qXaypW3GUG//XVGv1rnB61fZGkXAiUn8BgiIA2pNk2aIjYa1tMT+xeV2oXbrl7+yUwEeOBwXMeDfAu7vSvgNnpKUUnsdZbKa7OsQdIyL3Xvh4VMLd8pQBCUfH73YXiIgD5ApcmeEgjp/bMsP9kuqJn5c71mJg+q6kdE6pe0U36uWnXLyM6dR0a2y9tTHqVvDBFQehczQAj0h8DjiADPsOOBtS3zGr2hSJcHkMk31Wrv2XbtoaFUfIyfzsxG/ufvfWv6v0sq7zeVX/OyAmE02VGhuR9IdgZi9GS0NiEConVN5Q3LX/6zTD5ZCmXf9fRFEM/6k3whSWpnb9/+8n/y/5Ad/SHffxlmDSKgDF5kDBAYAoHHFwFujKmGVXNJxTzINlToelhVrpbR2hnbJg/993mT40oh17lb4elPR/fUNora+9XkkKzYWLY9MBcvkC2d8SwdwhwsWJeIgII5rCLmdmT8CfXUQ77/7Emn30oSPe2Zz3xoanLyhFB8UWQiEZmIKtlDRfzUl2Hyw9UXrDQKgfITeDwREFaQsp8VX1MKyaP9l0XMkrCKrvJTVfnQstEDPv2Zyaf+2EmNjVmtXeE3RnJjY/c+fZ/ZByfM0i0mcmCmA3y3Q5IQCt0eLzEDMbovFpsQAbF4Ajuyd/zwGAvVUUK+f9Us37+n/KzV5KMvecmaj88f34xrsQYX9oYAIqA3HGkFApUj8IQioGOZPztimgXW5gvpodKMmH5Ha3Jm/WeWf+Xii/XhIoiBza/Y9StpUz8kZr9tZqMqXixHUlOtZ7HDZBKq3Bdh4QNGBCycFVf2l0Dn6n9LxOpZsS+5V1X+Z5Ls987t23/nzv6aQOsxEEAExOAFbIBAAQksUASEFSc/WhrqS/qp+uygkL881/xfi+oVIvZnl19z2N/6xZ0Ze2LC0nlMaOO6mc1irTea6IvdRjWbzYSAJGGcZBKKyXWx2IIIiMUT1bWj8+x/K9/AdAHgGdK+Uq/b2TfeuPZvMjys/FdhmiACquBlxgiBPhBYhAjo7H0u77SJpCrWMpMRUXlYNbmgnsrWi69d8f/5DeOrbhnxPP59MH0JTZquXj1Vm5o6ujk29uOnLmvs+SNJW1vM5HlZ3EPSMF9Vo77AEhiX9lZEQGldW4iBda7+NzyDWx7K9PeqesFNN6251EexatWnRnbuPDWy524h+BbSSERAId2G0RAYPoEuRUDb8DxMwLPQaUMsrYeEdCL/aqoXywHLzr/88mf81IXAijWrWrGlFR0fv2Vk69ZMoJy0buZFIukfSiqnhh9WkYZkKfVCfYG5EmrDdxkWDJcAImC4/Kvae2fBL1/992M/fvb/dpHkkyJ6ydTUsbs9378Dmg8Ariquao0bEVAtfzNaCPSMwBJFwLwYyIKHPYtQ00I1ypBs5xuSyHmXXXXYF/zvcQYOm46P76y3xcCmDTNHpa30LSKyLk8g5FvstfxHt31EKAyvZ06goSIRQAQUyVvFtjVL8plF/7bz/Xt2n3D0R1XPS9PkMzfffOw/+zWs/hfb2Uuxnh+jpdDjXghUmECPRED+O5XvA4g0PYuQqWfd0T0idmMyou++9K8O+8dYUXcKlE2bdu8v96cvk5Z9MDV5YTudaHjz959lD4fwf2SD4fkbq1P7YxcioD9caXVvAnPHfjwcK09elu2zinxVRN43NZWd+6faL1OHHyHmAAQg0BWBHoqATAhkAbbtwGFPv1nP6ws8IGIXHXjAAWdd8Pmf+UlXxg7gpk4xcMrY7U+fna2Nm6Wnm+lTQxo+j4HwJHxedjjkFSWT0ADcElMXiICYvFEyWzztQp7uMzxP88DedsGvH4jo6T/3c8uvaO9cTkxMJBMT5Psv2TRY9HAQAYtGxg0QgEC2inTr6OTkytlN62a+aJaemJeX92fKUp4rnrTaf838bTkNB+rD38LC+Z0mcubTGw9e/onrX7DH/01nxp44vLJ3Ro1XH3/n82qN5odMbb2YLgvpkdr1BfLiw0vkFcewsWIhBBABC6HENYsikE+qjirm5s/NWv7QvFdEPzE6Onr2DTe87IGsYbL+LApwyS9eyo91ydEwPAhA4IkI9EkEtLtsF7JxReA5RvNNgbCE/k1Te+euew772tSUNv1HbWJCNLbg4U52G9fueqmqnGUmv56XUWsFqWRSC4WV860BZlypCSACSu3eoQwurPhnG6jiQb8e8Ovv/w+o6v9SrZ2xY8cx3x+KZXRaCAKIgEK4CSMhEB+BPouAsGSVb2rnSXZCyTGvbBmqWiaqn64l6fkXX/Wsb/vFWcaeVc389H1EwOZX3jatm36LmI2nYi/Mj+vOquhIdhIqRPC53TyXI/JeD01BBPQQZsWbyk9P5juLZh70G1J+msnNSVL7s5tuOvZqVv4rPksWMHx+bBYAiUsgAIFHExiACOjsdO4FSkRaYpaayoiK3q2qH6uLXfq5qw+73W/Iio35DkE8Hz+25Nb4bsXm424/LK0lfywmm8XkYJPwA56q6kh7+wMhEI/vemgJIqCHMCvc1NwuqZmGfP95td9/UZXPPvOZD39ycvKE2dWrb6pPTa32DGVzmYIqzIyhPw4BRABTAwIQ6IrAgEVA20aPGciDh8ULc43mi+ffEtNPrd1n+WdOmNRWrFWHO+sLnLx212+0RMdFbLMPzsxmVbVuZp4ZKURDIAa6mpqx3oQIiNUzxbDrEdV+wz5pXVXuEdELa7Xk09u3H/d//XhQu6BhMYaFlcMkgAgYJn36hkCBCQxJBIT35eyYkB+DVQ+C87iArPql6g2S2LmXXXmYp8KLMHA4s2n62p01r4a8esLqz95557Gm6dtSSX/Tx+WBwyKWZOUT5iYIz+oCf1dy0xEBxffhoEeQH/vJnniaHYz054O//Pvn8iRJPr5jx5r/7X9ZteqWkZ07YzwSOWhs9LdQAvywLJQU10EAAnsRGKIIaNvRXhnzBfOW+Q9jWD7Xe0Xk2nqi7774quU/iNVtnceWPKXonkbtlZLa+8zskGx7PxT6dFHQkfmDeIFY/bkAuxABC4DEJYFAR0X17M/z+f79P+sttVrt3aOjetP11x+zR8TTffoCAyk/mT+LI4AIWBwvroYABHICEYiAeTEQUmRramJpXhXTV9HvNJXzZ0fTj05OHv5QnI4zHRuTZHLSV/9FNh5/93JrNU5XS99gprW5+gLZngDBw3E6caFWIQIWSqra13XGP3WIgXAS8q4kkbP22ad+2fXXH/NTx+QFvyYnTwjPDz4QWCwBRMBiiXE9BCAQCEQkAnylPJwNyhLrBCGgXmMgzyv6b6Z6+q57l1/bDhiOvb7A5lfc/ktpq3aupPbSsB0QPtpSlcSHKuo5U8kkVLCvIiKgYA4bgrl50K8/0tqZ0MJuoKf8vNQsed/U1LG7M7vmCo8T+DsER5WlS0RAWTzJOCAwYAIxiYB86I/YQg9liEPFzHC8JpFraqrvu+SqFTv9+s6MPQNGt+DuNq2dGTNJ3yUivxSKqIk0VTURkyRkB0cILJhlBBciAiJwQqQmhLN/WY1Ez/fvfwxxQZ4s4OYkab5zx44N4dw/Hwj0kgAioJc0aQsCFSIQoQjIF8i8LG/+6p8dqvdIYlOTxFfQRfUjy2zkos9cc/D3/IbOjD0xua+9W7Fp0+799b7W29M0pBR9bhiZSkMkZBIKwYJkEYrJc49rCyKgEG4aqJFhFT/s7ol6DRRPbRwynqnqt8ySj09NHXdJ/mDzf8uq/0DdU/7OEAHl9zEjhEBfCEQrAvYebVg/z3KKhvoCHnHrOft/kGhybk33ufziq552j79w33qraPtsfl+AddFoJgTCW79t2rD7F6RlbzFLTzCRA/yFIVcAtTxy2Hvgmd4F5wHdgggYEOgCdNMO9vVji67km2ZpPUv/Iz9MErm4Vtv3z2688aX3etCvyHvDM6AA48LEghHgB6NgDsNcCMRCoCAiIF9oC7k1QsodEWmY2agfpVGVHaqy9dKrD/vLsCuw6paRrRGm2MvsOrLhNm5cO3OsSvqHJnJcOEIgMiuqI3P1E7IJwrM9li/KvB2IgPh8MgyLOoN9/ehPqPYrInuSJPlsvZ5s/epXjw1V0LOCX0dHVfhwGMD612eIIetf8wVomR+KAjgJEyEQI4ECiYA2vnahMX9D9pSiqZqMiOrDkui1qei5n79qeTh3G1/gsAdiW81t892K8fHp/R7erWMtSd8uIiu9grILHDWrhYMF2aohz/e4vjiIgLj8MWhr5o7+ZEf4vFK4H+kLJxavq9Xs49u3rwv1TVat+tTImjUzLVJ+DtpF1euv1D8SaLzqTWhGPDgCBRQBc2Ig7MCHyFptiqUuBPy/3Zmo/qUm6fsuvfJZPxocycX11Flf4LVr717RkMbJZvZOUds/HHzKygvlecXDC0bUOwMVek4jAhY31ctyddvv7eDfPAYgnPv/roi9p9GQL//t3667j9X/sri8D+Po04Oy1CKgD26gSQhAICdQYBHgIwiJN7MEO5r6SrqJ+JlcjyDwAmMfuvzq5Rflx4fydHwxnck1nZgQnZjwYEKRzRvu+Lm0Je8W041BBWTZA1NPm5pnGgnRxOwODPVg+JvHAAAgAElEQVTriwgYKv6Bd57VNc8qf89l/8mzAD0koufUao3ztm8/Piw4kO9/4P6hQ34QmAMQgEC3BAouAuZ2BTrO0vsPtQcN+3Ea/+H+ptT0bduuXPE37YvjOyYUDv/MHWrduH5mtaTpR0XsyFzpeP0E1wGJq4Fc1LD40+2kX9p9iICl8SvK3fmZ/5Dx0/+cmkktL1rSErErk2Tk9B07jvn+/ID2/h4XZaDYWXwC/BgU34eMAAJDIVASEZCzm3s/68jaEZJ1uyL4XJLY2Zde+ax/y1bsrDY56YV8YtoZ2HsKbFw//WZN7Y/N5Dn5waCmZ0VykZPtduTrk0OZOZXtFBFQftd31ippZYX+NMTyiMj/rtX03Tt2rLmh/BgYYVEIIAKK4inshEBkBMolAvJ1c18qDzW5MgEQ9vBFEhX9qWrtbE0bl1563eG7/OrOs/lxuSZbVXzN2H0HNR66/z2SpCeayEEh0ahqw8TqrgGoLzBwryECBo58cB22q5aHiiRinslrNKv9Jd9RlQuPOupb53mg78TERELA7+D8Qk9PTAARwAyBAAS6IlA+EbAXhkdU8Awr6P68/MekZh97Rt2+9OeThz/kQmD1aknbZ/O7AtmHm7LdCvXUg3LS8bt/PWm0/tjUXpkfS/BCY37sqZa/lfpl/Bb0wQ+PaBIR0H/Gw+ihc/W/mccB+PGfO8308mXLWn9xww3rb/cz/ytX3mYIgGG4iD4fjwAPfuYGBCDQFYGSi4A2k/aLW2pmTfV83qEasV6tNb3wsitXfMUvzKoOv7gRV85p07Gx20YmJ1fOuo2b1t4xZpa83sRW53Y2VKk63NXk7+4mREB33GK96zGr/QZFrcnl9bpdeOONa0M8kaf83Lnz1FDngw8EYiKACIjJG9gCgQIRqIgIcI90Bgw0Q20ZtbqK3CuWfLFu9T+9+LqDPdXfXhl7YnFlZwzDpg27D5Y0/X0xe5uJHG5mrbDDYZLkeUzCO0wstpfMDkRAORwaDgmGGuTZV8VX/+seZSOi31Bt/fnq1euu8N1BL/a1evXX/AhQyOLFBwKxEeBhH5tHsAcCBSFQIRGQC4GQc9/3AfwVIFQd9r8lkvxQJP30z/70sLMnpjTa6p571xfY9fOziY5Ly95sYjVRSTUrnZAtZGbbHV6OmN+I3n0fEQG9YzmMlvKswiGgJssxnFWbdR19t4ieVavt+8Xt238npPyk2u8wXESfiyPAA35xvLgaAhCYI1AxEdAedxY27G/Mon5EyF8IauF9WeVfEpGzLr36Wf8z1mmSpTgNIcLh7WXLmpkXN5P0A5LK77oAyBc3H1HZFCHQI38iAnoEcsDNdMYHdXw3wvu/PwjOq9Xk3BtvXPtD/zdZvv+xqLOHDZgf3UVMgFWeATqnTwXfBjiCPnQFlD5AHUyTFRUBc2Ige/9Xf0Hwrf5aWFNRS031q5rYOy678ln/Z94TceUB76x34NWTN6/d9UoT/aCYvCCoHNc5YWyShHxJFBrrxZcKEdALioNrozPgd+57ni/9uwC4USR5+9TUsd+O9Xs+OFT0VFQCiICieg67ITBkAhUXAeFFOa/+GaRsO7No9pIgDRX987rKeZ+7+rDbsxXCuOsLvOnltuwnI9NniNjrRPTgbGx+3jnsdGRnhbJfDH43uvvuIQK64zaMu+bjgDKRn3oQfW7Id0T0g1NTay4fhmH0CYFeEuBh3kuatAWBChFABMw52wVA50tyfmLI04rKHaZ61rLR9IrPTB7+43kxkKXvjPHz2uPvfN5ss3GWiK41k6d4xVM/+uTB0HmJsaz+GJ/FEkAELJbYcK5v+8n/30XwSC7sb1eVbQccoB+89to1D/pmWcwFA4eDjl6LRoAHedE8hr0QiIQAIuAxHZFvDoQoAc8kVPfUOyrJTYnaX1xyzWHX+F1ZkK60YnuJ6KwvsHnD7uNardYbVexl+QGhWVWpmxdPy9OjIAYW9WVEBCwK18Av3ivff74TVhfR+1V1Mklq527ffsxt2cv/WSpCxp+Be4gOe04AEdBzpDQIgWoQQAQ8np/D64OH3vo/0kwM2KiXGjNNtiXS+uS2qw//pt89vuqWka07j4wqf7jHC0xfu7Pmdr3p5d9dds/I/q8xsVPF7JezLYCkYZ4iNdsWYFdg4V93RMDCWQ30yrmtvL2q/boJyZeTpPbJHTuOud7/Vop8/8ThDXRuxd4ZIiB2D/XJPp4DfQJboWYRAU/q7JBFMH9Zbnq13iydoExLol/cLxk5d+sVB83EGivQmVJ003HTz7YkPdlE3yoiP6MmrUznhF2BEDzArsAC5kMWTC6a6hHbrlsRssn04tNOR3nUUdeeoWof7Diqwm/8EwOe27kT0ZYH+2fVtPWfazX7aJoeeOXU1NH3U+23F7OUNmIkwAMiRq9gEwQKQAARsFAnzcUPp2LWNNFQX0DV/sXS2gWXX7v8fG+pM2PPQlvu/3Wm46t21tu7FRs33PmftdV6a2rp5vyt37MhhQRCYeNjfmOA35ZHO4edgP5P2IX0kL/4e2B/COL3qP5UvF6G6P21Wu0cEdm2Y8ex/88bI9//QpByzXAILH05lwf1cDxHrxAoPAFEwKJcGF4AszJc1grnhXwVPQTcyje0lrxr25XLv7aoFgd4cadAGR+3kYdm7vwt0ebZqeiLgwDIxhVSiWbFVNkdeAz3IAIGOGcfp6u5oN9QDS/Pd+VCQFU/LyIfuummtbf6veT7H76zsKD/BBAB/We8yB6WruwW2SGXQ6ArAoiARWMLbx3ZgZCQQCg1kVpIy6/aUtXLR2TZuz539TNCStHsE1cGkk4xMDZ2+77LZnWzmLxHTFdkewGSutDhmNBjzg1EwKK/Mj27oSPjT/ju+ZGf/BSbfbtWk9O2b1/31fneJhICf3vGnoYiJoAIiNg5mAaBmAkgArr2zl5FiMIrib/sh4SDer8kyVn1p+1z0cUXP+2ebEXS6wvEm1J004bdB6et9CwV+30T+ZmwvNquL5AXVCNeIFN0eYE5YgK6/uos+sa5s3j5kR/P+V8PMlxkl6p85Kab1n580a1yAwRKQgARUBJHMgwIDJoAImDJxH1nQLMKA9mRGv97vjx5m6i9d3bUvjw5efhDviMwNiZJ1GJg3e5fM0vfK2K/bSbLRMx3N3xMtTDGDFeVf3MQAUv+yiy4gfy8f7aTluX7l5H85f8/zORL++1Xn7j++mPuXnCLXAiBEhKo8gO5hO4s6pA4AlVEzyECeua1LA3//Kq5ZykJq5WW2BWW1s77/DXLb/JrspSiq7yAUbgnlk/nbsWm9dObLLXXi9ivZ+mRdFZFRjoFT8iRVL0PImAwPn9kxh8Xo6Mi2lC1a5JE/3T79jV/56ZMTEwkExPk+x+MW+glRgJVfBDH6AdsgkDhCCACeu6yjuBhcSHgaThHVfR+M/2sJPqpy69efpv32pm+s+dWdNmgxwvcequo71aMj/34qQ81HjrVUq8vIM+zECuQtFRspPMNrcuuinobIqD/nus8++8v/aOZwNabk0Q/ddNNazz4N8/3Px6dmO4/HnqAwN4EEAHMCAhAoCsCiICusC3kpvkMJiYNE3+RCaeEviuqF+tTko9t23boA7HWFxgfv2Vk69asANrJa2ZWttReKyJvEktHTKWhojUz88xIeW6WyhwRQgQsZPZ3d80jz/57K4mq3l6r2Z/Ozo58/utf96M/E8nq1UclU1NH+/EgPk9CgD368k8RRED5fcwIIdAXAoiAvmBtN+rJdiREDHga0SytaPtM8y2SJB+97KrlX8oujiuDkFvkuwJTU5JMTWl42dq0Yfo3tWVvT0XW5jsBHqDZ/v0Jh7bzE0Jl/k1CBPT2K5PX4stS02bhJ+EAmr/8+9//3MzOn5pa9z3vthTVfnvLj9YgUJkVGFwNAQj0mAAioMdAH7u5diYhf6lJfQU9qzqssyK6vZ7Uz7z4qoO/PRBLuuikM1Zgy5Z/36d5z7JjJbUPm9kLOpoLAqAjJqKsQgAR0MUceoxb9s6ulefYbVcAE7G/Hh2tvfOGG47bmd3r5/7D+X8XnnwgAIEOAmV92OJkCECgzwQQAX0GvHfz82edxVIxqWU5ReV+FbtIa/KBS6981o+yW+LcGZiY8B0NkZNO+tFTavc9/NbU5K2mdmBWZszSUHjYcyQF87M3u4ES7n9niIClM+448++7R576J/siqMr3RPSM++5bfvXOndlxNAJ/lw6cFspNoGwP2XJ7i9FBICICiICBO2PuJTKrOhb6b9cXmE5U3m0P1/5y2w2HPuD/Ifb6AlvWzzwnTdNzUpF1ZrYsH0pT1Gp5Jde8rtrAOferQ0TA0sh2CoCWiNbz5u4SSS5ctmzkIzfc8LIw9/lAAAILI4AIWBgnroIABB5BABEwlCkR3v6zUAFfQPezQXPpRX0X4Gtq9ff97H2H3DwxpU0XAitXirVX4Ydi8ZN0uunY6ZdZzd4lYr+Z5UrVZhidiAcQlylWABHQxQTMSmh4KY0w6z1rVi0rui33ieiXa7Xkvdu3H/tvXTTNLd0SIGK4W3LR3YcIiM4lGASBYhBABAzPT1nMcHZgpn2WPqQU9Wqo4WiEbVXRCy+95rB/dCvHx21k61YNRyRi+rR3KzyQ+Pv/OPNGM/sDEfvFEN4pMquqnlI0OylU/ONBiIDFTb65gl9mITjeg8xH/fVfVbcnifzF9u1rr8uanEhEOPO/OLxcDYHiP1QH4kNE70Aw00nBCCAConHYXHpEEWnlR4W82NhdInJ+siy96NLJw3fFWnW4c7filGOmj2iM2OtSk9eIyMFe6TXPGlQvwa4AImBhX5m9An/NpCF5mlwR+SdV3SpywKc8zefq1TfVp6ZW+9GgqIrnLWyYXAWB4RNgJ2D4PsACCBSSACIgKrdl7/55dK2oNMRsNDs1JN82Sz59+bXLz3eLs0JjEt2LU1YNOQvo3Lhu138T0VMltc158ENDVevZSSiz7LRQ4QKHEQFP9JXJVtvyLJ/huI+v/qeqUhfRn5jJX9RqtUt27Dj2/2Xz2AUA+f6jegphTOEIIAIK5zIMhkAcBBABcfih04r2anl+hKYlZqmJjqhIqol+LVE5+5KrVtyQ3RNnFqF21WHfIVi2Z/fviaRniMhvzNUXyISAvzAW7ZgQIuCxvzLtnaygAkJqqDzfv/85SeRztZp94sYb14WjbVm+f6r9xvf0waIiEkAEFNFr2AyBCAggAiJwwuOYkMUMhEhK06zQWD2srYp6MOV19UTPvPiq5T+IdQSdmY08pWjy4J4TpWXvN5ND8p2BrLaAj6gdHR3/zgAiYK8JF3B4/Iqf8s/f++d3d1T1m0lSP/Peew/+epby03RsbDKZnDzBY1/4QAACPSCACOgBRJqAQBUJIAKi9/ojz1b78YqapxNSkR+J6p89ZbT+8fMnD74/zp0B04kJ0XZmo00bdh8srfQME3u9B4iGnQE/MpJVGssFTxhJrL9riID5r8x8ulsLx37cjUm+E7DbI31FDrxkauroh7NbCPyN/mmDgYUkEOvDspAwMRoCVSKACCiMt9vFVH3h3E9d+2GabGNA9DtJvXba835yyFc8pWh43ZqwJK6UonsfW9r8irt+xZqNj6QmR3sa0ZAoVTVVkSTyTEKIgJDMKsTw5ke5soxW2TdJ7xfRy/bdt/ae668/5u7CfLswFAIFJoAIKLDzMB0CwySACBgm/UX3HU7ReOhwfv4iqzWWncfw/11VryUfuviK5f/g/zo7juMrtPFmXdm4bmazWPonYvZLYSgiHjxcM5EkPyIUW1rRqouAvbNY+dxzX2nSUDVP+fme7dvXhvnHBwIQGAwBRMBgONMLBEpHABFQSJdm7/7ZWfogCMSsZV5fQJOGqP1FkthFl175rFB8aXz8lpGtW7OMPTF92jEDrx+764Cf7mmeJmIbTeS52ct/4ufHPaVobIHDVRYBWQCAdOb7D68ffy+i501Nrbk8E59fqnHmP6ZvGraUnQAioOweZnwQ6BMBRECfwA6u2fm0oiJNM0v8DVpVvquJnt/ar3HJ5z9/xE88pehBB4lNTmpUAZlZqtPsCNPJa2ZWNtXeKGKbxWw/kbC6nJhJTTNl4JcN+/euiiJgbswi2jBLvdpvIiLfV9XP7LefXvjlLx/3E0/3uXr119KJCQp+De7rT08QGP5DER9AAAIFJYAIKKjjHm12+0XNDww1zGQ0y8OvU1pPPrXtykO/GO+ugGeMuW1kcnLlrNu4ce2dLzVpvkHF1uVJgxomWp/b9Rjub16VRMBjVvsV0T21ml6YJMlnbrzx2H92n61adctIlv2HDwQgMGgCw14ZGfR46Q8CEOgRAURAj0DG0Uz2guov/xp2BURF66Kyx8S+bEnyoc9ftWJnZmp89QU6qw77EaEHGo01rVTfZWYvUjHPIOTxD4kff8oz0bc3Bgb5G1gFEZAnbfK6dSEGPWSkyqo+67Wq9qc33bT2az6LqPYbxxcfK6pNYJAPwGqTZvQQKBmBOERAbLGfhXay1xz2SlyuBfyF1Y/aeKExz+Xyk0T00v1bjbMu+PIRP4l1lJ1HhDYef/dybTa2pGJnitkBWT6kLBrVB5SnTBrkBCqzCGjjDEevsgxAcyEZ3xPRM0QOuK6d8pOz/7F+g7CragQQAVXzOOOFQI8IxCECejQYmukk0JnFJc3fXGt5Mdddidr7n/crh316Po1obDsD+Xt+ntno1cfd9YIkabxPzMZMtJbvZqThFXWwwcNlFAGdc8Xf/f1IWZKt/Mt9qvrhffapffL664/5acadfP88aiAQEwFEQEzewBYIFIgAIqBAzurG1PmwYX/R86XdJN8V8BX1f1CrvX3btYfe3E4jGn19gbUzR6di54jYix1H/kYejqtktcayLYJuUC3wnjKJgLkz/3m135DvP69KvcdM/mrZsmWn33DDy26fZxObWFyg17gMAjESCBubSzesnw+8pVtHCxCAQLQEEAHRuqaXhj1ypTd7Tc5W0D1u4DNSkz/dduWK73in2XEcaUVdX2D99Js1Tf/ITJ8XFq6zTEK+05FYFkHcLzFQFhHQWe23lU+GuoXKv/r3tZqctWPHmht6OQlL0VaPXtpKwYJBREMAERCNKzAEAsUigAgolr+WaG0WL5Cd985P0lhL1TPvyI9Vk7MlHfn8pdc9c9e8GMjSd8b1yVaj/2DtnYfssfSdpumJInZwPrimio70MVagDCJgLpOUmRdns9HMv3prkiQXbd9+7Mf8lBXHfuKa9VgDgccjgAhgbkAAAl0RQAR0ha0MN3WsBJundqyHmsMiOyWxj+93yGFf2LpVG74rsHq1pPOxA3EMfa/g4XXTv6VirzeTE/KdgFkVrXl9Ad9rz15oe3ZEqLAiwEVSlmApCEDPHuX+9qw/d6vaxSMj9okbblh/uwf8upcp+BXHXMcKCDwZAUTAkxHiv0MAAo9JABFQ6Ymxd/CwWFNMRkOGUdNrTfS8y69dEY6EdL50x0LM4xemp3fWvBqyv9+evG76hNTk9Sb2Ej8hpCoN8RSpEg4I5blTl2x9EUWAB/q2T385maZZOpKn/LxEpHbh1NQxf+9kyPe/5PlBAxAYOAFEwMCR0yEEykEAEVAOPy5xFJ1pRV0IJJZlh7knMblSa60PXnLVs78/IZZMhDC2sLIezadToLxmbOag5mx6gpmcaSYrVC0NewFeFyF7D25vCXT7u1kUERBe/PNUnyH2Q8Ra2e5I+Hw9SUbPfuYz7/trX/Gn2m800xlDILBoAt0+zBbdETdAAALlIoAIKJc/lziajjzxSVMsHcnqjuntonLRzzz7wXM+8YkX7FliH3263XT1aqlNTWUxDKccP33Enpa82VJ7S3j7zwYSzr+ETYKsFHE3x4SKIAKCjWE/J387mM/5rzNJYu+ZnU3+6m/+5rhQK4J8/32akjQLgQERQAQMCDTdQKBsBBABZfPokseTvx6HA+Spt6ZepTe8RKe3JVp716VXr7hyvpfYUkbubc+W9Xf8csPsHLXkd7MX4TCS1E/F5+dj2rsaC/0djV0E5EIuZE8NaZOCjFN7WFUvqNft3K9+dd105j/P9//e6HZ2ljyDq9gAWYuq6PW5MS/04VVpSAweAhB4NAFEALPiMQh0HA8K75S+lJ60V9Rrql8WqZ156TWH/FN2r+nEhGhcwcN7i4GT1s28MrHW+1PRF4ZgYdPU1YB53YTstTnXB086H2IVAXMZf8RFznxQdFMkuUlET5uaOvbb8Yq3J+XOBRDoPYGSiCdEQO+nBi1CoBIEEAGVcHO3gwxLyRqyiuYnTLITNeEojap8JK3pBZ+/YsX/838Ve32B8TXT+z2ocrqIvUbMnpWfBWpYSJHqkcM+uPYBmsdFFpkIyPzi7jAXNmK+exMKfpnpP6kmH56aOu6L3U4A7oMABOIngAiI30dYCIEoCSAConRLbEbNxQrk9cVSyfYKElXZpWIfeHiZfWly8vAf+65A59n8eAaSixdR2/KK6Rc2mumZYslaEXuqmrVClID5y3M4DfVEuwKxiIBHVPv1TEg2mgUAy7+rysVmB35kauroh8n3H88sxBII9IMAIqAfVGkTAhUggAiogJN7O8T5pWexpplkwcOJ7khMz2vHC4yvumVk685VzZgzCZ204Y7jJE3eKJa+LE8pOuspRZ/kiFAMImCuFpqZB0KHpEcjInq/anJ5rSYfu/HG40L1Z4J+ezv5aQ0CMRJABMToFWyCQAEIIAIK4KTYTAybAHN551ti1jLVURWZNbW/TMQ+ue3qw7+ZvYRabXJSWzENwesLTE1NJVNTRzff9PLvLvvxyP6bVexNZvKL4YVapGmqI/mmwCN3BoYtAjz1Z8j84wJANfWXf8d7Va1mn9q+fd1X/C8vetGXRm+7bczrJESVzjWmeYAtECgLAURAETxZkgCUIqDGxoUTQAQsnBVXPopAUAIh975Zw0TqIVpAZVol+UJzfzn7C19Y8R/+0h1X0HA2js76Aq8+fvqIWlM2mdhpJnKgmjVFQ9VhLzicF9kNiffbFXdFUz1i23UrftireeG5+l2YHHXUtWeo2gfnX/ZD4bOQ3DSs+YukqpbkaZz+pVarnd1qHXD11NTR91Ptt1feoB0IFIcAIqA4vsJSCERFABEQlTuKaIy/mXo6UX87TUXUdwZGwlq1yL8mqn9+6dUrPhXvwPaOYdiybvcvNi19m5ltDjbn2wHZO3gQPHNbIIMQAXmXbkW+IzEX2/Cgqry/1Wpc8vWvv2ImEzWZiIiXNZZBAAL9IIAI6AdV2oRABQggAirg5MEMMU8rGvYCPHDY89OH8rym8nd109MvuWbFzfOmxFVfoHO3wo8w7dO88yhrtj5iIquy1KjZuNrncFzy9FMEiGQ7Adk2ROg+yfWHU71s333rE9dff8z3M57k+x/MFKcXCMRJABEQp1+wCgLRE0AERO+iQhnoB9bbRbjCFoG/vIZVdPUCXZ9PLHnPtmsP/fdsUPMZe+IZ5Lw4mZiw+nd3To+rypkmcli+HN/KNj0k6acIyI8DZQSzI1b+j2+q1k7bsePYaMVUPH7EEgiUj8DjnSpHBJTP14wIAgMhgAgYCOaqdTJ3iD5IAo8jDmED4UX2Pk3kA6K1i7ddeehdDqbzbH5UoPJf3M0b7nhGmur7NJXfT1Weng/ENNXn9CMmYPXqa04X0feZpSN5ys/vqspf3HTT2vOj4oMxEIBAFAQQAVG4ASMgUDwCiIDi+awgFodDLFlswNwx+jRUtgpaQP9PorUP21Pkum3bDn3Aj+D4uGLLJNQOznXbNq+f+S+tND1TxY7x1KiJJX0JDF69+tp3mdn7VeVOEfnC6GjzwzfccPxd5PsvyMzHTAgMmAAiYMDA6Q4CZSGACCiLJ6MfR3t3wKVBqC+Qn3H5q1orueDS6w7d7idfsvn4ouhSW46P3zKydeuRDad80rrpV6vZG0ZUfv9zVx92e6/Iz2cHuu5NqvbfkkQ/sWPHcd/w9sn33yvKtAOB8hFABJTPp4wIAgMhgAgYCGY6mScQTgeJSsvEUg3FxvSnIva5UdELPnvNYf+avfTGV1+gc7diy9hdhz5N9tz755OHP9Rr577kJVcdfvPN64O4WLXqUyM7d45HV3St12OmPQhAoHsCiIDu2XEnBCpNABFQafcPY/DtLEIqnu5GpGFmo35oKFH9fqryuR/PPnDu9de/YE+s9QU6dwX2AtjTWjCmY2OTyeTkCVEVWhvGhKFPCEDgiQkgApghEIBAVwQQAV1h46alE8jFQEgj6rECnnVnxJs1kW9pkpxz2VXLv7T0bvrTQn8FSoxZk/rDkVYhAIGlE0AELJ0hLUCgkgQQAZV0ezyDni815jEDqYjUfFdAVWZFbHtd6++4+OpD/3ne4LjqC8QDsqCW9HT3pKAMMBsCSySACFgiQG6HQFUJIAKq6vmoxu0CIKQMyjYCwl8Tt1BVH1LR86WWfKSdUjRbhQ8VdLMs+nwgAAEIVJgAIqDCzmfoEFgKAUTAUuhxb48JhKSiZmpzcsD/aOqpRnclSfKufUeWXbl18un3er8xBg/3mAfNQQACEHhSAo8rAthpe1J2XACBShNABFTa/TEOPqzu+z9CUa6szFjqOwNBGIjerKof+tlfWf7ViQlNXQisXCnmf45xMEWyifeFInkLWyEwT4CdAGYDBCDQFQFEQFfYuGkwBHxnQMzCQSGvM9YUST2lqB8E+pxJcsHl1y7/BzflcTP2DMZOeoEABCAwNAKIgKGhp2MIFJsAIqDY/quI9R4j4BlFvf5w01WBidRUdXei9llp2fmXXnf4rnirDlfESwwTAhAYCgGOAw0FO51CoPgEEAEF82G1z2yEbQFXAybSELPR7ISQfkuS5KLLrlp+gf919WqrT035rgEfCEAAAuUnwE5A+X3MCCHQFwKIgL5gpdH+EfD6AlmZMdWW5xFS1bqJtFTka6V1eRAAACAASURBVEk9+cClVyy/qX/d0zIEIACBuAggAuLyB9ZAoDAEEAGFcRWGtglk+wEeOJxVHTZrmUg9Dxx+SEQnrb7snZdf8Yw7gAYBCECg7AQQAWX3MOODQJ8IIAL6BJZmB0FgvtRYVlzAIwcScYEgeq+pnL3/Ics/vnWrPujG9LfK7yCGSx8QgAAEHk1guCKg2mdUmY8QKDQBRECh3YfxGYH8VJAfEgq6IA8VCP/3r6nJOxr7rLh+clJn/V9QX4BpAwEIlInAcEVAmUgyFghUjAAioEQOr/aCzF7pRIMyyBRBElKKql4pUjv3sqsP+Yb/Nw8eXr1aUuoLlGj+MxQIVJQAIqCijmfYEFgqAUTAUglyf4QEwsmgUF1AJDWzlqqOiMhDonKeJvq5bVeu+I7bPT5uI1u3aiPCMWASBCAAgQURQAQsCBMXQQACjySACGBOlJhA+5iQnxfyF/2aqiQi+m8qydZ9ly27aOvk0++l6nCJZwBDg0AFCCACKuBkhgiBfhBABPSDKm1GROARuwLSFPH6AiF6+G8lkU9edtVhX3B7iRWIyGuYAoHCEBj+OUxEQGEmC4ZCIC4CiIC4/IE1/SIQNgXaVYdbXmtATBJV3aOa3GC1dOKyKw77Vr96p10IQAAC/SKACOgXWdqFQMkJIAJK7mCG90gCc5mEPFZAQn0BFTX5sZpuS+p7Ji6+6rn3gA0CEIBAUQggAoriKeyEQGQEEAGROQRzBkGgI1ZAUk8ipF5fwDMKqdyuKu/dM3rP5ZOTK0NKUeoLDMIlT9LH8E9cRAABEyDw2AQQAcwMCECgKwKIgK6wcVObQHFfzjpjBcw8oahkp4X8z6r6N3XVMx8YXf6NyUltuTyYmBAlpShTHwIQiI0AIiA2j2APBApCABFQEEdhZr8IBAHg0QKhqoDXGwu1xiwIAlX5tNRqH9925aH/4gaMr7plZOvOVU3xA0R8IAABCERAABEQgRMwAQJFJIAIKKLXsLmPBLKjQqKpadAENRH9iYieu89IeulFVzzrDu/bi41NTWmzj3bQNAQgAIEFEUAELAgTF0EAAo8kgAhgTkBgLwKWLfGHnQCXA00xG9Fsh+BbonLBntEVn8uOCPGBAAQgMHwCiIDh+wALIFBIAoiAQroNo/tPIIgBlwGi6lWH/QjQaKhBLHZ9XZKPX3zNiq/03wx6gAAEIPDEBBABzBAIQKArAoiArrBxU3UIzGUSErGm+fEg9aSics8+Un/hRdcccmd1UDBSCEAgRgKIgBi9gk0QKAABREABnISJwyZgnkbUzwbl4cMtE6mP1GrPvfiq5T8YtnH0DwEIVJsAIqDa/mf0EOiaACKga3TcWD0CrgQ8WiCcCtJUj9h23YofVg8DI4YABGIigAiIyRvYAoECEUAEFMhZmBoDgbnjQYiAGNyBDRCAACKAOQABCHRFABHQFTZuqi4BREB1fc/IIdA3Akupu4gI6JtbaBgC5SaACCi3fxldzwkgAnqOlAYhAIGlEEAELIUe90KgwgQQARV2PkPvhkDBRcBS1hu7wcU9EIBAvwkgAvpNmPYhUFICiICSOpZh9YtAwUVAv7DQLgQgMCwCiIBhkadfCBScACKg4A7E/EETQAQMmjj9QQACT0gAEcAEgQAEuiKACOgKGzdVlwAioLq+Z+QQiJIAIiBKt2AUBOIngAiI30dYGBUBREBU7sAYCEAAEcAcgAAEuiKACOgKGzdVlwAioLq+Z+QQiJIAIiBKt2AUBOIngAiI30dYGBUBREBU7sAYCEAAEcAcgAAEuiKACOgKGzdVlwAioLq+Z+QQiJIAIiBKt2AUBOIngAiI30dYGBUBREBU7sAYCEAAEcAcgAAEuiKACOgKGzdVlwAioLq+Z+QQiJIAIiBKt2AUBOIngAiI30dYGBUBREBU7sAYCEAAEcAcgAAEuiKACOgKGzdVlwAioLq+Z+QQiJIAIiBKt2AUBOIngAiI30dYGBUBREBU7sCYJRPwN0hbcis0MEQCiIAhwqdrCBSZACKgyN7D9iEQQAQMATpdQgACj08AEcDsgAAEuiKACOgKGzdVlwAioLq+Z+QQiJIAIiBKt2AUBOIngAiI30dYGBWBkosAzoZENdswBgILIIAIWAAkLoEABB5NABHArIDAogiUXAQsigUXQwACERBABETgBEyAQBEJIAKK6DVsHiIBRMAQ4dM1BCDwaAKIAGYFBCDQFQFEQFfYuKm6BBAB1fU9I4dAlAQQAVG6BaMgED8BRED8PsLCqAggAqJyB8ZAAAKIAOYABCDQFQFEQFfYuKm6BBAB1fU9I4dAlAQQAVG6BaMgED8BRED8PsLCqAggAqJyB8ZAAAKIgKjnACnXonZPxY1DBFR8AjD8xRJABCyWGNdDAAJ9JYAI6CteGodAeQkgAsrrW0bWFwKIgL5gpVEIQKBbAoiAbslxHwQqTgARUPEJwPAXSwARsFhiXA8BCPSVACKgr3hpHALlJYAIKK9vGVlfCCAC+oKVRiEAgW4JIAK6Jcd9EKg4AURAxScAw18sAUTAYolxPQQg0FcCiIC+4qVxCJSXACKgvL5lZH0hgAjoC1YahQAEuiWACOiWHPdBoOIEEAEVnwAMf7EEEAGLJcb1EIBAXwkgAvqKl8YhUF4CiIDi+Zakw0P1GSJgqPjpHAIQeCQBRABzAgIQ6IoAIqArbNxUXQKIgOr6npFDIEoCiIAo3YJREIifACIgfh9hYVQEEAFRuQNjIACBvUQAW8VMCAhAYKEEEAELJcV1EAgEEAFMBAhAICoC7ARE5Q6MgUBxCCACiuMrLI2CACIgCjdgBAQg0CaACGAuQAACXRFABHSFjZuqSwARUF3fiwhnLSrt/kgHjwiI1DGYBYHYCSACYvcQ9kVGABEQmUMwBwJVJ4AIqPoMYPwQ6JIAIqBLcNxWVQKIgKp6nnFDIFICiIBIHYNZEIidACIgdg9hX2QEEAGROQRzIFB1AoiAqs8Axg+BLgkgAroEx21VJYAIqKrnGTcEIiWACIjUMZgFgdgJIAJ67CHiBnsMNLrmEAHRuQSDIFBtAoiAavuf0UOgawKIgK7RcWM1CSACqul3Rg2BaAkgAobiGpb8hoKdTntKABHQU5w0Vn4CiIDy+5gRQqBQBBABhXIXxkIgHgKIgHh8gSWFIPDEIqCIa0NFtLkQUwUjITAYAoiAwXCmFwiUjgAioHQuZUD9JcBOQH/50joEILBIAoiARQLjcghAICNQNhHAoiYzu88EEAF9BkzzEIDA4gggAhbHi6shAIGcQNlEAI6FQJ8JIAL6DJjmIQCBxRFABCyOF1dDAAKIAOZALASKtX2DCIhl3mAHBCAQCCACmAgQgEBXBNgJ6AobN1WXACKgur5n5BCIkgAiIEq3YBQE4ieACIjfR1gYFQFEQFTuwBgIQAARwByAAAS6IoAI6AobN1WXACKgur5n5BCIkgAiIEq3YBQE4ieACIjfR1gYFQFEQFTuwBgIQAARwByAAAS6IoAI6ArbE99UrEDXPgAodZOIgFK7l8FBoHgEEAHF8xkWQyAKAoiAKNyAEcUhgAgojq+wFAKVIIAIqISbGSQEek8AEdB7prRYagKIgFK7l8FBoHgEEAHF8xkWQyAKAoiAKNyAEcUhgAgojq+wFAKVIIAIqISbHzlIDh5X0u09HjQioMdAaa7sBBABZfcw44NAwQggAgrmMMyFQCwEEAGxeAI7CkIAEVAQR2EmBKpCABFQFU8zTgj0mAAioMdAaa7sBBABZfcw44NAwQjMiwBOiBTMdZgLgeESQAQMlz+9F44AIqBwLsNgCJSbADsB5fYvo4PAIgksfDUAEbBItFxedQKIgKrPAMYPgcgIIAIicwjmQKAoBBABRfEUdkZCABEQiSMwAwIQyAggApgJEIBAVwQQAV1h46bqEkAEVNf3jBwCURJABETpFoyCQPwEEAHx+wgLoyKACIjKHRgDAQggApgDEIBAVwQQAV1h46bqEkAEVNf3jBwCURJABETpFoyCQPwEEAHx+wgLoyKACIjKHRjzmAQWnhsCgCUggAgogRMZAgSGQQARMAzq9FlgAoiAAjsP0yFQRgKRiQAkaO8nGUx7z5QWnQAigHkAgUURQAQsChcXQwAC/SYQmQjo93BpHwIQ6BUBRECvSNJORQggAiriaIYJgaIQQAQUxVPYCYHICCACInMI5sROABEQu4ewDwIVI4AIqJjDGS4EekUAEdArkrRTEQKIgIo4mmFCoCgEEAFF8RR2QiAyAoiAyByCObETQATE7iHsg0DFCCACKuZwhguBXhFABPSKJO1UhAAioCKOZpgQKAoBREBRPIWdEIiMACIgModgTuwEEAGxewj7IFBQAt3mgUQEFNThmA2BYRNABAzbA/RfMAKIgII5DHMhUHYCiICye5jxQaBPBBABfQJLs2UlgAgoq2cZFwQKSgARUFDHYTYEhk0AETBsD9B/wQggAgrmMMyFQNkJIALK7mHGB4E+EUAE9AkszZaVACKgrJ5lXBAoKAFEQEEdh9kQGDYBRMCwPUD/BSOACCiYwzAXAmUngAgou4cZHwT6RAAR0CewNFtWAoiAsnqWcUGgoAQQAQV1HGZDYNgEEAHD9gD9F4wAIqBgDsNcCJSdACKg7B5mfBDoEwFEQJ/A0mxZCSACyupZxgWBghJABBTUcZgNgWETQAQM2wP0XzACiICCOQxzIVB2AoiAsnuY8UGgTwQQAX0CS7NlJYAIKKtnGRcECkoAEVBQx2E2BIZNABEwbA/Qf8EIIAIK5jDMhUDZCSACyu5hxgeBPhFABPQJLM2WlQAioKyeZVwQKCgBREBBHYfZEBg2AUTAsD1A/wUjgAgomMMwFwJlJ4AIKLuHGR8E+kQAEdAnsDRbVgKIgLJ6lnFBoKAEEAEFdRxmQ2DYBBABw/YA/ReMACKgYA7DXAiUnUAXIsBvsbJzYXwQgMCTEEAEMEUgsCgCiIBF4eJiCECg3wS6EAH9NmkQ7SNkBkGZPspNABFQbv8yup4TQAT0HCkNQgACSyFQURGwFGTcWxQCSL3+egoR0F++i2qdyb4oXEO6GBEwJPB0CwEIPDYBRAAzAwIQ6IoAIqArbNxUXQKIgOr6npFDIEoCiIAo3YJREIifACIgfh9hYVQEEAFRuQNjIAABRABzAAIQ6IoAIqArbNxUXQKIgOr6npFDIEoCiIAo3YJREIifACIgfh9hYVQEEAFRuQNjIAABRABzAAIQ6IoAIqArbBW9ydNKV/7nBhFQ0dnPsCEQK4HKP5VjdQx2QSB2AoiA2D2EfZEReBIRQIqnyPyFORAoPQFEQOldzAAh0B8CiID+cKXV0hJgJ6C0rmVgECgmAURAMf2G1RAYOgFEwNBdgAHFIoAIKJa/sBYCpSeACCi9ixkgBPpDABHQH660WloCiIDSupaBQaCYBBABxfQbVkNg6AQQAUN3AQYUiwAioFj+wloIlJ4AIqD0Li7jAAmgi8GriIAYvIANBSKACCiQszAVAlUggAiogpcZIwT6QAAR0AeoNFlmAoiAMnuXsUGggAQQAQV0GiZDIAYCiIAYvIANBSKACCiQszAVAlUggAiogpcZIwT6QAAR0AeoNFlmAoiAMnuXsUGggAQQAT10GifVewiTpqIngAiI3kUYGBcBREBc/sAaCFSeACKg8lMAABDojgAioDtu3FVZAoiAyrqegUMgTgKIgDj9glUQiJ4AIiB6F2FgXAQQAXH5A2sgUHkCiIDKTwEAQKA7AoiA7rhxV2UJIAIq63oGDoE4CSAC4vQLVkEgegKIgOhdhIFxEUAExOUPrIFA5QkgAio/BQAAge4IPIYIaKlqYiai2ZOF50t3aLmrnAQQAeX0K6OCQGEJ8CNdWNdhOASGS6AtAk5aP/1XmtrxZtZwESAmNVEzMXUZwDNmuG6i93gIIALi8QWWQAACrNQxByAAgW4JjI1ZbXJSWyetn96YpPZOE3thvgswK6YjpqYqajxnuiXMfSUjgAgomUMZDgSKToBVuqJ7EPshMEQCExOWTExoumnN7ueKpm8wsc1mcpCoNX0TwMzqqmqSSQGeN0P0FV0PnQAiYOguwAAIQKCTAD/KzAcIQGBJBFavtvrUlDa9kY3rpn9LLB0Xk43hvV91VkxGQpiAmlmmBHjuLIk4NxeUACKgoI7DbAiUlQA/xmX1LOOCwAAJ+I7A1JQkLgb8mNCyh2fWiNrbzOw38rf+lojWRExCtEAWOczzZ4A+oquhE0AEDN0FGAABCLATwByAQCEJ+Duzr6/H++ncFdiy/ic/05QHXiWpvs9MnpnbngkAEzHN9wUQA0t2aPwzY8lDLEMDiIAyeJExQKBEBFiJK5EzGQoE4iBgOjEh6rECbs/vr717RSKzZyQirxORmh8KEpVUPZGoiZqaxxATM/Ao5xFTHcd87pkViICeoXzihhDFAwJNN4UngAgovAsZAARiJRDe7Oe2LjYed/evSm32I5LKb/tRoBAtrNJS04RMQrH6ELt6SAAR0EOYNAUBCCydACJg6QxpAQIQWASBk9bOnCySvl1FVubHgjyTUCIiSQgd9mxCHBFaBFEuLQgBREAPHMUqfw8g0gQEcgKIAKYCBCAwMALtlKKvH7vrgPsazTOtZSeZ2LPdANWkIWJ1Mw8bQAgMzCntjni76jdyREC/CdM+BCCwKAKIgEXh4mIIQGCpBLIiY5L6iaAt63b/YjNtvUVUTjST/USs6QpAxGpZ5HCWaHSpfXI/BCIggAiIwAmYAAEIzBPgx5XZAAEIDIXA2Nito5OTK2e98y0bpn+v2ZQ3mdgxnjpIJWmIsiswFMfQab8IIAL6RZZ2IQCBrgggArrCxk0QgEAvCPiugLczOamtk0760VP0/tn1Juk7xOxFYpLm6UQ9cNjLjLWDjHlu9QI+bQyaACJg0MTpDwIQeEIC/JgyQSAAgaET6KwvcNLxdzxLLDlZW3amme0X0oma5llEJas7TMzA0H2GAYsmgAhYNDJugAAE+kkAEdBPurQNAQgsgsDe9QVe9YrpF9Zn7d0m8uq58ACRNAsbNi8zQBahRdDl0qETQAQM3QUYAAEIdBJABDAfIACByAg8or7Ahl0vVZOzLZVfDW/92VZAxx/DY6yazzIy+kQ2d5/QHERAkbyFrRCoAIFq/nBWwLEMEQJlI3DS+pk/SSx9s5kd7kWHRcQzCbXrC/gGQXXFQNmcXc7xIALK6VdGBYHCEkAEFNZ1GA6B6hF41do7D0mkMaGiYyLyDH+rysVAPQ8VCGWIK7szUL0pUaQRIwKK5C1shUAFCCACKuBkhgiBMhDI6gtoy8eyacPMUdayN4rY8Xml4VlVqYlojcDhMni7lGNABJTSrQwKAsUlgAgoru+wHAIVJGA6Pr6zvnXrkQ0T05PXzbwqNXudmfxmgKHWUNGwK+DBAx49XEFIDDlOAoiAQfmFWJlBkaafghPgB7LgDsR8CFSRQJZSVFr+1u9HhGrS+n0RO03MVphoGl79zZI8s2gbEc+7Kk6WeMaMCIjHF1gCAQhwbpY5AAEIFJnA+KpbRrbuPLLhYzh5/Q9/NrXam1OzN0nIHaSm5vsFQRG0Cw2QVrTIDi+27YiAYvsP6yFQOgKsjJXOpQwIAtUiMDFhycSEv/ZnFYU3vWL6SJu1c0Ttt/NTQa4IUj8gJCZBGfgfWQSp1jyJYLSIgAicgAkLIMBxqgVAKscliIBy+JFRQKDyBDIxoKmD8CDifWenX5mm8n5Te4HLAxNJPURARZL8bQwhUPlZM1AAiICB4l5CZ7wELwEetxaJACKgSN7CVghAYFEExtdM7/dQYu9ITcbV5FCXApbVF/AsQqH2MDsCi0LKxd0TQAR0z447IQCBPhBABPQBKk1CAAKxEMiqD2/aMP2fpCnvMrU1InKgmaWqmopJ3TQ7NIQYiMVnpbUDEZC7loX20s5xBlYwAoiAgjkMcyEAgcUR6KwvsHH99PrE9I2ppf891BlTmfWUoiKWmGkWQ5xXG1tcL1wNgSclgAh4UkRcAAEIDJIAImCQtOkLAhAYCgGPF5iakmRqSptverkt+8nI9P8QtVMl1V8IB4Qkaaha3WWBZtXGEAND8VSpO0UElNq9DA4CxSOACCiez7AYAhDokkBWX0CbfvuW9TPPabXS15jKW0TsQLMQK5CYSJILAZ6PXXLmtsckgAhgYkAAAlER4EcuKndgDAQg0H8CpuOrdtbb9QW2rL/jlxsmbxXTTV5XwIsKzBUaJqVo/91RnR4QAdXxNSOFQCEIIAIK4SaMhAAEek2gM1ZgfNxGHrjrzpdoq3WOia2a60vFIwXECwuoZEEExAz02hOVaQ8RUBlXM1AIFIMAIqAYfsJKCECgTwQ66wu86eXfXXbP6IGnmrXONJNDPDTAxNI8XtjrCwhpRfvkiPI3iwgov48ZIQQKRQARUCh3RWwsOd8idg6mLZbAa8buO6i5574PWionWGJPDbHDYtQXWCxIru8kgAhgPkAAAlERQARE5Q6MgQAEhk8gqy3gdpy0Zvevi6bvUZHfEUtHRKQV4gXMaqZ+UCh8eI4O32nzngiei/KDCIjSLRgFgeoS4Merur5n5BCAwBMQ6MwktGn99KbU7HVi8l/9gJCIzqrYSFZ0OPsXwITAkxBABDBFIACBqAjwwxWVOzAGAhCIiYDHC9x6q+jkpLZeMzZzUGPW/oekNi5iR5hoK48WroesQkrV4Zh8F6EtiIAInYJJ3RPgFHD37JZ0Zw/BIwKW5AluhgAEqkBgfNUtI+2UohuPu/M/a615Smr2ejGpqUhDNFQddi3gewOOhGdrFSbG4saICFgcL66GAAT6TIAfqj4DpvkeEOih6u2BNTRRUQKdVYcdwcb1t6+WVE8z0Zdn2UPVswiFZ2qWRIhjQhWdKo83bEQAEwICEIiKACIgKndgDAQgEDuBzvoCW7b8+z7Ne0Y3WGofUtHneApRDyrOYoeDEmhL2HiftYjsQU05RMCgSNMPBCCwIALx/jAtyHwuggAEIDAcAnvVFzjpR0/5yX173iZibxGRA3IBkOaRAuoHhZRCY8NxVDy9IgLi8QWWQAACnFtlDkAAAhDoHYFNa3Y/1zT9iIgdZ2b75NEBTRGthS0CC/mEvEMWYHqHvSgtIQKK4inshEAvCBRgl5Ufol44mjYgAAEIdBDYvH7m5WmanikivxlOCIk1RDRRlRpVhys7VRABlXU9A4dAnAQQAXH6BasgAIGCEmjXF/DYgZHZXX+UiLxWTH8hrzo8K6oj2YYAKUUL6uJuzUYEdEuO+yAAgb4QQAT0BSuNQgACVSbgAmDlSrGJCU23rJ95Tmryh6mlf2BmzxCRZl5irBZiBUKBYo4HVWC+IAIq4GSGCIEiEUAEFMlb2AoBCBSKwPj4LSNbtx7ZcKM3rdv9a2bNN4rpRvNtAZWmmroQUBV2BQrl2O6MRQR0x427IACBPhFABPQJLM1CAAIQcAKdVYff9PLvLrtn9MDflTR9l4n9lzxrkEcNJFmhMb8jpBn1P/B8LtcUQgSUy5+MBgKFJ8CPTOFdyAAgAIEiEOisL3DK2O1P37OnfqJZ630i+szw4q8S0ohmccTEDBTBp4u0ERGwSGBcDgEI9JcAIqC/fGkdAhCAQAcBDwAIi/zhXX/z2O2HpbPJmWJyipkt87V/NU1DjEAoLcAxoeinz8LTACIConcmBkKgWgQQAdXyd4lHu/Bf4hJDYGiFIRCigYMQ8M+W42de3GraOWb2W6JWz44GaSomCTEDhXHqkxmKCHgyQvx3CEBgoAQQAQPFnXfG++owqNMnBKInsGnNzBZLWn/iKUW9noCoNDQUGrMk5BHKntg8t6P35GMaiAgopt+wGgKlJcCPSWldy8AgAIEiEfAAYk8pOjZ21wGjs83TxewkNXlOyCQkOqsqIy4LvOywUHW4SK5t24oIKKLXsBkCJSaACCixcxkaBCBQLALtQmNu9aYNu39BWukbTNKTRWRfM3EhUDPRmoZdAuIFiuVdQQQUzGGYC4GyE0AElN3DjA8CECgYAdOxsdtGJidXzgYxsG76ZZbaG0RlTXZCyBqiWqfqcMHc6jmfsqxPoqkese26FT8s3AgwGAIQKBUBRECp3MlgIACBshDorDr82rV3HzgrjbUi9m4z+3kfo2Y7Af5m6X9W/xP1BaL2PiIgavdgHAQKQKDHMaWIgAL4HBMhAIHqEug8IrTx+B8sl3TkVEnlHWa2T04lDxhuhwtwTCjS2YIIiNQxmAWBqhJABFTV84wbAhAoEIG96wu8duzun2/s2fMhEz0+ZBEKCYMs9R2BcOTE04+SSegx/DtXjXkYvkcEDIM6fUIAAo9LABGwlMnR422ZpZjCvRCAQI8JRPn93ru+wMYNu14qTf2wqK3yqsNmmmooOmweQDynHHpMhua6I4AI6I4bd0EAAn0igAjoE9j+NRvlm0n/hkvLEIDAkxAw3bR+5s2WyhtN7Gez0ICkoeJFx0Ig6lCXv3HfHIEBiwB+K5h7EIDAExNABDBDIAABCBSWgOnEhKjXF3jNul2HN1ROk1ROELODTSRVTVom6UjYEwg7BBQaG6KrBywChjhSuoYABApBABFQCDdhJAQgAIHHJ7B3fYGZo7SVvj4VGcvjA2ZFpS4miamZZjqAZ//gJxQiYPDM6RECEHgCAvwQMD0gAAEIlICAVxyevnZnbevOIxv+8r953fSJJuGI0G/kewANFa2bmO8J+DkhxMBg/Y4IGCxveoMABJ6EACKAKQIBCECgRAQ6dwVetWb6mYnYq1TknaJyiJmlKp48yJMJiZjmmYTYGRjEDEAEDIIyfUAAAgsmgAhYMCouhAAEIFAUAqarV0ttakqbbvGW9TPPaaWtN5voH/vfQ1pR9S2BoAb8kFBea4BjQn30MCKgj3BpGgIQWDwBRMDimXEHBCAAgUIQ8CNCHjTcNnbT2ruPEJcD4QAAEBtJREFUNGt81DRd7cHClp0T8rSinkKoXW3ML+e3ofceRgT0niktQgACSyDAg34J8LgVAhCAQDEI7F1f4KR106/W1M4StednOwPS8vxBpppo2CUgrWgf/IoI6ANUmoQABLongAjonh13QgACECgsgdeP3XXA/bONd6Wmm01seVZjTBqiSn2B/ngVEdAfrrQKAQh0SQAR0CU4boMABJ6MAMWKnozQ8P77XDFhO3nNzMo0sTNTs7VidoCItEKBMZM6KUV76iFEQE9x0hgEILBUAoiApRLkfghAAAIFJTC+yka27tSGm3/Sht3Haav1BhH5vTxweFZFR8zENUGIJCZWYEmORgQsCR83QwACvSaACOg1UdqDAAQgUCACHjw8NSWJZxLa9Lu795f901dbmv6RpPoLJuZBw6l4fYFcDSAEunYuIqBrdNwIAQj0gwAioB9UaRMCEIBAwQjsVXV4ze7nqtrGVNLTzOQAEWuqaq2dQShUF8jGx2/Iwv2MCFg4K66EAAQGQIAH+AAg0wUEIACBYhAwHRuTZHJSW27vxg13/mdNW6eZ2auznQBPJJRXFzAvOkwWoUX4FRGwCFhcCgEI9J8AIqD/jOkBAhCAQKEIPLK+wMYNu14qLf3o/9/e/f7IVdVxHP987+5SFBACqYgEUEkgoSZq2hh+xFhNjIB0u8UMD2h3W344VCjhR30gieLaqPHHf7APfGJiTEhMNP4B+we0iYnpI00fgN3dstGQSCKdnblfc86dpdtK6c7OnZl77n3zgAYyc+85r3M6s58995yv5F8KMSBWFzDL+ysDoQhx/F9JdXL8jSUEDGzO4QIDk/EGBAYQ4EN7ACxeigACCDRL4FJ9gRAMzv31wkt5nr8h+R1xZUDqhTQgeUbV4WvODELANYl4AQIIjFOAEDBObe6FAAIIJC7wTGt1d/di/nOXPeXym8PKgGRdM01xktDHDi4hIPG5T/MRqJtAaSGARbu6TQ36gwACCFwpcGll4MjBCw+bd99w6VHJp921YWaZFMJAca4ojwhd5kcI4C8UAghUSqC0EDDSXpEwRsrLxRFAAIFBBNrt0zNLS/tifYEjB88/49L3lOuhUHLYpI4s1Bdg4/AVpoSAQSYZr0UAgZELpBECRs7ADRBAAAEEBhFotXwqvD6cJPT87IXbP/DuMTO9lMvvMrdc8SQhTRV/UGhMEiFgkAnGaxFAYOQChICRE3MDBBBAoL4C7b2nZ5bOFKsCRw+s7nHT8Z73ToSf++PGYcVHhKz/E7DC2ULhOKH6ily1Z4SABg46XUagygKlfBDztE6Vh5i2NUKAv4SNGOaqdjKcHHT2rGyzvsDCExce6mW9n8j92+ERofBb8OIQodgDc3Pvlxsr5Tuoqi5XtIsQkMhA0UwEmiLQpA/gpowp/UQAAQQmIrC1vsDLj/mu92bOz0r6pcu+EDYLh0eETBYXAzzmgkZtHiYETGRWclMEELiaACGAuYEAAgggULLApVOEXj78r0+99/4HJ/NcJ0y6NS4GmPdMljVs8zAhoORZxuUQQGA4AULAcH68GwEEEEBgGwILj6/f59MbP3P543LdEJcDzLr9I0WbsCpACNjGPOElCCAwPgFCwPisuRMCCCDQUIEt9QXmVuaU6wdS/kisM6ZYXyAUGsssbB8O24b7xwnVDIsQULMBpTsIpC5ACEh9BEtqP/tKS4LkMgggcBUBt1ZLWdg83G77zH8vnD/hbs9LeqAoLqaOZDNxr4BbLDhQs2JjhAD+biCAQKUECAGVGg4agwACCNRbYP9+n15ejo8B6djc6ud66rU9t++76xbJY9Vhl0/JzfsHidble4oQUO+pTe8QSE6gLh+uycHTYAQQQKC5Am7tvWemN+sLHD6w9mCWdV9013xxiJB1ZZpSPEnU4lND/S+rlL+zCAHNnfD0vOYCqT5NkfIHas2nFN1DAAEE6i0Qqg7v2SNfXLT85cf+vuvfu278puX5KbnvK04RCieJxg3EocRAKD5c1BtIc88AIaDe05neIZCcACEguSGjwQgggEC9BEIY2Cw09uzs+k0b1llw10/lflssLhyLDBQVx+K6QJr1BQgB9Zq29AaB5AUIAckPIR1AAAEE6iAQThCKv+SPP/Afa737md7FjVMuHXbXJ+MCgHtPYc9A3Dac3KoAIaAO05Q+IFAjAUJAjQaTriCAAAJ1E5ifXdnXy/wXWa5vuPu0pLxfaTgUG4uPCiXyeBAhoG6Tk/4gkLgAISDxAaT5CCCAQF0FFhc9C/sFQv/m51bmveevyLS3/3RQx8ymN+sL9LcJVPk7jRBQ14lKvxBIVKDKH5iJktJsBBBAAIHyBC7VF3iu9c6tnU72iktH5bqn+Kla3VhfoFgV2HKQUHktKOlKhICSILkMAgiUI0AIKMeRqyCAAAIIjFBga32BhdnzX8nNXlDux1zaJXmxKiDPKlxojBAwwvnBpRFAYHABQsDgZrwDAQQQQGAiApfXFzgyu/Komb/i7o8WJQXCqkBRXyDWHS7aWJXvOULAROYMN0UAgasJVOXDkRFCAAEEEEBgWwJbjxR9sfXuje93urO565QrvzcUFAgVBSz8S65YdziWGZh4GCAEbGt06/eiVAtJ1W8k6NGVAoQA5gQCCCCAQJICW8PAwqF/3taTvWQ9vSH364uf+i0eJlpkgbhWMMmVAUJAkrOMRiNQXwFCQH3Hlp4hgAACDRAIT/0UtQXCP0fn3r6359mvlOuQm7L+GkDPZFksQjC5qsOEgAbMRrqIQEoChICURou2li5QiWXaSjSidFouiMBEBcJ+ASk/Jdm+uBIg78W1AdPUhE4SIgRMdEZwcwQQuFKAEMCcQAABBBComUCxOhDqDPzjzNrrsvx5SffLwy4B9esLeDbmI0UJATWbZXQHgdQFCAGpjyDtH7EAv6YfMTCXR2AkAiEAnD0re+st680/sXK3Mr3m8sPuvlum3BSKkPl0cZBQbMKovw8JASMZaS6KAAI7FRj1h95O28X7EEAAAQQQGFqg3T49s7S0byNc6Ojs+Udy14suPR3XBGQdM82Maa8AIWDo0eQCCCBQpgAhoExNroUAAgggUDmBsCqwvKxsedm6i/t9+tzNa3O55yclf9CLLcXdWGxstFWHCQGVmxk0CIFmCxACmj3+9B4BBBBojMDWqsPzh9Y+7b3eU5LelLTb3XMzs7BvoCg0EAsMlFlfgBDQmJlGRxFIQ4AQkMY40UoEEEAAgVIE3FotZWGvQLjc/IG1z+dZ76Rcx819ql9mOGSA8MBQ2Dsc/ggvHfb7khBQyvhxEQQQKEtg2A+1strBdRBAAAEEEBijwOX1BRbmVr+au/9G7l8LR4r2Sw+EY0WzorTA0KsChIAxji63QgCBawsQAq5txCsQQAABBBoisDC7csSlH+fu9xVd9rBfIHMpC5XGQqGBHa4KEAIaMofoJgKpCFQ6BHA4YyrTqJx2Mt7lOHIVBBAYTuC11jufWO9M/UjuRyXdGX/2lzZkNq3iTNH+U0MDPSJECBhuWHg3AgiULFDpEFByX7kcAggggAACHysQThJaXAw1BKTnDq19sZP3Trqr5dINcg9BIKwF7OQkIUIAcw8BBColQAio1HDQGAQQQACBKgi0956eWTpT1BeYP7h2wD1/QZ5/J/y3m3VMmgmrAtr+XgFCQBUGljYggMCHAoQAJgMCCCCAAAIfIdBq+dT6uizUF3h2dv2mrjqtXDrp7g+YwvbhWHV4aptVhwkBzDIEEKiUACGgUsNBYxBAAAEEqiawterw00+u3JN17Zgr/6Hcr5csjwUF4nmiHhYHYrWBj9g8TAio2sDSHgQaLkAIaPgEoPsIIIAAAtsRcFtclG3uFzh6YHVPz/I3JX9q86mgzRWBLUeKhgtvfs8SArbDzGsQQGBsAoSAsVFzIwQQQACB1AW2bhwOfTl26MK3ur3uryV9OVQbdsVSw8VhoubWDwbx8LN+OAhrB/f87i+ffTt1C9qPAAJpC+w8BHCeY9ojT+sRQAABBEoR2L/fp++6ZfWEcn89d78r/vrf1A2FxiSFYmPhIaGQAuKzQoSAUti5CAIIDCmw8xAw5I15OwIIIIAAAnUSOPLk+h3qXlx02Xflui3sHZa0YWbhSNF+mTFCQJ3GnL4gkLIAISDl0aPtCCCAAAKVENj6mND8odWve+6vyv0JFTUFOmY2JddUqDKW8ThQJcaMRiDQdAFCQNNnAP1HAAEEEChJwK2998z0h/UF5lbmlftxdz3sFg8MCvUFruNxoJK4uQwCCAwlQAgYio83I4AAAgggcLlA2COwvKyeZP5Ma3X3xkWfl/x1ue4MYaBndvcf/nTnO7ghgAACkxQgBExSn3sjMFYBdvOPlZubNV6g3faZpSWLVYefnV2/f0Mbx9391Xxm+t7f//H2c40HAgABBCYqQAiYKD83RwABBBCos0DYKxD6V9QXcDty8N2HrvPsb7/98+7/1Lnf9A0BBKovQAio/hjRQgQQQACBxAWurC+QeHdoPgII1ECAEFCDQaQLCCCAAAIIIIAAAggMIkAIGESL1yKAAAIIIIAAAgggUAMBQkANBpEuIIAAAggggAACCCAwiAAhYBAtXosAAggggAACCCCAQA0ECAE1GES6gAACCCCAAAIIIIDAIAKEgEG0eC0CCCCAAAKVEqD+R6WGg8YgkJAAISChwaKpCCCAAAIIIIAAAgiUIUAIKEORayCAAAIIIIAAAgggkJAAISChwaKpCCCAAAIIIIAAAgiUIUAIKEORayCAAAIIIIAAAgggkJAAISChwaKpCCCAAAIIIIAAAgiUIUAIKEORayCAAAIIIIAAAgggkJAAISChwaKpCCCAAAJjEODUzTEgcwsEEJi0ACFg0iPA/RFAAAEEEEAAAQQqLlC/3w4QAio+5WgeAggggAACCCCAwCQE6veD/1ZFQsAk5hT3RAABBBBAAAEEEEBgggKEgAnic2sEEEAAAQQQQAABBCYhQAiYhDr3RAABBBBAoLEC9X7EorHDSseTEyAEJDdkNBgBBBBAAAEEEEAAgeEECAHD+fFuBMYrwC/QxuvN3RBAAAEEEKipACGgpgNLtxBAAAEEEEAAAQQQuJoAIYC5gQACCCCAAAIIIIBAwwQIAQ0bcLqLAAIIIIAAAggggAAhgDmAAAIIIIAAAggggEDDBAgBDRtwuosAAggggAACCFRXgBMwxjU2hIBxSXMfBBAYjQDfF6Nx5aoIIIAAArUWIATUenjpHAIIIIAAAggggAAC/y9ACGBWIIAAAggggEBFBFjaq8hA0IwGCBACGjDIdBEBBBBAAAEEEEAAga0ChADmAwIIIIAAAggggAACDRO4SghgOa5h82Bk3WUmjYyWCyOAAAIIIIAAAjsWYCVgx3S8EQEEEEAAAQQQQACBNAUIAeMaN34lPi5p7oMAAjsR4DNqJ2q8BwEEEEhWgBCQ7NDRcAQQQAABBBBAAAEEdiZACNiZG+9CAAEEEEAAAQQQQCBZgf8BiA1dCazizS0AAAAASUVORK5CYII=;container=0;" parent="_BLZTxVhf-Pt93lIt7vx-6" vertex="1">
          <mxGeometry x="55.780000000000015" width="48.43" height="50" as="geometry" />
        </mxCell>
        <mxCell id="_BLZTxVhf-Pt93lIt7vx-8" value="Terraform&lt;br&gt;(&lt;i&gt;Infrastructure Management&lt;/i&gt;)" style="text;html=1;strokeColor=none;fillColor=none;align=center;verticalAlign=middle;whiteSpace=wrap;rounded=0;container=0;" parent="_BLZTxVhf-Pt93lIt7vx-6" vertex="1">
          <mxGeometry y="50" width="160" height="30" as="geometry" />
        </mxCell>
        <mxCell id="_BLZTxVhf-Pt93lIt7vx-9" value="" style="group" parent="1" vertex="1" connectable="0">
          <mxGeometry x="-80" y="872" width="100" height="80" as="geometry" />
        </mxCell>
        <mxCell id="_BLZTxVhf-Pt93lIt7vx-10" value="" style="html=1;verticalLabelPosition=bottom;align=center;labelBackgroundColor=#ffffff;verticalAlign=top;strokeWidth=2;strokeColor=#0080F0;shadow=0;dashed=0;shape=mxgraph.ios7.icons.document;container=0;" parent="_BLZTxVhf-Pt93lIt7vx-9" vertex="1">
          <mxGeometry x="33.129999999999995" width="33.75" height="50" as="geometry" />
        </mxCell>
        <mxCell id="_BLZTxVhf-Pt93lIt7vx-11" value="Network map of range&amp;nbsp;" style="text;html=1;strokeColor=none;fillColor=none;align=center;verticalAlign=middle;whiteSpace=wrap;rounded=0;container=0;" parent="_BLZTxVhf-Pt93lIt7vx-9" vertex="1">
          <mxGeometry y="50" width="100" height="30" as="geometry" />
        </mxCell>
        <mxCell id="_BLZTxVhf-Pt93lIt7vx-12" style="edgeStyle=none;rounded=0;orthogonalLoop=1;jettySize=auto;html=1;exitX=1;exitY=0.5;exitDx=0;exitDy=0;entryX=0;entryY=0.5;entryDx=0;entryDy=0;" parent="1" target="_BLZTxVhf-Pt93lIt7vx-8" edge="1">
          <mxGeometry relative="1" as="geometry">
            <mxPoint x="23" y="937" as="sourcePoint" />
          </mxGeometry>
        </mxCell>
        <mxCell id="_BLZTxVhf-Pt93lIt7vx-13" value="" style="group" parent="1" vertex="1" connectable="0">
          <mxGeometry x="354.25" y="840" width="153" height="122" as="geometry" />
        </mxCell>
        <mxCell id="_BLZTxVhf-Pt93lIt7vx-14" value="" style="shadow=0;dashed=0;html=1;strokeColor=none;fillColor=#4495D1;labelPosition=center;verticalLabelPosition=bottom;verticalAlign=top;align=center;outlineConnect=0;shape=mxgraph.veeam.vsphere_server;" parent="_BLZTxVhf-Pt93lIt7vx-13" vertex="1">
          <mxGeometry x="38.5" width="76" height="72" as="geometry" />
        </mxCell>
        <mxCell id="_BLZTxVhf-Pt93lIt7vx-15" value="vCenter&lt;br&gt;(&lt;i&gt;Resource Management and Virtualization&lt;/i&gt;)" style="text;html=1;strokeColor=none;fillColor=none;align=center;verticalAlign=middle;whiteSpace=wrap;rounded=0;" parent="_BLZTxVhf-Pt93lIt7vx-13" vertex="1">
          <mxGeometry y="72" width="153" height="50" as="geometry" />
        </mxCell>
        <mxCell id="_BLZTxVhf-Pt93lIt7vx-16" style="edgeStyle=none;rounded=0;orthogonalLoop=1;jettySize=auto;html=1;exitX=1;exitY=0.5;exitDx=0;exitDy=0;entryX=0;entryY=0.5;entryDx=0;entryDy=0;" parent="1" source="_BLZTxVhf-Pt93lIt7vx-8" target="_BLZTxVhf-Pt93lIt7vx-15" edge="1">
          <mxGeometry relative="1" as="geometry" />
        </mxCell>
        <mxCell id="_BLZTxVhf-Pt93lIt7vx-17" style="edgeStyle=none;rounded=0;orthogonalLoop=1;jettySize=auto;html=1;exitX=1;exitY=0.5;exitDx=0;exitDy=0;entryX=0.75;entryY=0;entryDx=0;entryDy=0;jumpStyle=none;fillColor=#d5e8d4;strokeColor=#82b366;" parent="1" source="_BLZTxVhf-Pt93lIt7vx-18" target="_BLZTxVhf-Pt93lIt7vx-7" edge="1">
          <mxGeometry relative="1" as="geometry">
            <Array as="points">
              <mxPoint y="640" />
              <mxPoint x="207" y="640" />
              <mxPoint x="207" y="760" />
            </Array>
          </mxGeometry>
        </mxCell>
        <mxCell id="_BLZTxVhf-Pt93lIt7vx-18" value="Build range [A] for [#] students" style="rounded=0;whiteSpace=wrap;html=1;container=0;fillColor=#d5e8d4;strokeColor=#82b366;" parent="1" vertex="1">
          <mxGeometry x="-245" y="490" width="145" height="30" as="geometry" />
        </mxCell>
        <mxCell id="_BLZTxVhf-Pt93lIt7vx-19" value="Run [BS] training mission for class [00000]" style="rounded=0;whiteSpace=wrap;html=1;container=0;fillColor=#fff2cc;strokeColor=#d6b656;" parent="1" vertex="1">
          <mxGeometry x="-245" y="525" width="145" height="50" as="geometry" />
        </mxCell>
        <mxCell id="_BLZTxVhf-Pt93lIt7vx-20" style="edgeStyle=none;rounded=0;orthogonalLoop=1;jettySize=auto;html=1;exitX=1;exitY=0.5;exitDx=0;exitDy=0;entryX=0.25;entryY=0;entryDx=0;entryDy=0;" parent="1" source="_BLZTxVhf-Pt93lIt7vx-21" target="_BLZTxVhf-Pt93lIt7vx-35" edge="1">
          <mxGeometry relative="1" as="geometry">
            <Array as="points">
              <mxPoint x="-20" y="510" />
            </Array>
          </mxGeometry>
        </mxCell>
        <mxCell id="_BLZTxVhf-Pt93lIt7vx-21" value="Create Class [00000] project" style="rounded=0;whiteSpace=wrap;html=1;" parent="1" vertex="1">
          <mxGeometry x="-245" y="450" width="145" height="30" as="geometry" />
        </mxCell>
        <mxCell id="_BLZTxVhf-Pt93lIt7vx-22" value="Destroy Class [00000] ranges and project" style="rounded=0;whiteSpace=wrap;html=1;container=0;" parent="1" vertex="1">
          <mxGeometry x="-243.75" y="820" width="143.75" height="30" as="geometry" />
        </mxCell>
        <mxCell id="_BLZTxVhf-Pt93lIt7vx-23" value="" style="group" parent="1" vertex="1" connectable="0">
          <mxGeometry x="-433" y="680" width="128" height="88" as="geometry" />
        </mxCell>
        <mxCell id="_BLZTxVhf-Pt93lIt7vx-24" value="" style="shape=image;html=1;verticalAlign=top;verticalLabelPosition=bottom;labelBackgroundColor=#ffffff;imageAspect=0;aspect=fixed;image=https://cdn2.iconfinder.com/data/icons/people-80/96/Picture7-128.png" parent="_BLZTxVhf-Pt93lIt7vx-23" vertex="1">
          <mxGeometry x="25" width="78" height="78" as="geometry" />
        </mxCell>
        <mxCell id="_BLZTxVhf-Pt93lIt7vx-25" value="Instructors" style="text;html=1;strokeColor=none;fillColor=none;align=center;verticalAlign=middle;whiteSpace=wrap;rounded=0;" parent="_BLZTxVhf-Pt93lIt7vx-23" vertex="1">
          <mxGeometry y="68" width="128" height="20" as="geometry" />
        </mxCell>
        <mxCell id="_BLZTxVhf-Pt93lIt7vx-26" style="edgeStyle=none;rounded=0;orthogonalLoop=1;jettySize=auto;html=1;exitX=1;exitY=0.5;exitDx=0;exitDy=0;entryX=0;entryY=0.5;entryDx=0;entryDy=0;" parent="1" source="_BLZTxVhf-Pt93lIt7vx-24" target="_BLZTxVhf-Pt93lIt7vx-21" edge="1">
          <mxGeometry relative="1" as="geometry">
            <Array as="points">
              <mxPoint x="-280" y="500" />
            </Array>
          </mxGeometry>
        </mxCell>
        <mxCell id="_BLZTxVhf-Pt93lIt7vx-27" style="edgeStyle=none;rounded=0;orthogonalLoop=1;jettySize=auto;html=1;exitX=1;exitY=0.5;exitDx=0;exitDy=0;entryX=0;entryY=0.5;entryDx=0;entryDy=0;" parent="1" source="_BLZTxVhf-Pt93lIt7vx-24" target="_BLZTxVhf-Pt93lIt7vx-18" edge="1">
          <mxGeometry relative="1" as="geometry">
            <Array as="points">
              <mxPoint x="-280" y="550" />
            </Array>
          </mxGeometry>
        </mxCell>
        <mxCell id="_BLZTxVhf-Pt93lIt7vx-28" style="edgeStyle=none;rounded=0;orthogonalLoop=1;jettySize=auto;html=1;exitX=1;exitY=0.5;exitDx=0;exitDy=0;entryX=0;entryY=0.5;entryDx=0;entryDy=0;" parent="1" source="_BLZTxVhf-Pt93lIt7vx-24" target="_BLZTxVhf-Pt93lIt7vx-19" edge="1">
          <mxGeometry relative="1" as="geometry">
            <Array as="points">
              <mxPoint x="-280" y="590" />
            </Array>
          </mxGeometry>
        </mxCell>
        <mxCell id="_BLZTxVhf-Pt93lIt7vx-29" style="edgeStyle=none;rounded=0;orthogonalLoop=1;jettySize=auto;html=1;exitX=1;exitY=0.5;exitDx=0;exitDy=0;entryX=0;entryY=0.5;entryDx=0;entryDy=0;" parent="1" source="_BLZTxVhf-Pt93lIt7vx-24" target="_BLZTxVhf-Pt93lIt7vx-22" edge="1">
          <mxGeometry relative="1" as="geometry">
            <Array as="points">
              <mxPoint x="-280" y="820" />
            </Array>
          </mxGeometry>
        </mxCell>
        <mxCell id="_BLZTxVhf-Pt93lIt7vx-30" value="&lt;b&gt;Example Range for&lt;br&gt;00000-1&amp;nbsp;&lt;/b&gt;&lt;br&gt;(i.e. Range for student 1 in class 00000" style="text;html=1;strokeColor=none;fillColor=none;align=center;verticalAlign=middle;whiteSpace=wrap;rounded=0;dashed=1;" parent="1" vertex="1">
          <mxGeometry x="273.36" y="560" width="216.88" height="50" as="geometry" />
        </mxCell>
        <mxCell id="_BLZTxVhf-Pt93lIt7vx-31" style="edgeStyle=none;rounded=0;orthogonalLoop=1;jettySize=auto;html=1;exitX=1;exitY=0.5;exitDx=0;exitDy=0;entryX=0.62;entryY=1.014;entryDx=0;entryDy=0;entryPerimeter=0;" parent="1" source="_BLZTxVhf-Pt93lIt7vx-15" target="_BLZTxVhf-Pt93lIt7vx-58" edge="1">
          <mxGeometry relative="1" as="geometry">
            <Array as="points">
              <mxPoint x="561" y="937" />
            </Array>
          </mxGeometry>
        </mxCell>
        <mxCell id="_BLZTxVhf-Pt93lIt7vx-32" value="Reset [00000]-[1] / [2]" style="rounded=0;whiteSpace=wrap;html=1;container=0;fillColor=#e1d5e7;strokeColor=#9673a6;" parent="1" vertex="1">
          <mxGeometry x="-243.75" y="780" width="143.75" height="30" as="geometry" />
        </mxCell>
        <mxCell id="_BLZTxVhf-Pt93lIt7vx-33" value="" style="group" parent="1" vertex="1" connectable="0">
          <mxGeometry x="-10" y="630" width="122" height="100" as="geometry" />
        </mxCell>
        <mxCell id="_BLZTxVhf-Pt93lIt7vx-34" value="Ansible Semaphore&lt;br&gt;(&lt;i&gt;Orchestration&lt;/i&gt;)" style="text;html=1;strokeColor=none;fillColor=none;align=center;verticalAlign=middle;whiteSpace=wrap;rounded=0;container=0;" parent="_BLZTxVhf-Pt93lIt7vx-33" vertex="1">
          <mxGeometry y="66.66666666666667" width="122" height="33.333333333333336" as="geometry" />
        </mxCell>
        <mxCell id="_BLZTxVhf-Pt93lIt7vx-35" value="" style="shape=image;verticalLabelPosition=bottom;labelBackgroundColor=#ffffff;verticalAlign=top;aspect=fixed;imageAspect=0;image=data:image/png,iVBORw0KGgoAAAANSUhEUgAAAjgAAAIYCAYAAABg2ZbAAAAAAXNSR0IArs4c6QAAIABJREFUeF7tnYuVVEmSba0l6EKCoSToRIIBCTqRYKokqEwJAAnIkaBoCWAkgJYAWoEpRgLqSdBvnSSiKggiMu7H/fox9+1r9ap5j/sx32Y386S5udtfggEBCEAAAhCAAAQ6I/CXzubDdCAAAQhAAAIQgEAgcAgCCEAAAhCAAAS6I4DA6c6lTAgCEIAABCAAAQQOMQABCEAAAhBwJ6Df1v92N9LLPgSOlz+wBgIQgAAEIFCJwFgq6TuBM9b0K8UQj4UABCAAAQhAoCkBMjhN8fPyrAT4QyCr57AbAhAYhQACZxRPM08IQAACEIDAQAQQOAM5m6lCAAIQcCFAFtTFE/3agcDp17fMDAIQgAAEIDAsAQTOsK5n4hAoQuCHiLi68CT9u647NT5cuPf3iPhUxFIeAgEIDEVgmsAhlzhUUDDZYQk83c38ULT8R0Q8PiDykFjZCpwEj4SPhv77r4P/ey+GDq/Zyi7ek5QAv+KSOu6C2dMETp9zZ1YQGImARIr+txcoe+Gy///vlcVhBuifu0nus0aXske9MmFeEBiCAAJnCDebTZI/l2o5ZJ952YuY/9wtDV1aQqplT4bn7gXQ54j4v4iQ6GFZLIPnsBECZHCIAQh0SUDLSRIuysTovw5LR72B1jKXhI+WwCR89H/rfwwIQCABATI4pZ1EdqI00dGft8/KSND8bSdkDmtiRuez9fz32R0td0kA7UXQ1nbwPghAgAwOMQCBVASUiTkUMywv+bvvUPQo00OBs7/PsHAAAmRwBnAyU7QmIDGj/6lehmUma1fNMk4iR2Jnn+lhaWsWPi6GwHoCCJz1DHkCBOYQOBQ0+23Zc+7f7lqWW0uylsDZC553B9vcS76DZ0EAAgcEEDiEAwTqEtgvOSlDc133VTw9EYHDDI8EDwMCEChMAIFTGCiPG56AioKVmfn77r8UBA8fEpMASORoOUv/nbWcRaJtEl8uakGgcXAicFo4nXf2RkAiRtkZsjS9ebbNfCRwJHT+QZuKNg7grX0QQOD04UdmsT0BLT1J1ChTw06n7fmP8kbt0JLY+Z/df0eZN/OEwGoCCJzVCHnAQAQkZP5rJ2xYehrI8SZTReyYOAIzchBA4OTwE1a2IyAh89NO2CBq2vmBN39LALFDRAxEYFkxDwJnoBBhqpMJ7GtqlK1h+WkyNi5sREBi5w01O43o81pbAggcW9dgWAMCytSopobt3A3g88oiBFSg/N9LdmMVeTsPgYARAQSOkTMwpQkBZWh+2YkabfFmQKAXAvviZGV3GBAYjgACZziXM+GIkJBRlkbChiUoQqJ3AvslLGV2Zp2xMxfMskqJuW+J2Oo98y3jDicCCBwnb2BLbQJka2oT5vnuBNQuQufrkNVx9xT2rSaAwFmNkAckILDfBeXd+ykBSEzshoCyOsroSOhUzep0Q4yJpCOAwEnnstEMXpyM1jLUDdu7R4sX5ruAwH4HlrI7DAh0QwCB040rmciOgLZ4v9idXQMUCEBgOgGWr6az4soEBBA4CZyEiZMIaPlJwoZlqEm4uAgCZwloyerVbqu5lrIYEEhJAIGT0m0YfUCA+hrCAQJ1COzrdO4iAqFThzFPrUgAgVMRLo+uSkDCRhkb2idUxczDIXAvbihIJhDSEUDgpHPZ8AYPKmwWF1sPHzAAWELgbLypIFnLV+y8WoKVezYlgMDZFDcvW0FgUGGzghi3QqAeAYROPbY8uRABBE4hkDymGgGETTW0PBgCqwkgdFYj5AG1CCBwapHluWsJIGzWErS4n6U1CzfUNYJi5Lp8efpCAgicheC4rRoBbfN+TY+oanx5MARqEUDo1CLLcxcRQOAswsZNFQhwjk0FqDwSAg0I7M/Rod9VA/i88k8CCByioTUBTh5u7QHe3y2BxguEEjo/RwQtILqNMO+JIXC8/dOzdfteUTrLhgGBywQa/7a+bCBXnCEggXMbEZ8gBIEtCSBwtqTNu/YEVECsOhuJHAYEIDAGAZ2IrDN0OBV5DH83nyUCp7kLhjKAOpuh3M1kIfAdAYkbiRyJHQYEqhJA4FTFy8N3BJSpUcZGmRsGBCAAAS1XadmK+hxioRoBBE41tDx4R+Bm1zOK5ShCAgIQOCagnVYSOixbERvFCSBwiiPlgTsCV7usjZalGBCAAATOEWDZitioQgCBUwXr0A9VpkY7o5S5YUAAAhCYSoDdVlNJcd0kAgicSZi4aCIBZWt+jQidbdPxYL9yx85tOzVCS/xVhPyyrSN4ew8EEDg9eLH9HCgibu8DLIBATwQ4JLAnbzaaCwKnEfiOXnu9y9pQRNyRU5kKBEwIcHaOiSMymoHAyeg1D5slaLQcJYHDgAAEIFCLANmcWmQ7fy4Cp3MHV5oeWZtKYHksBCBwlgDZHIJjFoENBQ7Vc7M8U+3iVX5gh1Q1v/DgOgRWxXsdk3jqGgI6IFANPOlrtYbiIPduKHAGIdrvNAfZIdWvA5kZBDoiwE6rjpxZayoInFpk+3qutmzS9bsvnzIbCGQnoHNzlM1RjQ4DAt8RQOA8GBTDp7d1ns3biNCpxAwIQAACbgR0CrJEzjs3w7CnPQEETnsfuFpAIbGrZ7ALAhA4JkBPK2KCDA4xcJEAh/ZdRMQFEICAIQEKkA2d0tIkMjgt6e/ebbQQpqUonW3DkpRBXGACBCAwm4CWrNSdXBkdxuAEEDiDB8DB9H/adf/mRGJiAgIQyE6AJavsHixgPwKnAMQOHvGa7t8deJEpQAAChwRYsho8HhA4YweAsjXvWZIaOwiYPQQ6JsAuq46de2lqCJxLhPr9dx3cpy3gLEn162NmBgEIfCXAwYCOkVC5ABWB4+j0+jbd7Opt6r+JN0AAAhDwIKCDAZ9HhLI6jAEIIHAGcPLRFLVLSgXFDAhAAAKjEaAuZyCPI3DGcTb1NuP4mplCAALnCVCXM0h0IHDGcLTOtVExMfU2Y/ibWUIAApcJ6Lycu8uXcUVWAgicrJ6bbjctF6az4koIQGAsAjovR72sGB0SQOB06NSDKVFM3Ld/mR0EILCeAMXH6xlaPgGBY+mWIkZRTFwEIw+BAAQGIKDiY+2w+jzAXIeZIgKnP1erzkbiRktTDAhAAAIQmEZAxcfPIkJih9EBAQROB048mAI7pfryJ7OBAAS2JcAOq215V30bAqcq3k0fTifwTXHzMghAoA2Bysfffp2UCo/pSN7GwcXeisAphrLpg9gG3hQ/L4cABDokwDby5E5F4CR34K5RJmfc5PcjM4AABPwIsI3czyeTLULgTEZleaFaLqigeNyxSbZ6XLzMHAIQuF+q4qychIGAwEnotJ3JiJu8vsNyCEAgFwGJHC1Z2TbqHPdvvfMzR+Dk+sj21iJucvoNqyEAgbwEtH1c28htRU5etHUsR+DU4VrzqYibmnR5NgQgAIHzBBA5iaIDgZPIWRHxOiLUfoEBAQhAAAJtCCBy2nCf/VYEzmxkzW6g9UIz9LwYAhCAwDcEEDkJAgKBk8BJu51SWpoqNMYtRysEkMdAAAKzCXT3cweRMzsGtr0BgbMt7yVvI3OzhBr3QAACEKhPAJFTn/HiN/wpcLoT14uZON2IuHHyBrZAAAIQ+J4AIsc0KtZncBBGtVxLQXEtsjwXAhCAQFkCiJyyPIs8bb3AKWIGDzkiwFZwQgICNQjwB1kNqjzzKwFEjlkkIHDMHBIRiBs/n2ARBCAAgSkEEDlTKG10DQJnI9ATX/PTXyJ+/ffEi7kMAhCAAATsCLyLiOd2Vg1oEALHx+lkbnx8gSUQgAAE1hCgQecaeoXuReAUArnyMU8j4v3KZ3A7BCAAAQj4EEDkNPYFAqexAyLiaidufmhvSmcWUFDamUOZDgTSEbjbdSFPZ3gPBiNw2noRcdOWP2+HwHYEENzbsfZ6088RoWwOY2MCCJyNgR+8ThmbjxHxuJ0JvBkCEIAABDYggMjZAPLxKxA4DaBHhMSNam6UwWFAAAIQgED/BJ7szsrpf6YnZ7h9ChOB0ybU3kbEdZtXO791+w/AmUZL2/BES/q8u1MCv0fEs7FFzraeReBsy1tvo7/U9sx5IwQgAAEHAp8jQpkciR1GZQIInMqAjx5/ExHqMcWAAAQgAIExCXDa8UZ+R+BsBJoWDNuB5k0QgAAEzAlwRs4GDkLgbACZs262gcxbIAABCCQi8CoiXiayN52pCJz6LtOOqd92O6fqv23zN1COujlyXggBCPRCgO3jFT2JwKkId/donXXDdvD6nHkDBCAAgWwE2FlV0WMInIpw2TFVFy5PhwAEINABAYmcH9lZVd6TCJzyTPdPZMdUPbY8GQIQgEBPBLSzStvHGQUJIHAKwjx4FN3B63DlqRCAAAR6JcDOqsKeReAUBrrrLaW6G7qDl2fLEyEAAQj0TICi44LeReAUhLl7FEXF5ZnyRAhAAAKjEBi8Z1U5NyNwyrHUk2jDUJYnT4MABCAwGgHaORTyOAKnEEhOKi4HkidBAAIQGJzAh11jzsExrJs+Amcdv/3dOufmPXU3ZWDylH4JXF1dxdOnT+OHH36Iv/3tb/f/1fj999/jX//6V3z+/Dk+fPhw/18GBAYnwEnHKwOgf4FT/6Bd/YSWuPnjML/6r1zpdW6HwIYEJGp++eWXuL6+/kPQXHq9BM4//vGPePPmDWLnEqyJ/87PpYmgvC57FhHK5jAWEOhf4CyAMvMW6m5mAuPyMQg8fvw4fv311/uMzZrx6tWruLu7u8/yMCDQJ4Gz8pNDAFc4HIGzAh51N+vgcXe/BG5ubuL169fFJqiMzvPnz+PTJ52HxoDAUASox1nobgTOQnCcd7McHHf2TUBZm59++qn4JJXBub29vV+2YkBgMAK3EXE32JxXTxeBsxwh590sZ8ednRKoJW4Ocf3888+InE7jh2k9SIDzcWYGCAJnJrDd5S8j4sWyW3u6i7LFnry5di5biBvZqEzOs2fPWK5a6zDuz0ZA67MqOqYYbaLnEDgTQR1cRp+p+cy4o3MC2iH19u3bzWapWpwnT+hNuBlwXuRCQMtUWq5iTCCAwJkA6eASbQnX0tTjebdxNQT6JaCzbH777bfJW8BLkdDuqpcvlUzteJAk7di5i6f2PCLeLb57oBsROPOczZbweby4egACEhkvXmy/Yqulqh9//NFj+zhCZIBIt5kiW8cnuqKCwOn2S7+OiO1y8BMdyGUQaEmgVfZmP+chsjgtHcy7XQkog6NMDuMBAhUETpe8tTT1G60YuvQtk1pBoPR5N3NNURbn0aNHc2/jegj0QIClqgteROBMC3NlbpTBYUAAAgcEVHujE4tbDraNt6TPuxsSYKkKgbM6/FiaWo2QB/RIYOudU+cYqjmnto0zIDAgAZaqHnA6GZyHvwiWpgb8icGUpxHQtnCJHIehLeO0cXDwBDY0IMBS1RnoCJyHo7HbpaluS8HP+nO8Gdf8QatlKS1PuQy1b9BSFQMCAxJgqQqBMzvsOdBvNjJuGIWAGmmqwNhlWG0Zd4GCHSMRYKnqhLfJ4Jz+BDjQb6QfDcx1NoEvX75sfrDfJSMpNr5EiH/vnIAK0dR5nLEjgMA5HQqvI8Lnz1PCFQJGBNQpXH2n3Mbnz5/vD/5jQGBQAp8jQv1L6FWFwDn7CVzt2jEM+o0wbQg8TOD9+/fx9KlWcP2GdlNpV1XOQZ1YTr9ZWV2lV1XWyCSD831sqteURA4DAhA4InB1dRUfP+oT8RwUG3v6Bas2JaAsjjqPDz8QON+GgJaltDzFgAAEThDQ0pSWqJyHlqm0XMU4RyDr3+N4dCIBpTCLHQyVOVoQOH9GDGfeTPx6uKwyAdOfKK37Tk2lTn+qqaS4rmMCOjPhTcfzmzQ1BM6fmOgUPilkuGhUAq37Tk3lTrHxVFIPXGcqsgvMbJRHcDZORCBwvoY7Z96M8tkzz8UEHPpOTTV+jC3jqJCp8TDodVUKjjOxROB89RaFxZmiFls3J6BdU9o9lWXQnyqLp7CzMoGhC44ROBGqmPQ71KNy1PN4CMwh4NR3aqrdFBtPJcV1HRMoWnCcjdPoAofC4mwRi72bE3DrOzUVAFvGp5Lius4JDNuMc3SB8zIiXnQe3EwPAqsIvHz5Ml68yPeZ0J9qldu5uR8COjNhyCO+RxY4jyPCpx1yPx8TM+mMgGPfqamIxyg2nkqD61ITWFdT/ioi9Af9UGNkgcO28KFCnckuIeDad2rqXNgyPpUU13VOYMht46MKHLaFd/41M70yBJz7Tk2dYe7+VFNnyXUQuEhguG3jowoc7Xf17BZ4MUa5AALbEHDvOzWVQspi43XLEVPRcN14BFSLM0wfkxEFDtmb8T5qZryAQIa+U1OnxZbxqaS4rnMCat+gNg5DjBEFjgqLVWDMgAAEzhDI0ndqqgPpTzWVFNcNQECNOHU+TvdjNIHDoX7dhzQTLEHgob5T/07Y44Vi4xJRwTM6ITDM4X+mAqfaAjTZm06+0PbTqBaj30xtm7d8TzNT36mpsfD8+fN49+7d1Mst/LDIWG6CwGUCQ2RxTAXOZe8suILszQJo3DIegWx9p6Z6iP5UU0lx3QAEhsjijCRwyN4M8NUyxfUEMvadmjprio2nkuK6AQh0n8UZReCQvRnga2WK6wlk7Ts1deZ3d3dxe3s79XKug0DPBLrP4owicMje9PyZMrdiBLL2nZoKgP5UU0lx3SAEus7ijCBwyN4M8qUyzfUEMvedmjp7+lNNJcV1AxDoOoszgsAhezPAV8oU1xPI3ndqKoFPnz7FkydPpl7OdRDonUC3WZzeBQ7Zm94/TeZXjEAPfaemwqA/1VRSy69rdcTBcouHvbPbLE7vAofszbDfLBOfQ6D34uJjFin7U81xKNdCYB6BLrM4PQscsjfzApyrBybQU9+pqW589OhRqOiYAQEI3LdukMjpavQscD5GxFVX3mIyEKhAoLe+U1MRufSnYilnqse4rjKB7jqN9ypw6Bhe+Uvg8f0QGKW4+Nhj9KdaG8NIs7UEze7vrtN4rwLnfURI5DAgAIELBHrsOzXV6Wv6U019B9dBIBGBrrI4PQocLUtpeYoBAQhcINBr36mpjqc/1VRSXNcVgfPJt7uI6Oao7x4Fzq8RoQJjBgQgcIHAiMXFx0joT8VnAoE/CKjqXlmcLqrvexM4jyNCW8MZEIDABQKjbQ0/h4P+VHwqEPiGgDI4yuSkH70JnJcR8SK9V5gABDYg0HvfqakItVVcW8YZGxOgRnlj4JNf93mXxZl8g+uFvQmcLxHxgyts7IKAE4GRi4uP/UB/KqfIxBYDAs8j4p2BHatM6EngcLDfqlDg5pEIjLo1/JyP6U91hgxZlpF+LBzOtYuD/3oSOBzsN+qnyLxnE3DpO6WzaHTQoP7XeqgBp4QOAwIQuCdwtGU8n9rtReCwNZwvEgITCTgVF+s04b/+9a9xc3Mz0fp6l9Gfqh5bnpySQPot470IHLaGP/D95NPdKX8YpDHaaWu4tmhrqB7IYdCfysEL2GBCIP2W8R4EjnLbKi5mQAACFwg49Z169+5d6CRhDZcls9vb29C2cQYEIHBP4OeIUAuHlKMHgaPc9mvRJ1ORMgYxekMCTsXFh20SXOyiP9WGwcirMhBQUdqTDIaesrEHgaPctg74Y0AAAhcIuGwNPyUkvnz5YlFsTH8qPiMIfENAAidl9X12gUNxMV8iBCYScOo7peJiHTR4OF6/fm1RbHy4dDYRLZdBoGcCabuMZxc4FBf3/Fkxt6IE3IqLlcU5HE67u7L0pxp+WX54AEV/RJx7mIqNUx71nVngqLhYy1PtD9DYJMZ4CQSWE3ASDw9lSFyKjelPtTzWuLNLAimLjQ0EzmIJzsnFXX5Hlya1OF4uPbjrf3fqO/VQjcv19XW8ffu2uS/oT9XcBRjgRUBtG75ueUw0DATOYlr6KXi9+G5uhMBABJyLi4/d4GIr/akG+kCY6hQCRycbT7ml7TVZBY52TXmcDNbWf7wdAhcJuGRFZOip4uLjCbhkm+hPdTG0uGAsArcRkeqQqKwC54+zb8aKL2YLgfkEXOpaZPmU4t3v6oX+vTvkav7UV99Bf6rVCHlAPwTSnYmTVeDQWLOfj4aZVCSQpbj4GIHqcJR5aj3oT9XaA7zfjECqM3EyChzOvjGLeMzxJeBytowIzTlAz2lZjf5UvvFdxDL2LczBmKoBZ0aBo7YM7VsPzwkJroVAAwJOfaeWtEBwKTamP1WD4OWVrgR0eNXXDrkJRkaBQ2uGBIGFie0JuPR3EokpxcXHxFyKjZeIs/be78ECUiumXkyzTHVe4HjGFstTphGPWX4EPn78GFdX+mTajynFxcdWOtUPPXv2LD58+NAeJBZAoD2BNMtU2TI4LE+1D24sSEDAqe/Umt5OLsXGa+aQIFwwEQJzCKRZpsomcFiemhOGXDssAae+U3OKi48d5iTUlmShhg1AJt47gRTLVJkEDstTvX8yzK8IARUXf/nypciz1j6kRP2KS7Hxkjqitfy4HwKmBFIsU2USOCxPmUY6ZnkRcCnOFZUSouDm5ia03b31oD9Vaw/wfiMCKZapMgkcn8P9PAuwjWK/sinwfxCwS8ZDRpZY1nHKSNGfqvK3zeMXEmjyQ9F+mSqLwKH31MKw57axCDgdkFeyMNelpkg7qbSjiiECTX6pgt6HwKuIeOljzveWZBE49J4qHkX8cCqO1OCBTn2n1hQXH6N0KjamP5VBoGOCAwH73lRZBM77iHjq4FFsgIArAadzY0oUFx9zdll6oz+V6xeAXQ0I6FRj1eNYjgwC54eI8NgSYulCjILAVwJOfadKFBcf+3VVsXHBjuQqNlZtkf7LGJ3A8Jnw24jQjirLkUHg/BQRv1rSwygImBBw6jslJCWKi4/ROhUbz+pPNfzvQJOPBDNqEHinPro1HlzimRkEjsSNRA4DAhA4Q8Cp71TJ4uLj6boUG9dYgiO4IZCUgK2OsDXswNFantIyFQMCEDhDwKnvVMni4uPpqreW5uow6E/l4AVsMCCgDI4yOXbDXeBwerFdyGCQGwGnHUZbZDZcxFzNTJVbjGEPBB4gYHuqsbvAYXs43xUELhBwWbaRmTWKi4+n77QcV6PWiICHQDICttvF3QUO28OTRTrmbkvAqfBWM9/iF75TQfUWgm7biOJtEFhEwHK7uLvA0eZOBgQgcIaAU9+pLZdsXLJW9Kfi04TAPYGfI+KNGwtngaOD/ZTBYUAAAmcIuBx+J/NqFhcfT9+p2Jj+VHyeELgXNxI5VsNZ4NA93CpUMMaNgFPfqS2Ki4/5uxQb05/K7ctobM+Y5x5Zdhd3Fjg+3cMbfy+8HgKnCLx9+zYkchxGi1oUio0dPI8NEPiDgF0djqvAoT0DXw0EHiDg1HdKZm5RXHyMw6nYmP5UfK4Q8KvDcRU41N/wtUDgAQJOfae2LC4+RuLCgf5UfK4Q8KvDcRU4LyPiBQEDAQicJvDly5dQBsNhrCouXlWv8Jd4/Pg/QoXWDoNiYwcvYENDAnZ1OK4Ch/NvGkYpr/Ym4FR70qK4+Ng779+/D53m3Ho4sGjNgPcPT8CqDsdV4HD+zfDfCQDOEXDZPST7WhQXH3NxEnz0p+K7HZyA1Xk4jgKH+pvBvxCmf56A0/kvsrJFcfEpOi5LdhQb8/UOTsCqL5WjwKH/1OBfCNM/T8DlBF9Z2LK4+JiQS7Gxk+ir/R2tKp+qbRzPb0XAqi+Vo8B5GxEeh3u0ChHeC4ETBIr1ndICcIEvf1VxcWEPO22bd1i2K4yXx0FgDoECP13mvO78tTaGHJioLRGPy0yPp0CgHwI3NzehTIXDcCyopdjYITKw4TSBofJdzyLig0MkuAkcDvhziApssCTg1HfKMUvhVGzMlnHLTwijtiFwGxGqxWk+3AQOBcbNQwIDHAk49Z0SH5fi4mNfuRQb05/K8SvCpo0I2DTedBM4HPC3UQTymlwEnPpOORUXH3vx5cuX8eKFxxmhriIwV+RjbUICNgf+uQkcCowTRjMm1yXgVECrmToVFx+Td2LFlvG63wVPtyZgoS0sjDhwEwXG1jGLcS0IOG2BdiwuPvaJS7aL/lQtvhbeaULAotDYSeBQYGwSmZjhRcClrkRUHIuLj73lVK9EsbHXt4Q1mxGwKDR2EjgUGG8We7zomIDrJk6nnUFilqWuxGXHmU3GyzXA+VHUKwGLQmMngcMJxr2GOvNaTMCp75RzcfExYKdiY/pTLQ5/bsxLQOfgaJmq6XASOL9GxE9NafByCBgRcOs75VxcfOw2io2NAhlTRiXQXF80N+DA8+8jQstUDAhAICKc+k7ZLLXMiAyXYmOZ/OjRo1DRMQMCAxF4EhHqTdVsOAkcdchhQAACEVGs71QhmhmKi4+n6lRsnJFfodDhMeMSeK6evC2n7yJw1HtKW8QZEIBARDj1nZJDThYXJyhcpdiYz8mHQIIPpiysVxGhw3ubDReBww6qZiHAix0JuPxiFptMxcXHvnQSiplqmBy/CWxKR6D5TioXgUOLhnSxi8G1CDx9+jTUGdtlZP7F7LTUR38ql4guZcdwGZm54JrvpHIROK+VlZ9Lj+sh0CMBp+LYjMXFxzHhVKyd5RyhHr8r5tSEQFON0fTlB7jZQdUk9nipGwGn7c1i00NxrFNG7O7uLm5vdcgrAwJDEHgUEc22D7oIHHpQDRHrTPISAacD6mRrLxkHl5om+lNd+gL4984INO1J5SJw2CLeWVQznWUEnPpO9VQz4lRsTH+qZd8Gd6Uk8HNEqNi4yXAQOFcR8bHJ7HkpBIwIuPWd6ukXsVOx8adPn+LJE52BxoBA9wSabhV3EDhsEe8+xpngFALaOaV6EYehpRSdvtvTcCo2pj9VT5HV11wK7w3TQX868K/JcBA4dZtsFvZWEy/x0u4JuPWd6rEY1qnY+M2bN6EMGQMCnRNoulXcQeBwBk7nET51eiNrUafsgvzVS3Hxcew5dWcDDofNAAAgAElEQVSnP9XUnwxcl5iAdlA1SwU7CJy3EXGd2IGYDoFVBFQfol0++q/D6Km4+JinU51TD1vwHeIVG+wJNNMZzV584BLOwLGPTwysScBph4/m2VNx8bHfnMRkD4co1vwueHY3BJp1FXcQOF/UPLkbVzIRCMwk4HJGi8zusbj42B1Oy4GZ22DMDHMuH5dAs7NwHAQOZ+CMG/jDz9yp8FXO6LG4+DjInAq6MzcyHf7jBcBUAtpFpd1Um4/WAkeZG2VwGN0SGLl0+LJTnfpOydpei4uPPeFUbDwK88tfg8MV/Lyq4IVmZ+G0FjicgVMsmvgwi6Hc6EFufad6Li4+dqlTsfEIWbONPile40kAgePpF6xaTwDhdY6hW9+pnouLj33gVGw8Qt3T+p8jPCExgWZn4bTO4NQ95C9xRGB6/wQm951SlVrlL3XEX7JOxcYjicv+v2xmeERgWIHDIX98C0MScFoikQNGXCZxKjamP9WQPwZGmTQCZxRPM08IiIBT3ynZM2qhq5Mf1IBTQocBgQ4JVM5BnybW5KUHpnCKcYeR3PeU1tcUOWUO5KuRiouPY9Mpk0Z/qr5/cgw+uyZao8lLDxzNKcaDR/2I03eq/RD/0es/JtdCbRCs9KfaADKvaEGgidZo8lIETov44p0OBJx274jHiMXFx3Hw+vXrULsMh3F7e3tfD8WAQGcEmpxm3FrgfIyIq84cyXQgcJaAW9+pEYuLj53jdB4R/an44dEpgSEFDm0aOo1mpnWagFPfKVk4anHxsXecio3pT8VPjw4JIHA6dCpTgsAfBNz6TrE1+c/gdCo2pj8VPzRqEFi/PWKVVQicVfi4GQJVCaz/8eBWXCxc1Hz8GTROxcZk1qp+zLkfvv5HUYv5N2nX0LoGhyWqFqHGOzcn4FTncTx5ZQy0k0oFxyMPp2JjaqNGjsQu5z6cwKHRZpdxzKROEXDrO3Vso5arJHJGPmjOSYSyu42fI50RQOB05lCmA4E/CLgVF59yjX6pSuQoozPqePv2bVxfX1tMf/TziSycgBGlCCBwSpHkOb0TyLUI7VTAOiUyXr16Fco4/TFy4Z4yxbPXSNxI5DgMisAdvIANhQggcAqB5DEQsCLgtAV5Khi1b9B25RHrcpyybfSnmhqxXGdOQGnh51vb2LLImBqcrb3N+zYn4FTXMXfyOnROIme0uhynein6U82NWq43JdCkozgCxzQaMKsPAo5bw+eQVQZHW8n1i3aU4SRKxV9bxkfMpI0Sb4PME4EziKOZ5iAE3PpOrcE+WibBqdiYs4rWRC73mhAYTuCou91rE/iYAYHiBLIVF18CoKWqZ8+eDZFNcCo2pj/Vpcjk3xMQGE7gaJvGiwSOwUQILCLgVKy6aAInbtJSiUTOdnU57bZwOflPzFX4zYBAUgIInKSOw2wIfEfAre9UaReNsGziVGxMf6rSEczzNiaAwNkYOK+bQqDdH9BTrLO9Jntx8RSwqsuR0Om1AFY1VOpP5TLoT+XiCexYQACBswAat0DAjoDTLpzacLRUpa3kqhPpcTgJ1e8OYOwROHPqlQACp1fPMq+xCDy4tKH2si0PZ6jgip5bPDgtNdKfqkLw8sitCCBwtiLNeyBQk4BTcWrNeR4/u9cMg5M/6U+1ZUTzroIEEDgFYfIoCDQh0NvW8LkQVQyrX8I91eXc3NzE69ceJ1poJ5V2VDEgkIwAAieZwzDXiIBLLXTGvlOl3ai6HImc7baSl57Bt89zKzamP9U5f7v8FKgbj0mfjsBJ6jjMhsA9gZGKiy+5vLcWD07FxqOdKn0p1vj3FAQQOCnchJH2BFr9Hef0S3CSkzYoeL67u7vfSp59uBUb058qe0QNZ/9wAodu4sPFeJ0JtxI0h7Ppqe9UaS+pbkRbybPX5TgVG49w0GLpOOR5TQkgcJri5+UQWEFg9OLiS+i2b/FwyaL5/+5UbEx/qvn+446mBBA4TfHzci8CDmmZGUQ+fvwYV1dXM+4Y89LM25zdsnT0pxrzG0o6awROUsdh9uAEnOozMrgic4sHpzor+lNliHZs3BFA4BAKEMhIwOmXXhZ+WVs8KEunbJ3LoD+Viyew4wKBVxHxcmtKLQ+Np8h4a2/zvuIE3M5IKT7Big9UXY6Kj1WEnGk4LUf2enp0pnjA1kkEEDiTMHERBIwIPNh3yshOZ1Oy7QhyKiin2Ng5srHtgMBwAueHiPhCCEAgMwGnrcOZOWZq8eBWbJy5cDtzzGL7LALDCRzR0VFjDAikJHB9fR1v375Nabuj0ZlaPDjVXdGfyjGasemIAAKHkIBAJgJufaf0i07Zhczb1VWXo4yEMjrOg2JjZ+9gmyGBnyPizdZ2tSwyJoOztbd5XzECjn2n9ksVTtmFpcAztHhwKjamP9XSSOO+jQg8i4jNdxO0FjiqwVEtDgMCqQi8fv06dLKty1Dm49GjR3+Y43Tq7lJG7i0enIqN5X/6Uy2NNO7bgMCQAud9RGi7OAMCaQi4FZkK3KmMhw4gVI2Q7M06tEtIW8lVn+M4vnz5YsM3W7FxssPKHcMvk00InEzewtZxCTj95b73wrkD37SUJpGTvS5HW8m1DOM2nDJ5bBl3iw7sOSCg9PLvWxNpvURFBmdrj/O+1QScai80mUu7aJTB0S9iCbPMw7HOxK0Wi/5UmSO8a9ubaI2/RNs84euI8Clk6Dq+mFwJAo59p6YuTfRQl6OlKv0SV82Jy3DaTecoAl38hB1NCTQSOE3nfN+b4kVbE3g7BKYTcNuhdFxcfGkmOrtHc8hcl+PW4sFtyZL+VJe+Av59YwKfI+LHjd95/7qCqmpRKgiB08Lra965yM1rXuhzr2PfqSXbqVWPI5GTuS5HUeHU4sGp2Jj+VD4/M7DknkCTTuKFBc4iV15HBEfBLkLHTVsTcOw7tfSvdYk1iRxldDIPLclI6LResqLYeOMo6uYPrW4m8lAADCtw6Ci+8c8FXrecgFvfqUvFxVNm6ijapth9eI3qcrSVXLuIWg23YuOpdVmtePHeoQjcKeHaYsYFl6gWmX8VER8X3clNENiQgGPfqVK/xHqpy2nd4sGp2LiE+N3w8+JVfRNo0ofKYYlKNtBws+/g7mJ2Tr+8BHRucfElJ6geR+flKBORebSsP3ETwUuXLzP7H9stCSh7oyzO5qN1BgeBs7nLeeFcAm7LD7J/SXHxpXmrLkciR1vhMw816lQ2p0VdjtMyZo0YyRwX2N6MQJNTjF0yOBz21yzuePEUAk4FpHt7a/517jjfKX46vKZViwenmib6U82NGq6vRACBUwksj4XAagJOW4A1mS3qK3S2i4RO9vNytm7x4JbtK1Wntfoj4gEjE2i2UtTsxQfe5jTjkUPffO5uh7gJ11a/tHqpy9l6qUbLfC7b77XD7MmTJ+ZfGeZ1TqCZzmj24gOHcthf59GdeXpufadKFxdf8o0yOCqwzn4ooLJe2kr+bV1OnTNI3IqN6U91Kcr594oEPkVEM4XtIHA47K9idPHo5QT0S10Cx2m06jXk1qJiiU8kbvTLXlmN2sOp2LhVzNRmzPNTEGh2yJ/oOAgcDvtLEafjGen4S13LDVv8gj7lbcfluiVRucUSn1OxsRg9evSoya6yJf7hnq4INDvkz0Xg/BARX7pyKZNJT8Cx75RDPYWyWlqyylx8rOCs3eLBrdi45flA6X8YJJtAnYXXxRCaHfLnInBkB4f9LY4fbqxB4Obm5n4XkdPYIvMwZb7f1uXo03VIBE+x/Ntrard4cCo21rZ5HS3AgMDGBJptEXcSOJyFs3HU8bqHCTjVUMhSxzNNHJfw5sa1uKr4WEXIpYcOTFS2y2VonjoEkQGBDQmowLh+0duZCbn86aWO4rnbGm8YMbyqLgG3XTCarWuhqGOma0l06LwcbScvPZyE8hbnJ5Xmx/PSE2iqMZq+/MB1bBVPFMdma7zFyTktLewn17K4+BJgZSrEzKouZ8HKWY0WD24CsOYJ2JfihH8fjsDniGi6LuoicNgqPlzse07YrThUlByKiy95S9wkcrKflyPWqnUqtVPNrVh960MPL8UN/941gaZbxEXWReCwVbzrOM8zOcc+TC7FxZe8qF/m4qft5JmH6nLEvFS9ilOtkmMtV+ZYwfYHCTTdQeUkcGQLO6n4WpoTcOs7lfEXktuyzNKgKpXtcCs2ziKYl/qN+2wI/KzywZbWuGRwxOC3iHjcEgbvHpuA40F2rsXFlyJFhdrKXFjV5Vwy+sS/n27xMP9BTsXGGZY85xM+uqP3QsHVgDZ5QNMt4m4ZHLaKbxJzvOQcAbe+U7LTubj4UiSpHkciJ3tdjs6Q0RbrNXU5blmtb/pTIQYuhTL/voxA8wRKcwMOuLGTalkQcVcBAo59p3r4S1sZHImc6+u/G5X8zQ8YLRVqK7kyakuGW7Fx1szgEvbc04RA8x1UbhkcdlI1iUNeKgJOhaB7j/RUK+HWm2lp1K8RBm4xRn+qpVHAfRMINN9BNVHgbJa/vIoIr9bNE7zIJfkJuP11LaIZi4svRUIvdTnKrGmJRz6aM9yyhLUON5zDhGu7JdB8B9VEgbOpA9hJtSluXiYCbvURsmlNpsDZq/olr/NydG5O5rG0xYNTnRf9qTJHoL3tzyOieV8QpxoceYxCY/u47c9Apx0ue7qZi4svRYgyZhI52j6dfczNgrjt1KM/VfYItLVfJxirDqfpcBM4at9805QILx+KgGPfqR6Ki6cEkeOhilPsPr5G2TYJnSlLVhJ3EtQu2+d1mKFEDgMCBQlo7fZRwectfpSbwNERqL8ung03QmAmAce+Uz0VF19yhzIaEjouv/Av2Xvu3+e0eHArNvboT7VZredSF3PfdAIWBcYy103gVCo05uOZHpvjXOnYd6rH4uJLEdVTXc6UFg9uxcalTmy+5Odx/n343zcWBcaOAkc2UWg8zk+CpjN1XCLptbj4kqOVwXn//n36QwE1z1evXoW2xT80nIqNJaq1ZZwBgUIELAqMXQUOhcaFoozHPEzAre+UrO25uHhKPLot30yx+dQ1qm1RNudcXY5bsfFIy6JLfcp9kwlYFBi7Cpz6JxoPn0GcHKjdXuj2C0agRykuvhRUjr65ZPOpf3+oxYNbsTGxt8TD3HOCgMUJxnu73GpwZBcnGvPdVCeg5RC3bcr8Ff2n21WnIh9lLz5+qMWD2xLp6NnD6j90xniBzr6x2ZbnKHB+iIgvaWKBbFAaV+0NdSvylF0jFhdfCpye6nJOFfK6FbmPWv91KQ7591kEbiPibtYdFS92FDia7m8Rkfuo04pO49HrCDjWefDL5bRPJXKU6dCyVfZxqsWDWyaR/lTZo6y5/c8iQtvELYarwNFZOPl/olm4GCMOCbjVPuxtY3ng4Th1bKex5MtSpk59rCR2NNzqjeaezLyEAfd0TcBKU1gZc+B2Dvzr+htoNznHX5QUeE6LB9VM6WDG7HU5mu1hvZXTbj76U02LRa46ScDmgL+9da4CR8tTWqZi9Eagcc2SY98piounB7nqViRyVEeVfexbPLx48eK+4avLoD+ViyfS2WFzwJ+7wJF91OGki29vg5UBUM2D06C4eL43eqvL0bKQU1zSn2p+THLHPQGr+hsZ5JrBkW3z6nAaZwYIcBcC5wPBse8UxcXL40anBSv7kX3sDwN0Wnrz6E+V3bPD2W+nJ+wMOgiJbepwEEZDfIVuW3L30H2Li3N8GOoGr11xTuKghw+qVn+qHFHVgwc3n4Nd/Y17Boc6nM1jtN8XOv61T3FxmXhTPY5ETg91OWWIrH8K/anWM0z5hOUK1K7+xl3gyD7qcFJ+JX5GO+1U2dOhuLhcnCiDI5GjjA6jDAHiswzHQZ7yRN1m3ObqvEQlVvPqcNzoYo8FAbezRgSF4uLj0Fj+p+PhkxwzdRYfwQIjPnz4cH9mDwMCFwj8HhGW7ejdBQ59qfi2VhNwOy1WE6K4eLVbzz5AglanH1OXs56xb43Y+rnxhGIErPpPHc7KXeDk6ktVLF54UCkCjn2nNDd+cZTy8OnnyO/aNaficsZyAgjx5ewGuvNn/c3mOF93gSNmOrjkqSM8bPIn4Nh3iuLibeJGGRyJHLeu8dvMvsxbWEotw7Hzp/wYEZ8d55hB4OiIz9eO8LDJm8APPzyK3377X7ulCoo3t40bLVc5nRS87ezXv43+VOsZdvwEFRarwNhyZBA4OpP9oyU9jLIm4Nh3ir+I24QMdTnLudOfajm7Ae68i4hb13lmEDhix3Zx1wgytsux7xQ1De0CRnU5Kjin+Hi+D7SbSruqGBA4ImDXnuHQviwCR0tUPt3oiHF7Ao59pwSN4uK2oSNxI5HDoYDz/EB/qnm8Brnadnv4nn8WgcN28c2/mDLnkmxu9u6Fjn2nKC5uFQ3fv9ex+NyHzmlL6E/l7qHN7dPOKe2gsh1ZBI4AfokIbRtnQOBBAq59pygu9gpcxwMgvQh9a82rV69CBykyILAj8DwidAaO7cgkcMY71XhBEmXBLbbBudSwKafZ/jsitgx+iouXerPufdTlTOdLf6rprAa5UqcXa5nKdmz5M34thG26i6+1kvubE6C4uLkLUhlAXc50d5GFnM6q8yttTy8+5J5J4HCqcedfTInpTVp22Dp9sy8u/tenCL2bYUdAIkfn5Sh+GOcJ0J+K6NgRsD29OKvAkd1vI4J2wXxjZwk49p2iuDhPwDqeneRGj52Abh5pYo/98pSoZMrgyF6WqZrEco6XUlycw0/uVuqIAe3C47yc057iLCf3CK5uX4rlqYwCh2Wq6rGb9wWOW3+zFBdTnP5t3EssS+RwXs73Pw+yxHTen2T2lqdYnsoocFimso/9Ngbqr20VF7v91c1fu23iocRbqcs5T5Fi4xIRlvYZC5entv8zKtsSlSKCQ//SfhcLDZ/wXUwqLl74+kW37QqZqVdYRO+bmya4f/1LHnjClGMHqhpg+HD6Uxk6ZRuT0ixPZc3gyG4O/dsmmNO8xXFrOMXFacLnoqHX19ehJVC3DOFFwyteQH+qinB9H51meSqzwBnv0D/fgG9umWvfKdL4zUOjqAGqx5HIoS7nK1aWX4uGV4aH2feeOoaYcYlKc3gaEe+LRETr/HeRSYz9EIqLx/b/lrNXBkfxpozOpNHgzKVJdhW6iP5UhUDmeIx976leBI7m8VtEPM4RF1hZi4Dr1nD+uq3lcY/nUpfz1Q/0p/KIx42seBYRHzZ6V5HXZM3gaPKvI+KmCAUekpaA6y8aiovThtRkw1XYrtOPR67Lodh4crhkv/BzRPyYbRKZBY6yN8riMAYmQHHxwM5vPHX98Pzb1dX9eTnKJI467GrNKDuoEYqvIiJdK/nMAkdO/BgRVzW8yTP9CdhtDd8hs/uB7+/K1BYqgyORo2L3EQf9qYbwurI3yuKkGtkFDq0bUoVbWWMd+05xymtZH2d6mpar1MtqxEGxcddeV92N6m/SjewCR60btEyl/zKWEEiazqW4eImzuac2gVHrciiqrx1ZTZ+f6uybQ1LZBY7mwpk4TWO/zcsdt4aLBMXFbeLB6a06J0fZxZGKj8lcOkVgUVvSnX3Tm8BRDY5qcRiDEHDtO8XJxYME4IRpKkYlckY6FJDaswmBke+Su4i4zWf2V4t7yOBoHhQbZ43ABXa7Fhff3t7G3Z1+HjAg8JWAa6axhn/YMl6DavNnpiwu3lPrReBQbNz8O9jOAMet4Zr9o0ePQql6BgQOCbgK8hpeoj9VDarNnpm2uLg3gUOxcbNvYNsXb9t3avo5+xRZbhsHm79tZTH+KHU5fAebR2bNF25SXLzy03pw/r1kcDRJTjauGeomz3ZN+fOXq0mAGJuhnX86L6f3uhy2jBsH4XTTUp5cfDy9ngQOJxtPD96UV7puDaf2IGU4NTFaxcc6L0fLVr0O+lN14dmUJxf3LHA0t7cRMbHNbxdBONQkXPtOUVw8VBgWmawOBJTQ6XEg+Lvw6qOISF9Q2FMGR1Gls9LfdxFeTOI7AhQXZwuKmqvr2Vh8b6/qybRk1eN5Oc+fP493797ld9KYM3gTEaq/ST96EzhyiE42HrfzXfqQPD2B6+vr+18GboOiSjeP5LKn17ocHZegzKb/QISf8NGTiPjk77vLFvYocNgyftnv6a5w7DsliBQXpwslO4OVwVHxvER8L4NlqrSeTL81/JB8jwKHLE7ab+u04RQXd+ZQpnOSgGuN2VJ3sZtqKbmm96mppkROF6NXgfMyIl504SEmcV+M6dilmeJigrM0AWVxlM3poS6HOpzS0VH9eV1sDR8hg8PBf9W/hW1e4Np3SrPn5OJtYmC0t+icHImc7OflsF08XeRucrDfllR6zeCI4cosDsVnWwbiuXe5HnNPcbFDdPRrQw91OQicVPHZJHtT+7dszwLH/OC/2q5N9XGdNfbjx4+Wf8lSXNxHfLnPwnV5dgo3BM4USjbXaMtbd52CexY4ipxfI6LfI0Ntvo06hmzbd2r6HNghMp0VV64noCymhE62uhwEznrfb/QEHeinruHpD/Y75tW7wDHP4mwUvklf49p3iuLipAGV2GzV4+gcKO0ozDL4TrJ4Krpoy3CKdu8ChyxOmm/sW0P11+qXL18srae42NIt3Rulb0IiR5nNDINl3Axeus/adJm9Ef0RBA5ZnBTf2bdGup4JQnFxwmDqzOQsdTn8IZAi8LrN3owicMjipPjOvjXSte8Uf5UmDKYOTXbdXbhH/enTp3jyRCf+M4wJdJ29GUngkMUx/sqOTXPtO0VxcaIgGsBU1eWohYlj8TH1NykCsOvszUgChyxOiu/tq5Gufae2/6HNUQKJwraJqRI3+l6cDgX8/fffQ20a9F+GLYHuszejCRyyOLbf2p+GufadkoXUFCQIoEFNdNpxyPbwFEHYffZmNIFDFifBd9e+gPLfJ2vvKS5OEDyDm+hQl0P2JkUQDpG9GVHgKIvzMSLUq4phRsC57xTFxWbBgjknCbSuy6HBZorA7K7n1DnqI2wTP577yh5VKQI4pZEOf4GeAkdxccpwGtZoLfPqvJyt63Lu7u5CdWoMawJNek61IjKiwKHTeKtou/Be175T2xcXmzoIs9IQUDZUy736o2GLwRLuFpSLvGOY7M2IS1T7CCGLU+RbKfcQ175TmiHFxeX8zJO2JbBFHyvEzbY+XfG2TxEx1OFEI2Zw9vHxW0TkaeyyIqoz3Oq0C+SQFz+8M0QPNj5EQEtV+r5qLFmR3UwVe88i4kMqi1caO7LAUe5W3ca7GhlPTnHuO0VxcVefx9CTUfuTX375pcjBgB8+fLivt9GJxYwUBCRsJHCGGiMLHDn6fUTk6FzXcVhK4NT467IEMv0gZ0CgFwL61m5ubhYLHX0POueG7yJdRKihpgqMhxqjCxyJG4kcBgQgAIFhCEjoqCXK3//+9/vu5OfaPehcG4mZf/7zn/Hu3bvQjkJGOgJ3ETHk9rbRBY4iVctU22w1SPddYDAEIDAKAQmdw0GWpgvPD3Oo3ylvIXC+FhqXP/wvYzFMF99z/kkQOvl9yAwgYEJAmRtlcIYcCJyvbmfb+JDhz6QhAAEIdEtguG3hx55E4PxJhG3jm37n5Ck2xc3LIACB0QgMty0cgXM+xCk4Hu3zt5kvYs/GFRgCgT4IvIkInVo89CCD863730bE9dARweTbEEDjtOHOWyHQH4GhC4sP3YnA+Ta46xQcd/AB8fu3AycyBQhAYAQCQxcWI3AeDnEKjkf4EcAcIQABCPRHYPjCYgTO5aDWtvGry5dxBQQgAAEIQMCGgJpp0j9j5w6WqE7HpcSNRM6KwaLOCnjcCgEIQAAC8wgMe2LxOUwInPMB9DoibubFF1dDAAIQgAAENiegHhrK3qjAmEEG52IM/LDL4qjweNUgl7MKHzdDAAJTCfDDZiqp3q4b/sybUw4lg/NwmHM2Tm8/BpgPBCAAgb4IvIuI531NqcxsEDiXObJUdZkRV0AAAhCAwPYEOPPmAeYInMsBWWyp6vKruAICEIBAUgIsj7VwnDI3yuAwThBA4EwLC5aqpnHyvYofvtv4Bs7bcOYtEPgqbFiaIoNT5FtgqaoIRh4CAQhAAAIrCbA0NQEgGZwJkHaXsFQ1nRVXQgACEIBAPQLsmprAFoEzAdLBJSxVzePF1RCAgD0B1hXtXfStgRzoN9Fhf4kguCey2l9Gr6qZwLgcAhCAAASKEOBAvxkYyeDMgHVwKb2qlnHjLghAAAIQWE6gba+pZPkQBM6yQFOvqvcRobocBgQgAAEIQKA2gVcRoRUExkQCCJyJoE5cpj5V2lnFgAAEIAABCNQk8CEiVFjMmEEAgTMD1olL30bE9bpHfL07WeavxJR5BgQgAAEIXCagLeFamlL9DWMGAQTODFgnLmXr+Dp+3A0BCEBgIwJp/4zktOKFEYLAWQju4DbV46jomAEBCEAAAhAoSYAt4StoInBWwDu4lXqcMhx5CgQgMDKBtEmWKk77tFuaqvLwER6KwCnn5WL1OOVM4kkQgAAEIJCQAHU3BZxWSOAgu3dbxrVU9biAX3gEBCAAAQiMS4C6mwK+LyRwCljSxyM4H6cPPzILCEBgDgH+xp1D69K1nHdzidDEf0fgTAQ147KfIuLXGddzKQQgAAEIQEAEOO+mYBwgcArCPHiUBI6EDgMCEIAABCAwhQB9pqZQmnENAmcGrJmX0q9qJjAuhwAEIDAoARUV66Ri7ZxiFCKAwCkE8sRjdAjgb/SrqgeYJ0MAAhDohMDPEfGmk7nYTAOBU9cVFB3X5cvTIXCBANWvhIg9gTaH+Q3waSBw6sc+Rcf1GfMGCEAAAhkJvIsIbQlnVCCAwKkA9cQj1eL+xTav4i0QcCAwwJ+HDpixITMB1duo7kb1N4wKBBIInG5+ULKzqkIA80gIQAACCQlwUvEGTksgcDagsM0rVHT8PiJUl8OAAAQgAIExCbBjaiO/I3A2AlzDWTkAAAvnSURBVL17jUQO7Ry2Zc7bIAABCDgRYMfURt5A4GwE+uA17KzanjlvhMCOQDdL3ng0J4HbiNCuKcYGBBA4G0A+8QqJHGVyGBCAAAQgMAYBnXOj7A1jIwIInI1An3gN28fbsefNEIAABLYkwHbwLWnv3oXAaQD94JWInLb8eTsEIACB2gTYDl6b8JnnI3A2BX9y/Z/t45v6IPHLKB9J7Lz6phMe9RkveAPiZgG0UrcgcEqRXPccRM46ftwNAQhAwI2AtoP/yEF+7dyCwGnH/vjNiBwfX2AJBCAAgTUEOOtmDb1C9yJwCoEs8BgOAiwAkUdAAAIQaEwAcdPYAfvXI3BMHLEzA5Ez0R/UG0wExWUQgMCWBBA3W9K+8C4EjpEzEDl+zsAiCGQjgPhv6jE1z/zQ1AJe/gcBBI5nMJDJ8fQLVkEAAhA4R4AWDGaxgcAxc8iBOYgcX99gGQQgAIFDAogbw3hA4Bg6BZHj7RSsgwAEIHBAAHFjGg4IHFPHIHL8HYOFEIDA8AQQN8YhgMAxdg4iJ4dzsBICEBiSAOLG3O0IHHMHIXLyOAhLIQCBYQggbhK4GoGTwEmInFxOwloIQKBrAoibAu7d4jgDBE4BR238CHZXbQyc10EAAhDY9ZR6zjk3eWIBgZPHV4eWInJy+g2rIQCBnAQ4oTih3xA4CZ22M1kiRw06r/NOAcshAAEI2BNA3Ni76LSBCJykjjswmy7kmX24xUJ0Zj7YDoG2BBA3bfmvejsCZxU+m5sROTauwBAIQKATAp8iQr2lJHIYCQmkEDj8kTspsl5GxItJV3IRBCAQwQ8WouA8AcSNYXTM/WRTCJyznOfO1tBhhU36aVeXU/ixPA4CEIDAMATeRYS2gpO5Se7y3AInOfxK5qvoWEtWKkJmDEHAXOmbmzdEiDDJqQTe7MTN1Ou5zpiAp8DhB+LakLmKiPeInLUYuR8CEBiIwG1E3A003+6n6ilwWmHvS1g9joi3ESGxw4AABCAAgdMEtBQlcaPsDaMjAgicjpx5YipappLIedr3NJkdBCAAgUUE2Aa+CFuOmxA4Ofy01kq2ka8lyP0QgEBvBLRTSq0XPvc2MebzlQACZ5xIYIfVOL42mGlf670GQDGhLAF2SpXlafk0BI6lW6oZpaUqLVmxw6oaYh4MAQiYE1AhsWpuGJ0TQOB07uAT06P4eDyfM2MIQODruTYUEw8UCQicgZx9MFVlcF5HhJatGBCAAAR6J6A6G9XbqO6GMQgBBM4gjj4zzZud0BmbArOHAAR6JvBhJ244mbhnL5+YGwInvcNXF3NSl5M+BpgABCBwhsCriFCfPsaABBA4Azr9xJS1ZKWTjzkUkHiAAAR6IKBsjfpJabcUY1ACCJxBHX9m2qrL0bIVAwIQWJ0cBWEjApxv0wi822sROG4eaW8PzTrb+wALIACBZQTYAr6MW5d3IXC6dOvqSWkruU4/psXDapQ8AAIQ2IAAS1IbQM72ioICZ3k+d/md2XCns1fFeS/SWY3BEIDASAS0S0r1NrRcGMnrE+ZaUOBMeBuXZCSgLI6yOcrqMCAAAQg4EWCXlJM3zGw5L3BIq5i5qqk52mUlkaP6HAYEIACB1gQ4uK+1BxK8nwxOAicZmUgBspEzzprCHycZvISNywmokFiZGw7uW85wiDsROEO4uegkKUAuipOHQQACEwlQSDwRFJd9JYDAIRKWEtB5OSpApjP5UoLcBwEITCWgA/tUSEzWZioxrkPgEAOrCJDNWYWPmyEAgQsEyNoQIosJTMjgsKC/mO44N5LNGcfXzBQCWxEga7MV6U7fM0HgdDpzplWagLI5avXATqvSZHkeBMYioB1St/SRGsvpNWaLwKlBdexnstNqbP8zewisIcAOqTX0uPcbAggcAqIGARUeqwCZxp016BZ6JovPhUDymBIE1CBTWRudSsyAQBECCJwiGHnIGQI6BVnLVlcQgkAVAqi0Klg3fKiKiHWmjTI3DAgUJYDAKYqTh50hQBEyoQEBCBwTUBGxsjb0kCI2qhBA4FTBykNPENCylbI5P0EHAhAYmoAEjc60YTlq6DCoP3kETn3GvOFbAixbEREQGJMAy1Fj+r3ZrBE4zdAP/2JlcpTR4STk4UMBAAMQeLNbjuIk4gGc7TJFBI6LJ8a0Q+JG9Tm/IHTGDABm3T0BLUNpOYo6m+5d7TdBBE5Fn7DBYzJcHRKobeXU50xGxoUQsCbAtm9r94xhHAJnCz+jdKZSprfVVFJcBwFPAsrUaNu3lqQYEGhKAIHTFD8vP0NAhcjK6Oi/DAhAwJ8ABcT+PhrOQgTOcC5PNWF2XKVyF8YOSEDC5r93B/VRQDxgADhPGYHj7B1s2xNQbY4yOlrCYkAAAu0JIGza+wALLhBA4BAimQggdDJ5C1t7JICw6dGrnc4JgdOpYzufloTOf1Gj07mXmZ4TAYSNkzewZRKB8gKHHUOTwHNREQIUIxfB2MdD+NFTxY/aFfUPamyqsOWhlQmUFziVDebxcwmU/bFf9mlz53L2egkdHRZ4XeyJsx9kSmb2PLgBAvcE2O5NIKQngMBJ70ImcECAAwMJBwisI6CTh7UrSp2+GRCYSMDzDzwEzkT3cVkqAvsWEKrTYedVKtdhbCMCOphPwkYnEDMg0AUBBE4XbuxsEmX/GKAgubPwYDrFCOwLhyVu6BVVDCsPciGAwHHxBHbUJnB1UKdDB/PatHm+MwEtQ6lwmHYKzl7CttUEEDirEfKAZAQkbpTVUVEyy1fJnIe5iwkoW6O6GpahIqJsknixT7ixMgEETmXAPN6agHZfqU5Hu6/I6li7CuMWEthnayRuaKWwECK35SQwlMBBtecM0g2slriRyFFWR0tZDAhkJqB6mn22htqazJ7E9lUEhhI4q0hx8ygEtGy1L0xmCWsUr+ef534J6n8e3OLNX3n5Pc0MJhNA4ExGxYUDElA2R0tYEjwsYQ0YAAmmrEzNXtSwBJXAYZi4HQEEznaseVNuAlrC+jv1Ormd2In1iJpOHMk06hJA4NTly9P7JIDY6dOvzrNC1Dh7B9ssCSBwLN2CUYkI7JexJHqo2UnkuHOmmpSp7Gtq/rmrqWH5qYPYYgrbEkDgbMubt/VNQAJnn93RFnQGBOYQ2O9+2ouaOfdyLQQgcEQAgUNIQKAOARUlS+Sobkf/JbtTh3Pmpyoro3Nq9oKGLd0VvGmSkaswMx55iQAC5xIh/h0CZQjsszv/uRM87MoqwzXbU/aCRv/V/xgQgEAlAgicSmB5LAQuEFDtjjI7CB6LUDn9d36Bv/4RNBb+xYgRCSBwRvQ6c3YkoAzPXvBI/HCisqOXHrZpv+T0r112hgxNPh9icUcEEDgdOZOpdEVAS1j7LM/fdv83dTxeLpaA+bSrodF/qaHx8g/WDE5gQ4FTINk7uLOY/vAEjkWPBA+ZnvphoczMsZDR/5sBAQgYE9hQ4BhTwDQI5CYgkbMXO8r2IHyW+VMZGP1P4uX/dv/V/80ZNMt4chcEJhCol/xA4EzAzyUQSEpAQmcvdpT9UUGzxshn9ByKmP+3EzH72pmkbsZsCEDgFAEEDnEBgXEJ7IWOMkASQH89WPLai6MsdPbLSLJXIkYZGI19oS+ZmCyexE4IFCKAwCkEksdAoGMC+9qf/RRPiZ//KHyYoQSLdiMdj8OdSYeipmP8TA0CEFhCoInAqbfitgQB90AAAhCAAAQg0BuBJgKnN4jMBwIQgAAEIAABLwIIHC9/YA0EIAABCEAAAgUIIHAKQOQREIAABCAAAQh4EUDgePkDayAAAQhAAAIQKEAAgVMAIo+AAAQgAAEIQMCLAALHyx9YA4FkBNgTmcxhmAuBYQggcIZxNROFAAQgAAEIjEMAgTOOr5kpBCAwGgESbKN5nPkeEEDgEA4QgAAEIAABCHRHAIHTnUuZEAQgAAEI7AmQxBo3FhA44/qemUMAAhCAAAS6JYDA6da1TAwCEIAABCAwLgEEzri+Z+YQSEuAZYe0rvvOcHzZjy/dZoLAcfMI9kAAAhCAwGwCQwilISY52/Vnb0DglGPJkyAAAQhAAAIQMCHw/wFfnPk2o0vM2gAAAABJRU5ErkJggg==;container=0;" parent="_BLZTxVhf-Pt93lIt7vx-33" vertex="1">
          <mxGeometry x="23.67" width="74.67" height="70" as="geometry" />
        </mxCell>
        <mxCell id="_BLZTxVhf-Pt93lIt7vx-36" style="rounded=0;orthogonalLoop=1;jettySize=auto;html=1;exitX=1;exitY=0.5;exitDx=0;exitDy=0;entryX=0;entryY=0.5;entryDx=0;entryDy=0;" parent="1" source="_BLZTxVhf-Pt93lIt7vx-24" target="_BLZTxVhf-Pt93lIt7vx-32" edge="1">
          <mxGeometry relative="1" as="geometry">
            <Array as="points">
              <mxPoint x="-280" y="780" />
            </Array>
          </mxGeometry>
        </mxCell>
        <mxCell id="_BLZTxVhf-Pt93lIt7vx-37" value="Rebuild [00000]-[1] / [2]" style="rounded=0;whiteSpace=wrap;html=1;container=0;fillColor=#e1d5e7;strokeColor=#9673a6;" parent="1" vertex="1">
          <mxGeometry x="-243.75" y="737.5" width="143.75" height="30" as="geometry" />
        </mxCell>
        <mxCell id="_BLZTxVhf-Pt93lIt7vx-38" style="rounded=0;orthogonalLoop=1;jettySize=auto;html=1;exitX=1;exitY=0.5;exitDx=0;exitDy=0;entryX=0;entryY=0.5;entryDx=0;entryDy=0;" parent="1" source="_BLZTxVhf-Pt93lIt7vx-24" target="_BLZTxVhf-Pt93lIt7vx-39" edge="1">
          <mxGeometry relative="1" as="geometry">
            <Array as="points">
              <mxPoint x="-280" y="670" />
            </Array>
          </mxGeometry>
        </mxCell>
        <mxCell id="_BLZTxVhf-Pt93lIt7vx-39" value="Run [BS] training mission for student [00000]-[1]" style="rounded=0;whiteSpace=wrap;html=1;container=0;" parent="1" vertex="1">
          <mxGeometry x="-243.75" y="640" width="143.75" height="40" as="geometry" />
        </mxCell>
        <mxCell id="_BLZTxVhf-Pt93lIt7vx-40" value="&lt;b&gt;Naming&lt;/b&gt;&lt;br&gt;[class #]-[student] / [VM in range]&lt;br&gt;Ex: 00000-1 / 1" style="text;html=1;strokeColor=none;fillColor=none;align=left;verticalAlign=middle;whiteSpace=wrap;rounded=0;" parent="1" vertex="1">
          <mxGeometry x="510.24" y="560" width="190" height="50" as="geometry" />
        </mxCell>
        <mxCell id="_BLZTxVhf-Pt93lIt7vx-41" style="edgeStyle=none;rounded=0;orthogonalLoop=1;jettySize=auto;html=1;exitX=1;exitY=0.5;exitDx=0;exitDy=0;entryX=0;entryY=0.5;entryDx=0;entryDy=0;" parent="1" source="_BLZTxVhf-Pt93lIt7vx-24" target="_BLZTxVhf-Pt93lIt7vx-37" edge="1">
          <mxGeometry relative="1" as="geometry">
            <Array as="points">
              <mxPoint x="-280" y="750" />
            </Array>
          </mxGeometry>
        </mxCell>
        <mxCell id="_BLZTxVhf-Pt93lIt7vx-42" value="Stop [BS] training mission for student [00000]-[1]" style="rounded=0;whiteSpace=wrap;html=1;container=0;" parent="1" vertex="1">
          <mxGeometry x="-243.75" y="690" width="143.75" height="40" as="geometry" />
        </mxCell>
        <mxCell id="_BLZTxVhf-Pt93lIt7vx-79" style="edgeStyle=none;rounded=0;orthogonalLoop=1;jettySize=auto;html=1;exitX=1;exitY=0.5;exitDx=0;exitDy=0;endArrow=oval;endFill=1;fillColor=#fff2cc;strokeColor=#d6b656;" parent="1" source="_BLZTxVhf-Pt93lIt7vx-43" edge="1">
          <mxGeometry relative="1" as="geometry">
            <mxPoint x="-50" y="600" as="targetPoint" />
            <Array as="points">
              <mxPoint x="-70" y="605" />
            </Array>
          </mxGeometry>
        </mxCell>
        <mxCell id="_BLZTxVhf-Pt93lIt7vx-43" value="Stop [BS] training mission for class [00000]" style="rounded=0;whiteSpace=wrap;html=1;container=0;fillColor=#fff2cc;strokeColor=#d6b656;" parent="1" vertex="1">
          <mxGeometry x="-245" y="580" width="145" height="50" as="geometry" />
        </mxCell>
        <mxCell id="_BLZTxVhf-Pt93lIt7vx-44" style="edgeStyle=none;rounded=0;orthogonalLoop=1;jettySize=auto;html=1;exitX=1;exitY=0.5;exitDx=0;exitDy=0;entryX=0;entryY=0.5;entryDx=0;entryDy=0;" parent="1" source="_BLZTxVhf-Pt93lIt7vx-24" target="_BLZTxVhf-Pt93lIt7vx-43" edge="1">
          <mxGeometry relative="1" as="geometry">
            <Array as="points">
              <mxPoint x="-280" y="620" />
            </Array>
          </mxGeometry>
        </mxCell>
        <mxCell id="_BLZTxVhf-Pt93lIt7vx-45" style="edgeStyle=none;rounded=0;orthogonalLoop=1;jettySize=auto;html=1;exitX=1;exitY=0.5;exitDx=0;exitDy=0;entryX=0;entryY=0.5;entryDx=0;entryDy=0;" parent="1" source="_BLZTxVhf-Pt93lIt7vx-24" target="_BLZTxVhf-Pt93lIt7vx-42" edge="1">
          <mxGeometry relative="1" as="geometry">
            <Array as="points">
              <mxPoint x="-280" y="710" />
            </Array>
          </mxGeometry>
        </mxCell>
        <mxCell id="_BLZTxVhf-Pt93lIt7vx-46" value="Destroy Class [00000] ranges" style="rounded=0;whiteSpace=wrap;html=1;container=0;fillColor=#d5e8d4;strokeColor=#82b366;" parent="1" vertex="1">
          <mxGeometry x="-243.75" y="820" width="143.75" height="30" as="geometry" />
        </mxCell>
        <mxCell id="_BLZTxVhf-Pt93lIt7vx-78" style="rounded=0;orthogonalLoop=1;jettySize=auto;html=1;exitX=1;exitY=0.5;exitDx=0;exitDy=0;endArrow=oval;endFill=1;fillColor=#fff2cc;strokeColor=#d6b656;" parent="1" source="_BLZTxVhf-Pt93lIt7vx-47" edge="1">
          <mxGeometry relative="1" as="geometry">
            <mxPoint x="-50" y="660" as="targetPoint" />
            <Array as="points">
              <mxPoint x="-70" y="690" />
            </Array>
          </mxGeometry>
        </mxCell>
        <mxCell id="_BLZTxVhf-Pt93lIt7vx-47" value="Stop [BS] training mission for student [00000]-[1]" style="rounded=0;whiteSpace=wrap;html=1;container=0;fillColor=#fff2cc;strokeColor=#d6b656;" parent="1" vertex="1">
          <mxGeometry x="-243.75" y="690" width="143.75" height="40" as="geometry" />
        </mxCell>
        <mxCell id="_BLZTxVhf-Pt93lIt7vx-48" value="Run [BS] training mission for student [00000]-[1]" style="rounded=0;whiteSpace=wrap;html=1;container=0;fillColor=#fff2cc;strokeColor=#d6b656;" parent="1" vertex="1">
          <mxGeometry x="-243.75" y="640" width="143.75" height="40" as="geometry" />
        </mxCell>
        <mxCell id="_BLZTxVhf-Pt93lIt7vx-49" value="" style="group" parent="1" vertex="1" connectable="0">
          <mxGeometry x="148.25" y="540" width="106" height="90" as="geometry" />
        </mxCell>
        <mxCell id="_BLZTxVhf-Pt93lIt7vx-50" value="" style="html=1;verticalLabelPosition=bottom;align=center;labelBackgroundColor=#ffffff;verticalAlign=top;strokeWidth=2;strokeColor=#0080F0;shadow=0;dashed=0;shape=mxgraph.ios7.icons.document;container=0;" parent="_BLZTxVhf-Pt93lIt7vx-49" vertex="1">
          <mxGeometry x="36.13" width="33.75" height="50" as="geometry" />
        </mxCell>
        <mxCell id="_BLZTxVhf-Pt93lIt7vx-51" value="Training mission Broken Spoon (BS) start script" style="text;html=1;strokeColor=none;fillColor=none;align=center;verticalAlign=middle;whiteSpace=wrap;rounded=0;container=0;" parent="_BLZTxVhf-Pt93lIt7vx-49" vertex="1">
          <mxGeometry y="50" width="106" height="40" as="geometry" />
        </mxCell>
        <mxCell id="_BLZTxVhf-Pt93lIt7vx-52" value="" style="group" parent="1" vertex="1" connectable="0">
          <mxGeometry x="148.25" y="440" width="106" height="90" as="geometry" />
        </mxCell>
        <mxCell id="_BLZTxVhf-Pt93lIt7vx-53" value="" style="html=1;verticalLabelPosition=bottom;align=center;labelBackgroundColor=#ffffff;verticalAlign=top;strokeWidth=2;strokeColor=#0080F0;shadow=0;dashed=0;shape=mxgraph.ios7.icons.document;container=0;" parent="_BLZTxVhf-Pt93lIt7vx-52" vertex="1">
          <mxGeometry x="36.13" width="33.75" height="50" as="geometry" />
        </mxCell>
        <mxCell id="_BLZTxVhf-Pt93lIt7vx-54" value="Training mission Broken Spoon (BS) stop script" style="text;html=1;strokeColor=none;fillColor=none;align=center;verticalAlign=middle;whiteSpace=wrap;rounded=0;container=0;" parent="_BLZTxVhf-Pt93lIt7vx-52" vertex="1">
          <mxGeometry y="50" width="106" height="40" as="geometry" />
        </mxCell>
        <mxCell id="_BLZTxVhf-Pt93lIt7vx-55" style="edgeStyle=none;rounded=0;orthogonalLoop=1;jettySize=auto;html=1;exitX=0;exitY=0.5;exitDx=0;exitDy=0;" parent="1" source="_BLZTxVhf-Pt93lIt7vx-51" edge="1">
          <mxGeometry relative="1" as="geometry">
            <mxPoint x="70" y="630" as="targetPoint" />
            <Array as="points">
              <mxPoint x="100" y="610" />
            </Array>
          </mxGeometry>
        </mxCell>
        <mxCell id="_BLZTxVhf-Pt93lIt7vx-56" style="edgeStyle=none;rounded=0;orthogonalLoop=1;jettySize=auto;html=1;exitX=0;exitY=0.5;exitDx=0;exitDy=0;entryX=0.5;entryY=0;entryDx=0;entryDy=0;" parent="1" source="_BLZTxVhf-Pt93lIt7vx-54" target="_BLZTxVhf-Pt93lIt7vx-35" edge="1">
          <mxGeometry relative="1" as="geometry">
            <mxPoint x="100" y="640" as="targetPoint" />
            <Array as="points">
              <mxPoint x="51" y="510" />
            </Array>
          </mxGeometry>
        </mxCell>
        <mxCell id="_BLZTxVhf-Pt93lIt7vx-57" value="" style="group" parent="1" vertex="1" connectable="0">
          <mxGeometry x="263.12" y="620" width="480" height="207.5" as="geometry" />
        </mxCell>
        <mxCell id="_BLZTxVhf-Pt93lIt7vx-58" value="" style="rounded=0;whiteSpace=wrap;html=1;dashed=1;fillColor=none;" parent="_BLZTxVhf-Pt93lIt7vx-57" vertex="1">
          <mxGeometry width="480" height="207.5" as="geometry" />
        </mxCell>
        <mxCell id="_BLZTxVhf-Pt93lIt7vx-59" value="" style="group" parent="_BLZTxVhf-Pt93lIt7vx-57" vertex="1" connectable="0">
          <mxGeometry x="3.3500000000000227" y="83.75" width="87.65" height="67.5" as="geometry" />
        </mxCell>
        <mxCell id="_BLZTxVhf-Pt93lIt7vx-60" value="" style="verticalLabelPosition=bottom;html=1;verticalAlign=top;align=center;strokeColor=none;fillColor=#00BEF2;shape=mxgraph.azure.virtual_machine_feature;pointerEvents=1;" parent="_BLZTxVhf-Pt93lIt7vx-59" vertex="1">
          <mxGeometry x="18.819999999999993" width="50" height="45" as="geometry" />
        </mxCell>
        <mxCell id="_BLZTxVhf-Pt93lIt7vx-61" value="Attack Platform&lt;br&gt;VM 1" style="text;html=1;strokeColor=none;fillColor=none;align=center;verticalAlign=middle;whiteSpace=wrap;rounded=0;" parent="_BLZTxVhf-Pt93lIt7vx-59" vertex="1">
          <mxGeometry y="45" width="87.65" height="22.5" as="geometry" />
        </mxCell>
        <mxCell id="_BLZTxVhf-Pt93lIt7vx-62" value="" style="group" parent="_BLZTxVhf-Pt93lIt7vx-57" vertex="1" connectable="0">
          <mxGeometry x="123.43" y="77.5" width="86.88" height="73.75" as="geometry" />
        </mxCell>
        <mxCell id="_BLZTxVhf-Pt93lIt7vx-63" value="" style="outlineConnect=0;dashed=0;verticalLabelPosition=bottom;verticalAlign=top;align=center;html=1;shape=mxgraph.aws3.router;fillColor=#F58536;gradientColor=none;" parent="_BLZTxVhf-Pt93lIt7vx-62" vertex="1">
          <mxGeometry x="18.439999999999998" width="50" height="51.25" as="geometry" />
        </mxCell>
        <mxCell id="_BLZTxVhf-Pt93lIt7vx-64" value="Core Router&lt;br&gt;VM 2" style="text;html=1;strokeColor=none;fillColor=none;align=center;verticalAlign=middle;whiteSpace=wrap;rounded=0;" parent="_BLZTxVhf-Pt93lIt7vx-62" vertex="1">
          <mxGeometry y="51.25" width="86.88" height="22.5" as="geometry" />
        </mxCell>
        <mxCell id="_BLZTxVhf-Pt93lIt7vx-65" value="" style="endArrow=none;dashed=1;html=1;dashPattern=1 3;strokeWidth=2;fontColor=#FF1100;fillColor=#f8cecc;strokeColor=#b85450;exitX=1;exitY=0.5;exitDx=0;exitDy=0;exitPerimeter=0;" parent="_BLZTxVhf-Pt93lIt7vx-62" source="_BLZTxVhf-Pt93lIt7vx-60" edge="1">
          <mxGeometry width="50" height="50" relative="1" as="geometry">
            <mxPoint x="-31.560000000000002" y="73.75" as="sourcePoint" />
            <mxPoint x="18.439999999999998" y="23.75" as="targetPoint" />
          </mxGeometry>
        </mxCell>
        <mxCell id="_BLZTxVhf-Pt93lIt7vx-66" value="" style="group" parent="_BLZTxVhf-Pt93lIt7vx-57" vertex="1" connectable="0">
          <mxGeometry x="234.25000000000006" y="117.5" width="107.5" height="75" as="geometry" />
        </mxCell>
        <mxCell id="_BLZTxVhf-Pt93lIt7vx-67" value="" style="outlineConnect=0;dashed=0;verticalLabelPosition=bottom;verticalAlign=top;align=center;html=1;shape=mxgraph.aws3.router;fillColor=#F58536;gradientColor=none;" parent="_BLZTxVhf-Pt93lIt7vx-66" vertex="1">
          <mxGeometry x="28.75" width="50" height="51.25" as="geometry" />
        </mxCell>
        <mxCell id="_BLZTxVhf-Pt93lIt7vx-68" value="Enclave 1 Router&lt;br&gt;VM 3" style="text;html=1;strokeColor=none;fillColor=none;align=center;verticalAlign=middle;whiteSpace=wrap;rounded=0;" parent="_BLZTxVhf-Pt93lIt7vx-66" vertex="1">
          <mxGeometry y="52.5" width="107.5" height="22.5" as="geometry" />
        </mxCell>
        <mxCell id="_BLZTxVhf-Pt93lIt7vx-69" value="" style="group" parent="_BLZTxVhf-Pt93lIt7vx-57" vertex="1" connectable="0">
          <mxGeometry x="290.4599999999999" y="10" width="102.57999999999998" height="67.5" as="geometry" />
        </mxCell>
        <mxCell id="_BLZTxVhf-Pt93lIt7vx-70" value="" style="verticalLabelPosition=bottom;html=1;verticalAlign=top;align=center;strokeColor=none;fillColor=#00BEF2;shape=mxgraph.azure.virtual_machine_feature;pointerEvents=1;" parent="_BLZTxVhf-Pt93lIt7vx-69" vertex="1">
          <mxGeometry x="26.30000000000001" width="50" height="45" as="geometry" />
        </mxCell>
        <mxCell id="_BLZTxVhf-Pt93lIt7vx-71" value="Enclave 1 Target 1&lt;br&gt;VM 4" style="text;html=1;strokeColor=none;fillColor=none;align=center;verticalAlign=middle;whiteSpace=wrap;rounded=0;" parent="_BLZTxVhf-Pt93lIt7vx-69" vertex="1">
          <mxGeometry y="45" width="102.58" height="22.5" as="geometry" />
        </mxCell>
        <mxCell id="_BLZTxVhf-Pt93lIt7vx-72" value="" style="group" parent="_BLZTxVhf-Pt93lIt7vx-57" vertex="1" connectable="0">
          <mxGeometry x="358" y="75" width="102.58000000000004" height="67.5" as="geometry" />
        </mxCell>
        <mxCell id="_BLZTxVhf-Pt93lIt7vx-73" value="" style="verticalLabelPosition=bottom;html=1;verticalAlign=top;align=center;strokeColor=none;fillColor=#00BEF2;shape=mxgraph.azure.virtual_machine_feature;pointerEvents=1;" parent="_BLZTxVhf-Pt93lIt7vx-72" vertex="1">
          <mxGeometry x="26.299999999999955" width="50" height="45" as="geometry" />
        </mxCell>
        <mxCell id="_BLZTxVhf-Pt93lIt7vx-74" value="Enclave 1 Target 2&lt;br&gt;VM 5" style="text;html=1;strokeColor=none;fillColor=none;align=center;verticalAlign=middle;whiteSpace=wrap;rounded=0;" parent="_BLZTxVhf-Pt93lIt7vx-72" vertex="1">
          <mxGeometry y="45" width="102.58" height="22.5" as="geometry" />
        </mxCell>
        <mxCell id="_BLZTxVhf-Pt93lIt7vx-75" value="" style="endArrow=none;dashed=1;html=1;dashPattern=1 3;strokeWidth=2;fontColor=#FF1100;fillColor=#f8cecc;strokeColor=#b85450;exitX=1;exitY=0.5;exitDx=0;exitDy=0;exitPerimeter=0;entryX=0;entryY=0.5;entryDx=0;entryDy=0;entryPerimeter=0;" parent="_BLZTxVhf-Pt93lIt7vx-57" source="_BLZTxVhf-Pt93lIt7vx-63" target="_BLZTxVhf-Pt93lIt7vx-67" edge="1">
          <mxGeometry y="10" width="50" height="50" as="geometry">
            <mxPoint x="82.17000000000007" y="116.25" as="sourcePoint" />
            <mxPoint x="151.87000000000012" y="111.25" as="targetPoint" />
          </mxGeometry>
        </mxCell>
        <mxCell id="_BLZTxVhf-Pt93lIt7vx-76" value="" style="endArrow=none;dashed=1;html=1;dashPattern=1 3;strokeWidth=2;fontColor=#FF1100;fillColor=#f8cecc;strokeColor=#b85450;entryX=0.855;entryY=0.145;entryDx=0;entryDy=0;entryPerimeter=0;exitX=0.25;exitY=1;exitDx=0;exitDy=0;" parent="_BLZTxVhf-Pt93lIt7vx-57" source="_BLZTxVhf-Pt93lIt7vx-71" target="_BLZTxVhf-Pt93lIt7vx-67" edge="1">
          <mxGeometry y="10" width="50" height="50" as="geometry">
            <mxPoint x="320" y="87.5" as="sourcePoint" />
            <mxPoint x="273" y="153.125" as="targetPoint" />
          </mxGeometry>
        </mxCell>
        <mxCell id="_BLZTxVhf-Pt93lIt7vx-77" value="" style="endArrow=none;dashed=1;html=1;dashPattern=1 3;strokeWidth=2;fontColor=#FF1100;fillColor=#f8cecc;strokeColor=#b85450;exitX=0.855;exitY=0.145;exitDx=0;exitDy=0;exitPerimeter=0;entryX=0;entryY=0.25;entryDx=0;entryDy=0;" parent="_BLZTxVhf-Pt93lIt7vx-57" source="_BLZTxVhf-Pt93lIt7vx-67" target="_BLZTxVhf-Pt93lIt7vx-74" edge="1">
          <mxGeometry y="10" width="50" height="50" as="geometry">
            <mxPoint x="211.8699999999999" y="123.125" as="sourcePoint" />
            <mxPoint x="283" y="163.125" as="targetPoint" />
          </mxGeometry>
        </mxCell>
        <mxCell id="_BLZTxVhf-Pt93lIt7vx-80" value="&lt;b&gt;Instructor Actions&lt;/b&gt;&lt;br&gt;Each action is a template with defined [input&#39;" style="text;html=1;strokeColor=none;fillColor=none;align=center;verticalAlign=middle;whiteSpace=wrap;rounded=0;" parent="1" vertex="1">
          <mxGeometry x="-424" y="600" width="110" height="55" as="geometry" />
        </mxCell>
      </root>
    </mxGraphModel>
  </diagram>
</mxfile>
